<mxfile host="app.diagrams.net" agent="Mozilla/5.0 (Windows NT 10.0; Win64; x64) AppleWebKit/537.36 (KHTML, like Gecko) Chrome/131.0.0.0 Safari/537.36" version="26.0.10" pages="10">
  <diagram id="ckK2as1HFP1tDRDaOo7h" name="datastack">
    <mxGraphModel dx="1050" dy="522" grid="1" gridSize="10" guides="1" tooltips="1" connect="1" arrows="1" fold="1" page="1" pageScale="1" pageWidth="827" pageHeight="1169" math="0" shadow="0">
      <root>
        <mxCell id="0" />
        <mxCell id="1" parent="0" />
        <mxCell id="xurH-sgGPJvmDU3HQOl6-1" value="&lt;font style=&quot;font-size: 18px;&quot;&gt;Application&lt;/font&gt;" style="rounded=1;whiteSpace=wrap;html=1;" parent="1" vertex="1">
          <mxGeometry x="80" y="120" width="170" height="40" as="geometry" />
        </mxCell>
        <mxCell id="xurH-sgGPJvmDU3HQOl6-5" style="edgeStyle=orthogonalEdgeStyle;rounded=0;orthogonalLoop=1;jettySize=auto;html=1;exitX=0.5;exitY=0;exitDx=0;exitDy=0;entryX=0.5;entryY=1;entryDx=0;entryDy=0;endArrow=none;endFill=0;" parent="1" source="xurH-sgGPJvmDU3HQOl6-2" target="xurH-sgGPJvmDU3HQOl6-1" edge="1">
          <mxGeometry relative="1" as="geometry" />
        </mxCell>
        <mxCell id="xurH-sgGPJvmDU3HQOl6-2" value="&lt;font style=&quot;font-size: 18px;&quot;&gt;Query Engine&lt;/font&gt;" style="rounded=1;whiteSpace=wrap;html=1;" parent="1" vertex="1">
          <mxGeometry x="80" y="170" width="170" height="40" as="geometry" />
        </mxCell>
        <mxCell id="xurH-sgGPJvmDU3HQOl6-3" value="&lt;font style=&quot;font-size: 18px;&quot;&gt;Data Management&lt;/font&gt;" style="rounded=1;whiteSpace=wrap;html=1;" parent="1" vertex="1">
          <mxGeometry x="80" y="220" width="170" height="40" as="geometry" />
        </mxCell>
        <mxCell id="xurH-sgGPJvmDU3HQOl6-4" value="&lt;font style=&quot;font-size: 18px;&quot;&gt;Data Storage&lt;/font&gt;" style="rounded=1;whiteSpace=wrap;html=1;" parent="1" vertex="1">
          <mxGeometry x="80" y="270" width="170" height="40" as="geometry" />
        </mxCell>
        <mxCell id="xurH-sgGPJvmDU3HQOl6-6" style="edgeStyle=orthogonalEdgeStyle;rounded=0;orthogonalLoop=1;jettySize=auto;html=1;exitX=0.5;exitY=0;exitDx=0;exitDy=0;entryX=0.5;entryY=1;entryDx=0;entryDy=0;endArrow=none;endFill=0;" parent="1" edge="1">
          <mxGeometry relative="1" as="geometry">
            <mxPoint x="164.95999999999998" y="220" as="sourcePoint" />
            <mxPoint x="164.95999999999998" y="210" as="targetPoint" />
          </mxGeometry>
        </mxCell>
        <mxCell id="xurH-sgGPJvmDU3HQOl6-7" style="edgeStyle=orthogonalEdgeStyle;rounded=0;orthogonalLoop=1;jettySize=auto;html=1;exitX=0.5;exitY=0;exitDx=0;exitDy=0;entryX=0.5;entryY=1;entryDx=0;entryDy=0;endArrow=none;endFill=0;" parent="1" edge="1">
          <mxGeometry relative="1" as="geometry">
            <mxPoint x="164.99" y="270" as="sourcePoint" />
            <mxPoint x="164.99" y="260" as="targetPoint" />
          </mxGeometry>
        </mxCell>
        <mxCell id="oBbh1KPZsCdUFkjq0TBf-11" value="&lt;span style=&quot;font-size: 18px;&quot;&gt;Application&lt;/span&gt;" style="rounded=0;whiteSpace=wrap;html=1;" parent="1" vertex="1">
          <mxGeometry x="560" y="120" width="170" height="40" as="geometry" />
        </mxCell>
        <mxCell id="oBbh1KPZsCdUFkjq0TBf-12" value="&lt;span style=&quot;font-size: 18px;&quot;&gt;Query Engine&lt;/span&gt;" style="rounded=0;whiteSpace=wrap;html=1;" parent="1" vertex="1">
          <mxGeometry x="560" y="160" width="170" height="40" as="geometry" />
        </mxCell>
        <mxCell id="oBbh1KPZsCdUFkjq0TBf-13" value="&lt;span style=&quot;font-size: 18px;&quot;&gt;Data Management&lt;/span&gt;" style="rounded=0;whiteSpace=wrap;html=1;" parent="1" vertex="1">
          <mxGeometry x="560" y="200" width="170" height="40" as="geometry" />
        </mxCell>
        <mxCell id="oBbh1KPZsCdUFkjq0TBf-14" value="&lt;span style=&quot;font-size: 18px;&quot;&gt;Data Storage&lt;/span&gt;" style="rounded=0;whiteSpace=wrap;html=1;" parent="1" vertex="1">
          <mxGeometry x="560" y="240" width="170" height="40" as="geometry" />
        </mxCell>
        <mxCell id="oBbh1KPZsCdUFkjq0TBf-24" value="" style="group" parent="1" vertex="1" connectable="0">
          <mxGeometry x="550" y="110" width="190" height="180" as="geometry" />
        </mxCell>
        <mxCell id="oBbh1KPZsCdUFkjq0TBf-15" value="" style="endArrow=none;html=1;rounded=0;" parent="oBbh1KPZsCdUFkjq0TBf-24" edge="1">
          <mxGeometry width="50" height="50" relative="1" as="geometry">
            <mxPoint y="180" as="sourcePoint" />
            <mxPoint as="targetPoint" />
          </mxGeometry>
        </mxCell>
        <mxCell id="oBbh1KPZsCdUFkjq0TBf-17" value="" style="endArrow=none;html=1;rounded=0;" parent="oBbh1KPZsCdUFkjq0TBf-24" edge="1">
          <mxGeometry width="50" height="50" relative="1" as="geometry">
            <mxPoint y="180" as="sourcePoint" />
            <mxPoint x="190" y="180" as="targetPoint" />
          </mxGeometry>
        </mxCell>
        <mxCell id="oBbh1KPZsCdUFkjq0TBf-22" value="" style="endArrow=none;html=1;rounded=0;" parent="oBbh1KPZsCdUFkjq0TBf-24" edge="1">
          <mxGeometry width="50" height="50" relative="1" as="geometry">
            <mxPoint as="sourcePoint" />
            <mxPoint x="190" as="targetPoint" />
          </mxGeometry>
        </mxCell>
        <mxCell id="oBbh1KPZsCdUFkjq0TBf-23" value="" style="endArrow=none;html=1;rounded=0;" parent="oBbh1KPZsCdUFkjq0TBf-24" edge="1">
          <mxGeometry width="50" height="50" relative="1" as="geometry">
            <mxPoint x="190" y="180" as="sourcePoint" />
            <mxPoint x="190" as="targetPoint" />
          </mxGeometry>
        </mxCell>
        <mxCell id="oBbh1KPZsCdUFkjq0TBf-25" value="" style="group" parent="1" vertex="1" connectable="0">
          <mxGeometry x="320" y="100" width="190" height="190" as="geometry" />
        </mxCell>
        <mxCell id="oBbh1KPZsCdUFkjq0TBf-6" value="" style="endArrow=none;html=1;rounded=0;" parent="oBbh1KPZsCdUFkjq0TBf-25" edge="1">
          <mxGeometry width="50" height="50" relative="1" as="geometry">
            <mxPoint y="190" as="sourcePoint" />
            <mxPoint y="20" as="targetPoint" />
          </mxGeometry>
        </mxCell>
        <mxCell id="oBbh1KPZsCdUFkjq0TBf-7" value="" style="endArrow=none;html=1;rounded=0;" parent="oBbh1KPZsCdUFkjq0TBf-25" edge="1">
          <mxGeometry width="50" height="50" relative="1" as="geometry">
            <mxPoint x="190" y="190" as="sourcePoint" />
            <mxPoint x="190" y="20" as="targetPoint" />
          </mxGeometry>
        </mxCell>
        <mxCell id="oBbh1KPZsCdUFkjq0TBf-8" value="" style="endArrow=none;html=1;rounded=0;" parent="oBbh1KPZsCdUFkjq0TBf-25" edge="1">
          <mxGeometry width="50" height="50" relative="1" as="geometry">
            <mxPoint y="190" as="sourcePoint" />
            <mxPoint x="190" y="190" as="targetPoint" />
          </mxGeometry>
        </mxCell>
        <mxCell id="oBbh1KPZsCdUFkjq0TBf-9" value="" style="endArrow=none;dashed=1;html=1;rounded=0;" parent="oBbh1KPZsCdUFkjq0TBf-25" edge="1">
          <mxGeometry width="50" height="50" relative="1" as="geometry">
            <mxPoint y="20" as="sourcePoint" />
            <mxPoint as="targetPoint" />
          </mxGeometry>
        </mxCell>
        <mxCell id="oBbh1KPZsCdUFkjq0TBf-10" value="" style="endArrow=none;dashed=1;html=1;rounded=0;" parent="oBbh1KPZsCdUFkjq0TBf-25" edge="1">
          <mxGeometry width="50" height="50" relative="1" as="geometry">
            <mxPoint x="190" y="30" as="sourcePoint" />
            <mxPoint x="190" as="targetPoint" />
          </mxGeometry>
        </mxCell>
        <mxCell id="oBbh1KPZsCdUFkjq0TBf-26" value="" style="group" parent="1" vertex="1" connectable="0">
          <mxGeometry x="330" y="120" width="170" height="160" as="geometry" />
        </mxCell>
        <mxCell id="oBbh1KPZsCdUFkjq0TBf-1" value="&lt;span style=&quot;font-size: 18px;&quot;&gt;Application&lt;/span&gt;" style="rounded=0;whiteSpace=wrap;html=1;" parent="oBbh1KPZsCdUFkjq0TBf-26" vertex="1">
          <mxGeometry width="170" height="40" as="geometry" />
        </mxCell>
        <mxCell id="oBbh1KPZsCdUFkjq0TBf-2" value="&lt;span style=&quot;font-size: 18px;&quot;&gt;Query Engine&lt;/span&gt;" style="rounded=0;whiteSpace=wrap;html=1;" parent="oBbh1KPZsCdUFkjq0TBf-26" vertex="1">
          <mxGeometry y="40" width="170" height="40" as="geometry" />
        </mxCell>
        <mxCell id="oBbh1KPZsCdUFkjq0TBf-3" value="&lt;span style=&quot;font-size: 18px;&quot;&gt;Data Management&lt;/span&gt;" style="rounded=0;whiteSpace=wrap;html=1;" parent="oBbh1KPZsCdUFkjq0TBf-26" vertex="1">
          <mxGeometry y="80" width="170" height="40" as="geometry" />
        </mxCell>
        <mxCell id="oBbh1KPZsCdUFkjq0TBf-4" value="&lt;span style=&quot;font-size: 18px;&quot;&gt;Data Storage&lt;/span&gt;" style="rounded=0;whiteSpace=wrap;html=1;" parent="oBbh1KPZsCdUFkjq0TBf-26" vertex="1">
          <mxGeometry y="120" width="170" height="40" as="geometry" />
        </mxCell>
      </root>
    </mxGraphModel>
  </diagram>
  <diagram name="HDFS" id="q9hulrzG1sx3uUM-iEVA">
    <mxGraphModel dx="1050" dy="522" grid="1" gridSize="10" guides="1" tooltips="1" connect="1" arrows="1" fold="1" page="1" pageScale="1" pageWidth="827" pageHeight="1169" math="0" shadow="0">
      <root>
        <mxCell id="WPXkGI7jKhw6h6rDNOhQ-0" />
        <mxCell id="WPXkGI7jKhw6h6rDNOhQ-1" parent="WPXkGI7jKhw6h6rDNOhQ-0" />
        <mxCell id="p6sBYkLoRlJs1ZlLvmCa-14" value="" style="group" parent="WPXkGI7jKhw6h6rDNOhQ-1" vertex="1" connectable="0">
          <mxGeometry x="160" y="400" width="140" height="90" as="geometry" />
        </mxCell>
        <mxCell id="p6sBYkLoRlJs1ZlLvmCa-11" value="&lt;font style=&quot;color: rgb(0, 0, 0);&quot;&gt;&lt;b&gt;Datanode A&lt;/b&gt;&lt;/font&gt;" style="rounded=0;whiteSpace=wrap;html=1;strokeWidth=1;fillColor=#FFFFFF;verticalAlign=top;fontSize=14;" parent="p6sBYkLoRlJs1ZlLvmCa-14" vertex="1">
          <mxGeometry width="130" height="90" as="geometry" />
        </mxCell>
        <mxCell id="p6sBYkLoRlJs1ZlLvmCa-10" value="&lt;font style=&quot;font-size: 14px;&quot;&gt;OS File system&lt;/font&gt;" style="rounded=0;whiteSpace=wrap;html=1;strokeWidth=1;fillColor=#F19C99;" parent="p6sBYkLoRlJs1ZlLvmCa-14" vertex="1">
          <mxGeometry x="9" y="33.75" width="111" height="45" as="geometry" />
        </mxCell>
        <mxCell id="p6sBYkLoRlJs1ZlLvmCa-15" value="" style="group" parent="WPXkGI7jKhw6h6rDNOhQ-1" vertex="1" connectable="0">
          <mxGeometry x="360" y="400" width="130" height="90" as="geometry" />
        </mxCell>
        <mxCell id="p6sBYkLoRlJs1ZlLvmCa-16" value="&lt;font style=&quot;color: rgb(0, 0, 0);&quot;&gt;&lt;b&gt;Datanode B&lt;/b&gt;&lt;/font&gt;" style="rounded=0;whiteSpace=wrap;html=1;strokeWidth=1;fillColor=#FFFFFF;verticalAlign=top;fontSize=14;" parent="p6sBYkLoRlJs1ZlLvmCa-15" vertex="1">
          <mxGeometry width="130" height="90" as="geometry" />
        </mxCell>
        <mxCell id="p6sBYkLoRlJs1ZlLvmCa-17" value="&lt;font style=&quot;font-size: 14px;&quot;&gt;OS File system&lt;/font&gt;" style="rounded=0;whiteSpace=wrap;html=1;strokeWidth=1;fillColor=#F19C99;" parent="p6sBYkLoRlJs1ZlLvmCa-15" vertex="1">
          <mxGeometry x="9.75" y="30" width="108.33" height="50" as="geometry" />
        </mxCell>
        <mxCell id="p6sBYkLoRlJs1ZlLvmCa-18" value="" style="group" parent="WPXkGI7jKhw6h6rDNOhQ-1" vertex="1" connectable="0">
          <mxGeometry x="560" y="400" width="130" height="90" as="geometry" />
        </mxCell>
        <mxCell id="p6sBYkLoRlJs1ZlLvmCa-19" value="&lt;font style=&quot;color: rgb(0, 0, 0);&quot;&gt;&lt;b&gt;Datanode C&lt;/b&gt;&lt;/font&gt;" style="rounded=0;whiteSpace=wrap;html=1;strokeWidth=1;fillColor=#FFFFFF;verticalAlign=top;fontSize=14;" parent="p6sBYkLoRlJs1ZlLvmCa-18" vertex="1">
          <mxGeometry width="130" height="90" as="geometry" />
        </mxCell>
        <mxCell id="p6sBYkLoRlJs1ZlLvmCa-20" value="&lt;font style=&quot;font-size: 14px;&quot;&gt;OS File system&lt;/font&gt;" style="rounded=0;whiteSpace=wrap;html=1;strokeWidth=1;fillColor=#F19C99;" parent="p6sBYkLoRlJs1ZlLvmCa-18" vertex="1">
          <mxGeometry x="9" y="33.75" width="111" height="45" as="geometry" />
        </mxCell>
        <mxCell id="p6sBYkLoRlJs1ZlLvmCa-25" value="&lt;font&gt;1&lt;/font&gt;" style="shape=cylinder3;whiteSpace=wrap;html=1;boundedLbl=1;backgroundOutline=1;size=6.000000000000114;strokeColor=#007FFF;fontColor=#007FFF;" parent="WPXkGI7jKhw6h6rDNOhQ-1" vertex="1">
          <mxGeometry x="170" y="500" width="30" height="35.71" as="geometry" />
        </mxCell>
        <mxCell id="p6sBYkLoRlJs1ZlLvmCa-26" value="2" style="shape=cylinder3;whiteSpace=wrap;html=1;boundedLbl=1;backgroundOutline=1;size=6.000000000000114;" parent="WPXkGI7jKhw6h6rDNOhQ-1" vertex="1">
          <mxGeometry x="210" y="500" width="30" height="35.71" as="geometry" />
        </mxCell>
        <mxCell id="p6sBYkLoRlJs1ZlLvmCa-35" style="edgeStyle=orthogonalEdgeStyle;rounded=0;orthogonalLoop=1;jettySize=auto;html=1;exitX=0.25;exitY=1;exitDx=0;exitDy=0;entryX=0.25;entryY=0;entryDx=0;entryDy=0;fontColor=#007FFF;strokeColor=#007FFF;" parent="WPXkGI7jKhw6h6rDNOhQ-1" source="p6sBYkLoRlJs1ZlLvmCa-29" target="p6sBYkLoRlJs1ZlLvmCa-11" edge="1">
          <mxGeometry relative="1" as="geometry" />
        </mxCell>
        <mxCell id="p6sBYkLoRlJs1ZlLvmCa-37" value="read file 1" style="edgeLabel;html=1;align=center;verticalAlign=middle;resizable=0;points=[];textDirection=vertical-rl;rotation=-180;fontColor=#007FFF;" parent="p6sBYkLoRlJs1ZlLvmCa-35" vertex="1" connectable="0">
          <mxGeometry x="-0.1268" y="1" relative="1" as="geometry">
            <mxPoint x="-10" as="offset" />
          </mxGeometry>
        </mxCell>
        <mxCell id="p6sBYkLoRlJs1ZlLvmCa-29" value="&lt;b&gt;Application&lt;/b&gt;&lt;div&gt;&lt;br&gt;&lt;/div&gt;" style="rounded=0;whiteSpace=wrap;html=1;strokeWidth=1;fillColor=#FFFFFF;verticalAlign=top;fontColor=#000000;fontSize=14;" parent="WPXkGI7jKhw6h6rDNOhQ-1" vertex="1">
          <mxGeometry x="160" y="80" width="130" height="90" as="geometry" />
        </mxCell>
        <mxCell id="p6sBYkLoRlJs1ZlLvmCa-30" value="&lt;font&gt;HDFS Client&lt;/font&gt;" style="rounded=0;whiteSpace=wrap;html=1;strokeWidth=1;fillColor=#E6FFCC;" parent="WPXkGI7jKhw6h6rDNOhQ-1" vertex="1">
          <mxGeometry x="170" y="110" width="110" height="50" as="geometry" />
        </mxCell>
        <mxCell id="p6sBYkLoRlJs1ZlLvmCa-36" style="edgeStyle=orthogonalEdgeStyle;rounded=0;orthogonalLoop=1;jettySize=auto;html=1;entryX=0.326;entryY=1.003;entryDx=0;entryDy=0;entryPerimeter=0;fontColor=#007FFF;strokeColor=#007FFF;" parent="WPXkGI7jKhw6h6rDNOhQ-1" edge="1">
          <mxGeometry relative="1" as="geometry">
            <mxPoint x="211" y="400" as="sourcePoint" />
            <mxPoint x="211.38" y="170.26999999999998" as="targetPoint" />
          </mxGeometry>
        </mxCell>
        <mxCell id="p6sBYkLoRlJs1ZlLvmCa-38" value="return file 1" style="edgeLabel;html=1;align=center;verticalAlign=middle;resizable=0;points=[];textDirection=vertical-rl;rotation=-180;fontColor=#007FFF;" parent="WPXkGI7jKhw6h6rDNOhQ-1" vertex="1" connectable="0">
          <mxGeometry x="206.5" y="269.99965517241367" as="geometry">
            <mxPoint x="1.9999999999999998" y="-2.0000000000000004" as="offset" />
          </mxGeometry>
        </mxCell>
        <mxCell id="p6sBYkLoRlJs1ZlLvmCa-40" value="&lt;font&gt;1&lt;/font&gt;" style="shape=cylinder3;whiteSpace=wrap;html=1;boundedLbl=1;backgroundOutline=1;size=6.000000000000114;strokeColor=#000000;fontColor=#000000;" parent="WPXkGI7jKhw6h6rDNOhQ-1" vertex="1">
          <mxGeometry x="370" y="500" width="30" height="35.71" as="geometry" />
        </mxCell>
        <mxCell id="p6sBYkLoRlJs1ZlLvmCa-41" value="2" style="shape=cylinder3;whiteSpace=wrap;html=1;boundedLbl=1;backgroundOutline=1;size=6.000000000000114;" parent="WPXkGI7jKhw6h6rDNOhQ-1" vertex="1">
          <mxGeometry x="410" y="500" width="30" height="35.71" as="geometry" />
        </mxCell>
        <mxCell id="p6sBYkLoRlJs1ZlLvmCa-42" value="3" style="shape=cylinder3;whiteSpace=wrap;html=1;boundedLbl=1;backgroundOutline=1;size=6.000000000000114;fontColor=#00CC00;strokeColor=#00CC00;" parent="WPXkGI7jKhw6h6rDNOhQ-1" vertex="1">
          <mxGeometry x="450" y="500" width="30" height="35.71" as="geometry" />
        </mxCell>
        <mxCell id="p6sBYkLoRlJs1ZlLvmCa-43" value="&lt;font&gt;1&lt;/font&gt;" style="shape=cylinder3;whiteSpace=wrap;html=1;boundedLbl=1;backgroundOutline=1;size=6.000000000000114;strokeColor=#000000;fontColor=default;" parent="WPXkGI7jKhw6h6rDNOhQ-1" vertex="1">
          <mxGeometry x="570" y="500" width="30" height="35.71" as="geometry" />
        </mxCell>
        <mxCell id="p6sBYkLoRlJs1ZlLvmCa-45" value="3" style="shape=cylinder3;whiteSpace=wrap;html=1;boundedLbl=1;backgroundOutline=1;size=6.000000000000114;fontColor=#00CC00;strokeColor=#00CC00;" parent="WPXkGI7jKhw6h6rDNOhQ-1" vertex="1">
          <mxGeometry x="610" y="500" width="30" height="35.71" as="geometry" />
        </mxCell>
        <mxCell id="p6sBYkLoRlJs1ZlLvmCa-46" value="4" style="shape=cylinder3;whiteSpace=wrap;html=1;boundedLbl=1;backgroundOutline=1;size=6.000000000000114;" parent="WPXkGI7jKhw6h6rDNOhQ-1" vertex="1">
          <mxGeometry x="250" y="500" width="30" height="35.71" as="geometry" />
        </mxCell>
        <mxCell id="p6sBYkLoRlJs1ZlLvmCa-47" value="4" style="shape=cylinder3;whiteSpace=wrap;html=1;boundedLbl=1;backgroundOutline=1;size=6.000000000000114;" parent="WPXkGI7jKhw6h6rDNOhQ-1" vertex="1">
          <mxGeometry x="650" y="500" width="30" height="35.71" as="geometry" />
        </mxCell>
        <mxCell id="p6sBYkLoRlJs1ZlLvmCa-48" value="" style="group;fillColor=#dae8fc;strokeColor=#6c8ebf;" parent="WPXkGI7jKhw6h6rDNOhQ-1" connectable="0" vertex="1">
          <mxGeometry x="430" y="80" width="260" height="180" as="geometry" />
        </mxCell>
        <mxCell id="p6sBYkLoRlJs1ZlLvmCa-49" value="&lt;font style=&quot;font-size: 14px;&quot;&gt;&lt;b&gt;Namenode Server&lt;/b&gt;&lt;/font&gt;" style="rounded=0;whiteSpace=wrap;html=1;fillColor=#FFFFFF;strokeWidth=1;verticalAlign=top;fontColor=#000000;" parent="p6sBYkLoRlJs1ZlLvmCa-48" vertex="1">
          <mxGeometry width="260" height="180" as="geometry" />
        </mxCell>
        <mxCell id="p6sBYkLoRlJs1ZlLvmCa-50" value="" style="rounded=0;whiteSpace=wrap;html=1;strokeWidth=1;fillColor=#CCE5FF;" parent="p6sBYkLoRlJs1ZlLvmCa-48" vertex="1">
          <mxGeometry x="9.285714285714286" y="27" width="241.42857142857144" height="144" as="geometry" />
        </mxCell>
        <mxCell id="p6sBYkLoRlJs1ZlLvmCa-51" value="File namespace" style="text;html=1;align=center;verticalAlign=middle;whiteSpace=wrap;rounded=0;" parent="p6sBYkLoRlJs1ZlLvmCa-48" vertex="1">
          <mxGeometry x="36.214285714285715" y="40.5" width="92.85714285714286" height="27" as="geometry" />
        </mxCell>
        <mxCell id="p6sBYkLoRlJs1ZlLvmCa-52" value="" style="endArrow=none;html=1;rounded=0;" parent="p6sBYkLoRlJs1ZlLvmCa-48" edge="1">
          <mxGeometry width="50" height="50" relative="1" as="geometry">
            <mxPoint x="55.714285714285715" y="99" as="sourcePoint" />
            <mxPoint x="83.57142857142857" y="72" as="targetPoint" />
          </mxGeometry>
        </mxCell>
        <mxCell id="p6sBYkLoRlJs1ZlLvmCa-53" value="" style="endArrow=none;html=1;rounded=0;" parent="p6sBYkLoRlJs1ZlLvmCa-48" edge="1">
          <mxGeometry width="50" height="50" relative="1" as="geometry">
            <mxPoint x="111.42857142857143" y="99" as="sourcePoint" />
            <mxPoint x="83.57142857142857" y="72" as="targetPoint" />
          </mxGeometry>
        </mxCell>
        <mxCell id="p6sBYkLoRlJs1ZlLvmCa-54" value="" style="endArrow=none;html=1;rounded=0;" parent="p6sBYkLoRlJs1ZlLvmCa-48" edge="1">
          <mxGeometry width="50" height="50" relative="1" as="geometry">
            <mxPoint x="83.57142857142857" y="99" as="sourcePoint" />
            <mxPoint x="83.57142857142857" y="72" as="targetPoint" />
          </mxGeometry>
        </mxCell>
        <mxCell id="p6sBYkLoRlJs1ZlLvmCa-55" value="" style="endArrow=none;html=1;rounded=0;" parent="p6sBYkLoRlJs1ZlLvmCa-48" edge="1">
          <mxGeometry width="50" height="50" relative="1" as="geometry">
            <mxPoint x="27.857142857142858" y="126" as="sourcePoint" />
            <mxPoint x="55.714285714285715" y="99" as="targetPoint" />
          </mxGeometry>
        </mxCell>
        <mxCell id="p6sBYkLoRlJs1ZlLvmCa-56" value="" style="endArrow=none;html=1;rounded=0;" parent="p6sBYkLoRlJs1ZlLvmCa-48" edge="1">
          <mxGeometry width="50" height="50" relative="1" as="geometry">
            <mxPoint x="83.57142857142857" y="126" as="sourcePoint" />
            <mxPoint x="55.714285714285715" y="99" as="targetPoint" />
          </mxGeometry>
        </mxCell>
        <mxCell id="p6sBYkLoRlJs1ZlLvmCa-57" value="" style="endArrow=none;html=1;rounded=0;" parent="p6sBYkLoRlJs1ZlLvmCa-48" edge="1">
          <mxGeometry width="50" height="50" relative="1" as="geometry">
            <mxPoint x="55.714285714285715" y="126" as="sourcePoint" />
            <mxPoint x="55.714285714285715" y="99" as="targetPoint" />
          </mxGeometry>
        </mxCell>
        <mxCell id="p6sBYkLoRlJs1ZlLvmCa-58" value="" style="endArrow=none;html=1;rounded=0;" parent="p6sBYkLoRlJs1ZlLvmCa-48" edge="1">
          <mxGeometry width="50" height="50" relative="1" as="geometry">
            <mxPoint x="55.714285714285715" y="153" as="sourcePoint" />
            <mxPoint x="83.57142857142857" y="126" as="targetPoint" />
          </mxGeometry>
        </mxCell>
        <mxCell id="p6sBYkLoRlJs1ZlLvmCa-59" value="" style="endArrow=none;html=1;rounded=0;" parent="p6sBYkLoRlJs1ZlLvmCa-48" edge="1">
          <mxGeometry width="50" height="50" relative="1" as="geometry">
            <mxPoint x="111.42857142857143" y="153" as="sourcePoint" />
            <mxPoint x="83.57142857142857" y="126" as="targetPoint" />
          </mxGeometry>
        </mxCell>
        <mxCell id="p6sBYkLoRlJs1ZlLvmCa-60" value="" style="endArrow=none;html=1;rounded=0;" parent="p6sBYkLoRlJs1ZlLvmCa-48" edge="1">
          <mxGeometry width="50" height="50" relative="1" as="geometry">
            <mxPoint x="83.57142857142857" y="153" as="sourcePoint" />
            <mxPoint x="83.57142857142857" y="126" as="targetPoint" />
          </mxGeometry>
        </mxCell>
        <mxCell id="p6sBYkLoRlJs1ZlLvmCa-61" value="&amp;nbsp;/bin/" style="rounded=0;whiteSpace=wrap;html=1;align=left;" parent="p6sBYkLoRlJs1ZlLvmCa-48" vertex="1">
          <mxGeometry x="167.14285714285714" y="67.5" width="74.28571428571429" height="18" as="geometry" />
        </mxCell>
        <mxCell id="p6sBYkLoRlJs1ZlLvmCa-62" value="&amp;nbsp;/foo/bar/file" style="rounded=0;whiteSpace=wrap;html=1;align=left;" parent="p6sBYkLoRlJs1ZlLvmCa-48" vertex="1">
          <mxGeometry x="167.14285714285714" y="85.5" width="74.28571428571429" height="18" as="geometry" />
        </mxCell>
        <mxCell id="p6sBYkLoRlJs1ZlLvmCa-63" value="&amp;nbsp;/foo/tmp" style="rounded=0;whiteSpace=wrap;html=1;align=left;" parent="p6sBYkLoRlJs1ZlLvmCa-48" vertex="1">
          <mxGeometry x="167.14285714285714" y="103.5" width="74.28571428571429" height="18" as="geometry" />
        </mxCell>
        <mxCell id="p6sBYkLoRlJs1ZlLvmCa-64" value="&amp;nbsp;/foo/bar/text" style="rounded=0;whiteSpace=wrap;html=1;align=left;" parent="p6sBYkLoRlJs1ZlLvmCa-48" vertex="1">
          <mxGeometry x="167.14285714285714" y="121.5" width="74.28571428571429" height="18" as="geometry" />
        </mxCell>
        <mxCell id="p6sBYkLoRlJs1ZlLvmCa-65" value="" style="rounded=0;whiteSpace=wrap;html=1;align=left;" parent="p6sBYkLoRlJs1ZlLvmCa-48" vertex="1">
          <mxGeometry x="167.14285714285714" y="139.5" width="74.28571428571429" height="18" as="geometry" />
        </mxCell>
        <mxCell id="p6sBYkLoRlJs1ZlLvmCa-66" value="" style="endArrow=classic;html=1;rounded=0;entryX=0;entryY=0.5;entryDx=0;entryDy=0;strokeColor=#FF0000;" parent="p6sBYkLoRlJs1ZlLvmCa-48" target="p6sBYkLoRlJs1ZlLvmCa-62" edge="1">
          <mxGeometry width="50" height="50" relative="1" as="geometry">
            <mxPoint x="111.42857142857143" y="153" as="sourcePoint" />
            <mxPoint x="157.85714285714286" y="108" as="targetPoint" />
          </mxGeometry>
        </mxCell>
        <mxCell id="p6sBYkLoRlJs1ZlLvmCa-67" style="edgeStyle=orthogonalEdgeStyle;rounded=0;orthogonalLoop=1;jettySize=auto;html=1;exitX=1;exitY=0.25;exitDx=0;exitDy=0;entryX=0;entryY=0.126;entryDx=0;entryDy=0;entryPerimeter=0;fontColor=#007FFF;strokeColor=#007FFF;" parent="WPXkGI7jKhw6h6rDNOhQ-1" edge="1">
          <mxGeometry relative="1" as="geometry">
            <mxPoint x="290" y="98.5" as="sourcePoint" />
            <mxPoint x="430" y="98.68000000000006" as="targetPoint" />
          </mxGeometry>
        </mxCell>
        <mxCell id="p6sBYkLoRlJs1ZlLvmCa-68" value="&lt;i&gt;request:&lt;/i&gt; read file 1" style="edgeLabel;html=1;align=center;verticalAlign=middle;resizable=0;points=[];textDirection=vertical-rl;rotation=270;fontColor=#007FFF;" parent="WPXkGI7jKhw6h6rDNOhQ-1" vertex="1" connectable="0">
          <mxGeometry x="360" y="92.99965517241367" as="geometry">
            <mxPoint x="1.9999999999999998" y="-2.0000000000000004" as="offset" />
          </mxGeometry>
        </mxCell>
        <mxCell id="p6sBYkLoRlJs1ZlLvmCa-69" style="edgeStyle=orthogonalEdgeStyle;rounded=0;orthogonalLoop=1;jettySize=auto;html=1;exitX=0;exitY=0.25;exitDx=0;exitDy=0;entryX=1;entryY=0.5;entryDx=0;entryDy=0;fontColor=#007FFF;strokeColor=#007FFF;" parent="WPXkGI7jKhw6h6rDNOhQ-1" edge="1">
          <mxGeometry relative="1" as="geometry">
            <mxPoint x="430" y="115.99999999999989" as="sourcePoint" />
            <mxPoint x="290" y="115.99999999999989" as="targetPoint" />
          </mxGeometry>
        </mxCell>
        <mxCell id="p6sBYkLoRlJs1ZlLvmCa-70" value="&lt;i&gt;response:&lt;/i&gt;&amp;nbsp;location A" style="edgeLabel;html=1;align=center;verticalAlign=middle;resizable=0;points=[];textDirection=vertical-rl;rotation=270;fontColor=#007FFF;" parent="WPXkGI7jKhw6h6rDNOhQ-1" vertex="1" connectable="0">
          <mxGeometry x="360" y="110.99965517241367" as="geometry">
            <mxPoint x="1.9999999999999998" y="-2.0000000000000004" as="offset" />
          </mxGeometry>
        </mxCell>
        <mxCell id="p6sBYkLoRlJs1ZlLvmCa-71" style="edgeStyle=orthogonalEdgeStyle;rounded=0;orthogonalLoop=1;jettySize=auto;html=1;exitX=1;exitY=0.25;exitDx=0;exitDy=0;entryX=0;entryY=0.126;entryDx=0;entryDy=0;entryPerimeter=0;fontColor=#00CC00;strokeColor=#00CC00;" parent="WPXkGI7jKhw6h6rDNOhQ-1" edge="1">
          <mxGeometry relative="1" as="geometry">
            <mxPoint x="290" y="145" as="sourcePoint" />
            <mxPoint x="430" y="145" as="targetPoint" />
          </mxGeometry>
        </mxCell>
        <mxCell id="p6sBYkLoRlJs1ZlLvmCa-72" value="&lt;i&gt;request:&lt;/i&gt;&amp;nbsp;write file 3" style="edgeLabel;html=1;align=center;verticalAlign=middle;resizable=0;points=[];textDirection=vertical-rl;rotation=270;fontColor=#00CC00;" parent="WPXkGI7jKhw6h6rDNOhQ-1" vertex="1" connectable="0">
          <mxGeometry x="360" y="138.99965517241367" as="geometry">
            <mxPoint x="1.9999999999999998" y="-2.0000000000000004" as="offset" />
          </mxGeometry>
        </mxCell>
        <mxCell id="p6sBYkLoRlJs1ZlLvmCa-73" style="edgeStyle=orthogonalEdgeStyle;rounded=0;orthogonalLoop=1;jettySize=auto;html=1;exitX=0;exitY=0.25;exitDx=0;exitDy=0;entryX=1;entryY=0.5;entryDx=0;entryDy=0;fontColor=#00CC00;strokeColor=#00CC00;" parent="WPXkGI7jKhw6h6rDNOhQ-1" edge="1">
          <mxGeometry relative="1" as="geometry">
            <mxPoint x="430" y="162.9999999999999" as="sourcePoint" />
            <mxPoint x="290" y="162.9999999999999" as="targetPoint" />
          </mxGeometry>
        </mxCell>
        <mxCell id="p6sBYkLoRlJs1ZlLvmCa-74" value="&lt;i&gt;response:&lt;/i&gt;&amp;nbsp;location B,C" style="edgeLabel;html=1;align=center;verticalAlign=middle;resizable=0;points=[];textDirection=vertical-rl;rotation=270;fontColor=#00CC00;" parent="WPXkGI7jKhw6h6rDNOhQ-1" vertex="1" connectable="0">
          <mxGeometry x="360" y="157.99965517241367" as="geometry">
            <mxPoint x="1.9999999999999998" y="-2.0000000000000004" as="offset" />
          </mxGeometry>
        </mxCell>
        <mxCell id="p6sBYkLoRlJs1ZlLvmCa-75" style="edgeStyle=orthogonalEdgeStyle;rounded=0;orthogonalLoop=1;jettySize=auto;html=1;exitX=1;exitY=0.5;exitDx=0;exitDy=0;entryX=0;entryY=0.5;entryDx=0;entryDy=0;fontColor=#00CC00;strokeColor=#00CC00;" parent="WPXkGI7jKhw6h6rDNOhQ-1" source="p6sBYkLoRlJs1ZlLvmCa-16" target="p6sBYkLoRlJs1ZlLvmCa-19" edge="1">
          <mxGeometry relative="1" as="geometry" />
        </mxCell>
        <mxCell id="p6sBYkLoRlJs1ZlLvmCa-76" value="replicate 3" style="edgeLabel;html=1;align=center;verticalAlign=middle;resizable=0;points=[];fontColor=#00CC00;" parent="p6sBYkLoRlJs1ZlLvmCa-75" vertex="1" connectable="0">
          <mxGeometry x="-0.1894" y="-1" relative="1" as="geometry">
            <mxPoint x="3" y="-10" as="offset" />
          </mxGeometry>
        </mxCell>
        <mxCell id="p6sBYkLoRlJs1ZlLvmCa-77" style="edgeStyle=orthogonalEdgeStyle;rounded=0;orthogonalLoop=1;jettySize=auto;html=1;exitX=0.5;exitY=0;exitDx=0;exitDy=0;entryX=0.75;entryY=1;entryDx=0;entryDy=0;" parent="WPXkGI7jKhw6h6rDNOhQ-1" edge="1">
          <mxGeometry relative="1" as="geometry">
            <mxPoint x="591.0000000000001" y="400" as="sourcePoint" />
            <mxPoint x="591.0000000000001" y="260" as="targetPoint" />
          </mxGeometry>
        </mxCell>
        <mxCell id="p6sBYkLoRlJs1ZlLvmCa-78" value="datanode state" style="edgeLabel;html=1;align=center;verticalAlign=middle;resizable=0;points=[];rotation=270;" parent="p6sBYkLoRlJs1ZlLvmCa-77" vertex="1" connectable="0">
          <mxGeometry x="0.2312" y="1" relative="1" as="geometry">
            <mxPoint x="-7" y="18" as="offset" />
          </mxGeometry>
        </mxCell>
        <mxCell id="p6sBYkLoRlJs1ZlLvmCa-81" style="edgeStyle=orthogonalEdgeStyle;rounded=0;orthogonalLoop=1;jettySize=auto;html=1;exitX=0.5;exitY=1;exitDx=0;exitDy=0;" parent="WPXkGI7jKhw6h6rDNOhQ-1" edge="1">
          <mxGeometry relative="1" as="geometry">
            <mxPoint x="510.0000000000001" y="260" as="sourcePoint" />
            <mxPoint x="610" y="400" as="targetPoint" />
            <Array as="points">
              <mxPoint x="610" y="260" />
              <mxPoint x="610" y="400" />
            </Array>
          </mxGeometry>
        </mxCell>
        <mxCell id="p6sBYkLoRlJs1ZlLvmCa-82" value="instructions" style="edgeLabel;html=1;align=center;verticalAlign=middle;resizable=0;points=[];rotation=270;" parent="p6sBYkLoRlJs1ZlLvmCa-81" vertex="1" connectable="0">
          <mxGeometry x="0.5336" relative="1" as="geometry">
            <mxPoint x="-8" y="-16" as="offset" />
          </mxGeometry>
        </mxCell>
        <mxCell id="p6sBYkLoRlJs1ZlLvmCa-89" value="" style="endArrow=classic;html=1;rounded=0;curved=0;dashed=1;dashPattern=1 2;strokeColor=#666666;" parent="WPXkGI7jKhw6h6rDNOhQ-1" edge="1">
          <mxGeometry width="50" height="50" relative="1" as="geometry">
            <mxPoint x="650" y="330" as="sourcePoint" />
            <mxPoint x="610" y="290" as="targetPoint" />
          </mxGeometry>
        </mxCell>
        <mxCell id="p6sBYkLoRlJs1ZlLvmCa-91" value="&lt;i&gt;For each&lt;/i&gt;&lt;div&gt;&lt;span style=&quot;background-color: light-dark(#ffffff, var(--ge-dark-color, #121212));&quot;&gt;&lt;i&gt;datanote&lt;/i&gt;&lt;/span&gt;&lt;/div&gt;" style="edgeLabel;html=1;align=center;verticalAlign=middle;resizable=0;points=[];fontColor=#666666;" parent="p6sBYkLoRlJs1ZlLvmCa-89" vertex="1" connectable="0">
          <mxGeometry x="-0.5882" y="1" relative="1" as="geometry">
            <mxPoint x="26" y="-12" as="offset" />
          </mxGeometry>
        </mxCell>
        <mxCell id="p6sBYkLoRlJs1ZlLvmCa-90" value="" style="endArrow=classic;html=1;rounded=0;curved=0;dashed=1;dashPattern=1 2;strokeColor=#666666;" parent="WPXkGI7jKhw6h6rDNOhQ-1" edge="1">
          <mxGeometry width="50" height="50" relative="1" as="geometry">
            <mxPoint x="650" y="330" as="sourcePoint" />
            <mxPoint x="590" y="380" as="targetPoint" />
          </mxGeometry>
        </mxCell>
        <mxCell id="p6sBYkLoRlJs1ZlLvmCa-92" style="edgeStyle=orthogonalEdgeStyle;rounded=0;orthogonalLoop=1;jettySize=auto;html=1;exitX=0.5;exitY=1;exitDx=0;exitDy=0;fontColor=#00CC00;strokeColor=#00CC00;" parent="WPXkGI7jKhw6h6rDNOhQ-1" edge="1">
          <mxGeometry relative="1" as="geometry">
            <mxPoint x="244" y="170" as="sourcePoint" />
            <mxPoint x="410" y="400" as="targetPoint" />
            <Array as="points">
              <mxPoint x="244" y="320" />
              <mxPoint x="410" y="320" />
              <mxPoint x="410" y="400" />
            </Array>
          </mxGeometry>
        </mxCell>
        <mxCell id="p6sBYkLoRlJs1ZlLvmCa-93" style="edgeStyle=orthogonalEdgeStyle;rounded=0;orthogonalLoop=1;jettySize=auto;html=1;entryX=0.889;entryY=1;entryDx=0;entryDy=0;entryPerimeter=0;fontColor=#00CC00;strokeColor=#00CC00;" parent="WPXkGI7jKhw6h6rDNOhQ-1" edge="1">
          <mxGeometry relative="1" as="geometry">
            <mxPoint x="430" y="400" as="sourcePoint" />
            <mxPoint x="262.56999999999994" y="170" as="targetPoint" />
            <Array as="points">
              <mxPoint x="430" y="400" />
              <mxPoint x="430" y="300" />
              <mxPoint x="263" y="300" />
            </Array>
          </mxGeometry>
        </mxCell>
        <mxCell id="p6sBYkLoRlJs1ZlLvmCa-94" value="&lt;font style=&quot;color: rgb(0, 204, 0);&quot;&gt;write file 3&lt;/font&gt;" style="edgeLabel;html=1;align=center;verticalAlign=middle;resizable=0;points=[];" parent="p6sBYkLoRlJs1ZlLvmCa-93" vertex="1" connectable="0">
          <mxGeometry x="-0.0802" y="2" relative="1" as="geometry">
            <mxPoint x="-6" y="8" as="offset" />
          </mxGeometry>
        </mxCell>
        <mxCell id="p6sBYkLoRlJs1ZlLvmCa-95" value="&lt;font style=&quot;color: rgb(0, 204, 0);&quot;&gt;&lt;i&gt;ack: &lt;/i&gt;write 3&lt;/font&gt;" style="edgeLabel;html=1;align=center;verticalAlign=middle;resizable=0;points=[];" parent="p6sBYkLoRlJs1ZlLvmCa-93" vertex="1" connectable="0">
          <mxGeometry x="-0.3151" y="3" relative="1" as="geometry">
            <mxPoint x="-54" y="-13" as="offset" />
          </mxGeometry>
        </mxCell>
        <mxCell id="p6sBYkLoRlJs1ZlLvmCa-96" style="rounded=0;orthogonalLoop=1;jettySize=auto;html=1;exitX=0.5;exitY=0;exitDx=0;exitDy=0;exitPerimeter=0;entryX=0.193;entryY=1;entryDx=0;entryDy=0;entryPerimeter=0;shape=link;strokeColor=#007FFF;" parent="WPXkGI7jKhw6h6rDNOhQ-1" source="p6sBYkLoRlJs1ZlLvmCa-25" target="p6sBYkLoRlJs1ZlLvmCa-11" edge="1">
          <mxGeometry relative="1" as="geometry" />
        </mxCell>
        <mxCell id="p6sBYkLoRlJs1ZlLvmCa-98" style="rounded=0;orthogonalLoop=1;jettySize=auto;html=1;exitX=0.5;exitY=0;exitDx=0;exitDy=0;exitPerimeter=0;entryX=0.193;entryY=1;entryDx=0;entryDy=0;entryPerimeter=0;shape=link;strokeColor=#000000;" parent="WPXkGI7jKhw6h6rDNOhQ-1" edge="1">
          <mxGeometry relative="1" as="geometry">
            <mxPoint x="224.81" y="500" as="sourcePoint" />
            <mxPoint x="224.81" y="490" as="targetPoint" />
          </mxGeometry>
        </mxCell>
        <mxCell id="p6sBYkLoRlJs1ZlLvmCa-99" style="rounded=0;orthogonalLoop=1;jettySize=auto;html=1;exitX=0.5;exitY=0;exitDx=0;exitDy=0;exitPerimeter=0;entryX=0.193;entryY=1;entryDx=0;entryDy=0;entryPerimeter=0;shape=link;strokeColor=#000000;" parent="WPXkGI7jKhw6h6rDNOhQ-1" edge="1">
          <mxGeometry relative="1" as="geometry">
            <mxPoint x="264.81" y="500" as="sourcePoint" />
            <mxPoint x="264.81" y="490" as="targetPoint" />
          </mxGeometry>
        </mxCell>
        <mxCell id="p6sBYkLoRlJs1ZlLvmCa-100" style="rounded=0;orthogonalLoop=1;jettySize=auto;html=1;exitX=0.5;exitY=0;exitDx=0;exitDy=0;exitPerimeter=0;entryX=0.193;entryY=1;entryDx=0;entryDy=0;entryPerimeter=0;shape=link;strokeColor=#000000;" parent="WPXkGI7jKhw6h6rDNOhQ-1" edge="1">
          <mxGeometry relative="1" as="geometry">
            <mxPoint x="384.88" y="500" as="sourcePoint" />
            <mxPoint x="384.88" y="490" as="targetPoint" />
          </mxGeometry>
        </mxCell>
        <mxCell id="p6sBYkLoRlJs1ZlLvmCa-101" style="rounded=0;orthogonalLoop=1;jettySize=auto;html=1;exitX=0.5;exitY=0;exitDx=0;exitDy=0;exitPerimeter=0;entryX=0.193;entryY=1;entryDx=0;entryDy=0;entryPerimeter=0;shape=link;strokeColor=#000000;" parent="WPXkGI7jKhw6h6rDNOhQ-1" edge="1">
          <mxGeometry relative="1" as="geometry">
            <mxPoint x="424.88" y="500" as="sourcePoint" />
            <mxPoint x="424.88" y="490" as="targetPoint" />
          </mxGeometry>
        </mxCell>
        <mxCell id="p6sBYkLoRlJs1ZlLvmCa-102" style="rounded=0;orthogonalLoop=1;jettySize=auto;html=1;exitX=0.5;exitY=0;exitDx=0;exitDy=0;exitPerimeter=0;entryX=0.193;entryY=1;entryDx=0;entryDy=0;entryPerimeter=0;shape=link;strokeColor=#000000;" parent="WPXkGI7jKhw6h6rDNOhQ-1" edge="1">
          <mxGeometry relative="1" as="geometry">
            <mxPoint x="584.97" y="500" as="sourcePoint" />
            <mxPoint x="584.97" y="490" as="targetPoint" />
          </mxGeometry>
        </mxCell>
        <mxCell id="p6sBYkLoRlJs1ZlLvmCa-103" style="rounded=0;orthogonalLoop=1;jettySize=auto;html=1;exitX=0.5;exitY=0;exitDx=0;exitDy=0;exitPerimeter=0;entryX=0.193;entryY=1;entryDx=0;entryDy=0;entryPerimeter=0;shape=link;strokeColor=#00CC00;" parent="WPXkGI7jKhw6h6rDNOhQ-1" edge="1">
          <mxGeometry relative="1" as="geometry">
            <mxPoint x="624.78" y="500" as="sourcePoint" />
            <mxPoint x="624.78" y="490" as="targetPoint" />
          </mxGeometry>
        </mxCell>
        <mxCell id="p6sBYkLoRlJs1ZlLvmCa-104" style="rounded=0;orthogonalLoop=1;jettySize=auto;html=1;exitX=0.5;exitY=0;exitDx=0;exitDy=0;exitPerimeter=0;entryX=0.193;entryY=1;entryDx=0;entryDy=0;entryPerimeter=0;shape=link;strokeColor=#000000;" parent="WPXkGI7jKhw6h6rDNOhQ-1" edge="1">
          <mxGeometry relative="1" as="geometry">
            <mxPoint x="664.78" y="500" as="sourcePoint" />
            <mxPoint x="664.78" y="490" as="targetPoint" />
          </mxGeometry>
        </mxCell>
        <mxCell id="p6sBYkLoRlJs1ZlLvmCa-106" style="rounded=0;orthogonalLoop=1;jettySize=auto;html=1;exitX=0.5;exitY=0;exitDx=0;exitDy=0;exitPerimeter=0;entryX=0.193;entryY=1;entryDx=0;entryDy=0;entryPerimeter=0;shape=link;strokeColor=#00CC00;" parent="WPXkGI7jKhw6h6rDNOhQ-1" edge="1">
          <mxGeometry relative="1" as="geometry">
            <mxPoint x="464.88" y="500" as="sourcePoint" />
            <mxPoint x="464.88" y="490" as="targetPoint" />
          </mxGeometry>
        </mxCell>
      </root>
    </mxGraphModel>
  </diagram>
  <diagram name="lakehouse_schema" id="hTqgu6oDb3hHW0tEzl1u">
    <mxGraphModel dx="2442" dy="803" grid="1" gridSize="10" guides="1" tooltips="1" connect="1" arrows="1" fold="1" page="1" pageScale="1" pageWidth="827" pageHeight="1169" math="0" shadow="0">
      <root>
        <mxCell id="wMCQB8DNHCFw8U-Mc_Kc-0" />
        <mxCell id="wMCQB8DNHCFw8U-Mc_Kc-1" parent="wMCQB8DNHCFw8U-Mc_Kc-0" />
        <mxCell id="qsl5wxqQC7wOzMQA9YbT-19" value="&lt;span style=&quot;font-size: 18px;&quot;&gt;Application&lt;/span&gt;" style="rounded=0;whiteSpace=wrap;html=1;container=0;" parent="wMCQB8DNHCFw8U-Mc_Kc-1" vertex="1">
          <mxGeometry x="-633" y="150" width="440" height="40" as="geometry" />
        </mxCell>
        <mxCell id="qsl5wxqQC7wOzMQA9YbT-24" value="" style="endArrow=classic;startArrow=classic;html=1;rounded=0;exitX=0.5;exitY=0;exitDx=0;exitDy=0;strokeColor=#666666;" parent="wMCQB8DNHCFw8U-Mc_Kc-1" source="qsl5wxqQC7wOzMQA9YbT-5" edge="1">
          <mxGeometry width="50" height="50" relative="1" as="geometry">
            <mxPoint x="-413.37" y="287.5" as="sourcePoint" />
            <mxPoint x="-413.37" y="247.5" as="targetPoint" />
          </mxGeometry>
        </mxCell>
        <mxCell id="qsl5wxqQC7wOzMQA9YbT-33" value="" style="group" parent="wMCQB8DNHCFw8U-Mc_Kc-1" vertex="1" connectable="0">
          <mxGeometry x="-653" y="130" width="480" height="380" as="geometry" />
        </mxCell>
        <mxCell id="qsl5wxqQC7wOzMQA9YbT-27" value="" style="endArrow=none;html=1;rounded=0;" parent="qsl5wxqQC7wOzMQA9YbT-33" edge="1">
          <mxGeometry width="50" height="50" relative="1" as="geometry">
            <mxPoint y="379.99999999999994" as="sourcePoint" />
            <mxPoint y="21.71428571428571" as="targetPoint" />
          </mxGeometry>
        </mxCell>
        <mxCell id="qsl5wxqQC7wOzMQA9YbT-28" value="" style="endArrow=none;html=1;rounded=0;" parent="qsl5wxqQC7wOzMQA9YbT-33" edge="1">
          <mxGeometry width="50" height="50" relative="1" as="geometry">
            <mxPoint x="480" y="379.99999999999994" as="sourcePoint" />
            <mxPoint x="480" y="21.71428571428571" as="targetPoint" />
          </mxGeometry>
        </mxCell>
        <mxCell id="qsl5wxqQC7wOzMQA9YbT-29" value="" style="endArrow=none;html=1;rounded=0;" parent="qsl5wxqQC7wOzMQA9YbT-33" edge="1">
          <mxGeometry width="50" height="50" relative="1" as="geometry">
            <mxPoint y="379.99999999999994" as="sourcePoint" />
            <mxPoint x="480" y="379.99999999999994" as="targetPoint" />
          </mxGeometry>
        </mxCell>
        <mxCell id="qsl5wxqQC7wOzMQA9YbT-30" value="" style="endArrow=none;dashed=1;html=1;rounded=0;" parent="qsl5wxqQC7wOzMQA9YbT-33" edge="1">
          <mxGeometry width="50" height="50" relative="1" as="geometry">
            <mxPoint y="21.71428571428571" as="sourcePoint" />
            <mxPoint y="-10.857142857142856" as="targetPoint" />
          </mxGeometry>
        </mxCell>
        <mxCell id="qsl5wxqQC7wOzMQA9YbT-31" value="" style="endArrow=none;dashed=1;html=1;rounded=0;" parent="qsl5wxqQC7wOzMQA9YbT-33" edge="1">
          <mxGeometry width="50" height="50" relative="1" as="geometry">
            <mxPoint x="480" y="21.71428571428571" as="sourcePoint" />
            <mxPoint x="480" y="-10.857142857142856" as="targetPoint" />
          </mxGeometry>
        </mxCell>
        <mxCell id="qsl5wxqQC7wOzMQA9YbT-58" value="" style="group" parent="qsl5wxqQC7wOzMQA9YbT-33" vertex="1" connectable="0">
          <mxGeometry x="14" y="315.6666666666667" width="452" height="53.833333333333336" as="geometry" />
        </mxCell>
        <mxCell id="qsl5wxqQC7wOzMQA9YbT-59" value="" style="rounded=0;whiteSpace=wrap;html=1;container=0;" parent="qsl5wxqQC7wOzMQA9YbT-58" vertex="1">
          <mxGeometry x="12" width="439.99999999999994" height="42.22222222222222" as="geometry" />
        </mxCell>
        <mxCell id="qsl5wxqQC7wOzMQA9YbT-60" value="" style="rounded=0;whiteSpace=wrap;html=1;container=0;" parent="qsl5wxqQC7wOzMQA9YbT-58" vertex="1">
          <mxGeometry x="6" y="5.277777777777778" width="439.99999999999994" height="42.22222222222222" as="geometry" />
        </mxCell>
        <mxCell id="qsl5wxqQC7wOzMQA9YbT-61" value="&lt;span style=&quot;font-size: 18px;&quot;&gt;Data Storage&lt;/span&gt;" style="rounded=0;whiteSpace=wrap;html=1;container=0;" parent="qsl5wxqQC7wOzMQA9YbT-58" vertex="1">
          <mxGeometry y="11.61111111111111" width="439.99999999999994" height="42.22222222222222" as="geometry" />
        </mxCell>
        <mxCell id="qsl5wxqQC7wOzMQA9YbT-39" value="" style="group" parent="qsl5wxqQC7wOzMQA9YbT-33" vertex="1" connectable="0">
          <mxGeometry x="14" y="253" width="452" height="51" as="geometry" />
        </mxCell>
        <mxCell id="qsl5wxqQC7wOzMQA9YbT-35" value="" style="rounded=0;whiteSpace=wrap;html=1;container=0;" parent="qsl5wxqQC7wOzMQA9YbT-39" vertex="1">
          <mxGeometry x="12" width="439.99999999999994" height="40" as="geometry" />
        </mxCell>
        <mxCell id="qsl5wxqQC7wOzMQA9YbT-34" value="" style="rounded=0;whiteSpace=wrap;html=1;container=0;" parent="qsl5wxqQC7wOzMQA9YbT-39" vertex="1">
          <mxGeometry x="6" y="5" width="439.99999999999994" height="40" as="geometry" />
        </mxCell>
        <mxCell id="qsl5wxqQC7wOzMQA9YbT-6" value="&lt;span style=&quot;font-size: 18px;&quot;&gt;File Format&lt;/span&gt;" style="rounded=0;whiteSpace=wrap;html=1;container=0;" parent="qsl5wxqQC7wOzMQA9YbT-39" vertex="1">
          <mxGeometry y="11" width="439.99999999999994" height="40" as="geometry" />
        </mxCell>
        <mxCell id="qsl5wxqQC7wOzMQA9YbT-62" value="" style="endArrow=classic;startArrow=classic;html=1;rounded=0;strokeColor=#666666;entryX=0.195;entryY=1.003;entryDx=0;entryDy=0;entryPerimeter=0;" parent="qsl5wxqQC7wOzMQA9YbT-33" edge="1">
          <mxGeometry width="50" height="50" relative="1" as="geometry">
            <mxPoint x="100" y="202.19" as="sourcePoint" />
            <mxPoint x="99.79999999999995" y="179.80999999999995" as="targetPoint" />
          </mxGeometry>
        </mxCell>
        <mxCell id="qsl5wxqQC7wOzMQA9YbT-66" value="" style="endArrow=classic;startArrow=classic;html=1;rounded=0;strokeColor=#666666;entryX=0.195;entryY=1.003;entryDx=0;entryDy=0;entryPerimeter=0;" parent="qsl5wxqQC7wOzMQA9YbT-33" edge="1">
          <mxGeometry width="50" height="50" relative="1" as="geometry">
            <mxPoint x="370" y="202" as="sourcePoint" />
            <mxPoint x="370" y="180" as="targetPoint" />
          </mxGeometry>
        </mxCell>
        <mxCell id="cV-HqZhMs4JRASDnw5vo-4" value="" style="group" vertex="1" connectable="0" parent="qsl5wxqQC7wOzMQA9YbT-33">
          <mxGeometry x="14" y="130" width="182" height="51" as="geometry" />
        </mxCell>
        <mxCell id="cV-HqZhMs4JRASDnw5vo-1" value="" style="rounded=0;whiteSpace=wrap;html=1;container=0;" vertex="1" parent="cV-HqZhMs4JRASDnw5vo-4">
          <mxGeometry x="20" width="162" height="40" as="geometry" />
        </mxCell>
        <mxCell id="cV-HqZhMs4JRASDnw5vo-2" value="" style="rounded=0;whiteSpace=wrap;html=1;container=0;" vertex="1" parent="cV-HqZhMs4JRASDnw5vo-4">
          <mxGeometry x="10" y="5" width="166" height="40" as="geometry" />
        </mxCell>
        <mxCell id="cV-HqZhMs4JRASDnw5vo-3" value="&lt;span style=&quot;font-size: 18px;&quot;&gt;Storage Engine&lt;/span&gt;" style="rounded=0;whiteSpace=wrap;html=1;container=0;" vertex="1" parent="cV-HqZhMs4JRASDnw5vo-4">
          <mxGeometry y="11" width="170" height="40" as="geometry" />
        </mxCell>
        <mxCell id="qsl5wxqQC7wOzMQA9YbT-5" value="&lt;span style=&quot;font-size: 18px;&quot;&gt;Table Format&lt;/span&gt;" style="rounded=0;whiteSpace=wrap;html=1;container=0;" parent="wMCQB8DNHCFw8U-Mc_Kc-1" vertex="1">
          <mxGeometry x="-633" y="333" width="439.99999999999994" height="40" as="geometry" />
        </mxCell>
        <mxCell id="qsl5wxqQC7wOzMQA9YbT-41" value="" style="group" parent="wMCQB8DNHCFw8U-Mc_Kc-1" vertex="1" connectable="0">
          <mxGeometry x="-639" y="196.5" width="452" height="51" as="geometry" />
        </mxCell>
        <mxCell id="qsl5wxqQC7wOzMQA9YbT-42" value="" style="rounded=0;whiteSpace=wrap;html=1;container=0;" parent="qsl5wxqQC7wOzMQA9YbT-41" vertex="1">
          <mxGeometry x="12" width="439.99999999999994" height="40" as="geometry" />
        </mxCell>
        <mxCell id="qsl5wxqQC7wOzMQA9YbT-43" value="" style="rounded=0;whiteSpace=wrap;html=1;container=0;" parent="qsl5wxqQC7wOzMQA9YbT-41" vertex="1">
          <mxGeometry x="6" y="5" width="439.99999999999994" height="40" as="geometry" />
        </mxCell>
        <mxCell id="qsl5wxqQC7wOzMQA9YbT-44" value="&lt;span style=&quot;font-size: 18px;&quot;&gt;Query Engine&lt;/span&gt;" style="rounded=0;whiteSpace=wrap;html=1;container=0;" parent="qsl5wxqQC7wOzMQA9YbT-41" vertex="1">
          <mxGeometry y="11" width="439.99999999999994" height="40" as="geometry" />
        </mxCell>
        <mxCell id="qsl5wxqQC7wOzMQA9YbT-49" value="" style="group" parent="wMCQB8DNHCFw8U-Mc_Kc-1" vertex="1" connectable="0">
          <mxGeometry x="-368" y="259" width="182" height="51" as="geometry" />
        </mxCell>
        <mxCell id="qsl5wxqQC7wOzMQA9YbT-46" value="" style="rounded=0;whiteSpace=wrap;html=1;container=0;" parent="qsl5wxqQC7wOzMQA9YbT-49" vertex="1">
          <mxGeometry x="20" width="162" height="40" as="geometry" />
        </mxCell>
        <mxCell id="qsl5wxqQC7wOzMQA9YbT-47" value="" style="rounded=0;whiteSpace=wrap;html=1;container=0;" parent="qsl5wxqQC7wOzMQA9YbT-49" vertex="1">
          <mxGeometry x="10" y="5" width="166" height="40" as="geometry" />
        </mxCell>
        <mxCell id="qsl5wxqQC7wOzMQA9YbT-48" value="&lt;span style=&quot;font-size: 18px;&quot;&gt;Catalog&lt;/span&gt;" style="rounded=0;whiteSpace=wrap;html=1;container=0;" parent="qsl5wxqQC7wOzMQA9YbT-49" vertex="1">
          <mxGeometry y="11" width="170" height="40" as="geometry" />
        </mxCell>
        <mxCell id="qsl5wxqQC7wOzMQA9YbT-63" value="" style="endArrow=classic;startArrow=classic;html=1;rounded=0;strokeColor=#666666;entryX=0.195;entryY=1.003;entryDx=0;entryDy=0;entryPerimeter=0;" parent="qsl5wxqQC7wOzMQA9YbT-49" edge="1">
          <mxGeometry width="50" height="50" relative="1" as="geometry">
            <mxPoint x="84.78999999999996" y="11" as="sourcePoint" />
            <mxPoint x="84.78999999999996" y="-11" as="targetPoint" />
          </mxGeometry>
        </mxCell>
      </root>
    </mxGraphModel>
  </diagram>
  <diagram id="Qh4Bx_ZJrjuRshb3bdQ0" name="MLOps">
    <mxGraphModel dx="1050" dy="522" grid="1" gridSize="10" guides="1" tooltips="1" connect="1" arrows="1" fold="1" page="1" pageScale="1" pageWidth="827" pageHeight="1169" math="0" shadow="0">
      <root>
        <mxCell id="0" />
        <mxCell id="1" parent="0" />
        <mxCell id="9FvEI9ZuZgGLkIwgtBzl-1" value="Online applications" style="rounded=1;whiteSpace=wrap;html=1;" vertex="1" parent="1">
          <mxGeometry x="1066" y="204" width="90" height="40" as="geometry" />
        </mxCell>
        <mxCell id="9FvEI9ZuZgGLkIwgtBzl-2" value="Online applications" style="rounded=1;whiteSpace=wrap;html=1;" vertex="1" parent="1">
          <mxGeometry x="1063" y="207" width="90" height="40" as="geometry" />
        </mxCell>
        <mxCell id="9FvEI9ZuZgGLkIwgtBzl-3" value="Streaming&amp;nbsp;&lt;div&gt;data sources&lt;/div&gt;" style="rounded=1;whiteSpace=wrap;html=1;" vertex="1" parent="1">
          <mxGeometry x="350.81" y="170" width="110" height="40" as="geometry" />
        </mxCell>
        <mxCell id="9FvEI9ZuZgGLkIwgtBzl-4" style="edgeStyle=orthogonalEdgeStyle;rounded=0;orthogonalLoop=1;jettySize=auto;html=1;endArrow=classic;endFill=1;entryX=0;entryY=0.5;entryDx=0;entryDy=0;curved=1;exitX=0.99;exitY=0.591;exitDx=0;exitDy=0;exitPerimeter=0;strokeColor=default;" edge="1" parent="1" source="9FvEI9ZuZgGLkIwgtBzl-5" target="9FvEI9ZuZgGLkIwgtBzl-15">
          <mxGeometry relative="1" as="geometry">
            <mxPoint x="511" y="279.76" as="targetPoint" />
            <mxPoint x="419.9999999999999" y="279.7944827586207" as="sourcePoint" />
          </mxGeometry>
        </mxCell>
        <mxCell id="9FvEI9ZuZgGLkIwgtBzl-5" value="Batch data sources" style="shape=cylinder3;whiteSpace=wrap;html=1;boundedLbl=1;backgroundOutline=1;size=8.758620689655174;" vertex="1" parent="1">
          <mxGeometry x="360" y="250" width="90" height="50" as="geometry" />
        </mxCell>
        <mxCell id="9FvEI9ZuZgGLkIwgtBzl-6" style="edgeStyle=orthogonalEdgeStyle;rounded=0;orthogonalLoop=1;jettySize=auto;html=1;endArrow=none;endFill=0;entryX=0;entryY=0.5;entryDx=0;entryDy=0;curved=1;exitX=1;exitY=0.5;exitDx=0;exitDy=0;" edge="1" parent="1" source="9FvEI9ZuZgGLkIwgtBzl-3" target="9FvEI9ZuZgGLkIwgtBzl-15">
          <mxGeometry relative="1" as="geometry">
            <mxPoint x="511" y="189.76" as="targetPoint" />
            <mxPoint x="430" y="190" as="sourcePoint" />
          </mxGeometry>
        </mxCell>
        <mxCell id="9FvEI9ZuZgGLkIwgtBzl-7" value="Online applications" style="rounded=1;whiteSpace=wrap;html=1;" vertex="1" parent="1">
          <mxGeometry x="1060" y="210" width="90" height="40" as="geometry" />
        </mxCell>
        <mxCell id="9FvEI9ZuZgGLkIwgtBzl-8" value="&lt;span style=&quot;color: rgba(0, 0, 0, 0); font-family: monospace; font-size: 0px; text-align: start; text-wrap-mode: nowrap;&quot;&gt;%3CmxGraphModel%3E%3Croot%3E%3CmxCell%20id%3D%220%22%2F%3E%3CmxCell%20id%3D%221%22%20parent%3D%220%22%2F%3E%3CmxCell%20id%3D%222%22%20value%3D%22%26lt%3Bi%26gt%3BHopsworks%20AI%20Data%20Platform%26lt%3B%2Fi%26gt%3B%22%20style%3D%22text%3Bhtml%3D1%3Balign%3Dcenter%3BverticalAlign%3Dmiddle%3Bresizable%3D0%3Bpoints%3D%5B%5D%3Bautosize%3D1%3BstrokeColor%3Dnone%3BfillColor%3Dnone%3B%22%20vertex%3D%221%22%20parent%3D%221%22%3E%3CmxGeometry%20x%3D%22325%22%20y%3D%22320%22%20width%3D%22170%22%20height%3D%2230%22%20as%3D%22geometry%22%2F%3E%3C%2FmxCell%3E%3C%2Froot%3E%3C%2FmxGraphModel%3E&lt;/span&gt;" style="rounded=0;whiteSpace=wrap;html=1;" vertex="1" parent="1">
          <mxGeometry x="510" y="310" width="500" height="110" as="geometry" />
        </mxCell>
        <mxCell id="9FvEI9ZuZgGLkIwgtBzl-9" value="&lt;i&gt;Feature Store&lt;/i&gt;" style="rounded=0;whiteSpace=wrap;html=1;fillColor=#d5e8d4;strokeColor=#00CC00;" vertex="1" parent="1">
          <mxGeometry x="530" y="340" width="220" height="60" as="geometry" />
        </mxCell>
        <mxCell id="9FvEI9ZuZgGLkIwgtBzl-10" value="&lt;i&gt;Model Registry&lt;/i&gt;" style="rounded=0;whiteSpace=wrap;html=1;fillColor=#ffe6cc;strokeColor=#FF9933;" vertex="1" parent="1">
          <mxGeometry x="770" y="340" width="220" height="60" as="geometry" />
        </mxCell>
        <mxCell id="9FvEI9ZuZgGLkIwgtBzl-11" style="edgeStyle=orthogonalEdgeStyle;rounded=0;orthogonalLoop=1;jettySize=auto;html=1;exitX=0.417;exitY=1;exitDx=0;exitDy=0;exitPerimeter=0;endArrow=classicThin;endFill=1;strokeColor=#00CC00;" edge="1" parent="1">
          <mxGeometry relative="1" as="geometry">
            <mxPoint x="589.75" y="260" as="sourcePoint" />
            <mxPoint x="589.71" y="310" as="targetPoint" />
            <Array as="points" />
          </mxGeometry>
        </mxCell>
        <mxCell id="9FvEI9ZuZgGLkIwgtBzl-12" value="&lt;font style=&quot;color: rgb(0, 204, 0);&quot;&gt;features,&lt;/font&gt;&lt;div&gt;&lt;font style=&quot;color: rgb(0, 204, 0);&quot;&gt;labels&lt;/font&gt;&lt;/div&gt;" style="text;html=1;align=right;verticalAlign=middle;resizable=0;points=[];autosize=1;strokeColor=none;fillColor=none;" vertex="1" parent="1">
          <mxGeometry x="517" y="266" width="70" height="40" as="geometry" />
        </mxCell>
        <mxCell id="9FvEI9ZuZgGLkIwgtBzl-13" value="&lt;span style=&quot;text-align: left;&quot;&gt;features,&amp;nbsp;&lt;/span&gt;&lt;div&gt;&lt;span style=&quot;text-align: left;&quot;&gt;labels&lt;/span&gt;&lt;/div&gt;" style="text;html=1;align=center;verticalAlign=middle;resizable=0;points=[];autosize=1;strokeColor=none;fillColor=none;fontColor=#00CC00;" vertex="1" parent="1">
          <mxGeometry x="660" y="268" width="70" height="40" as="geometry" />
        </mxCell>
        <mxCell id="9FvEI9ZuZgGLkIwgtBzl-14" value="model" style="text;html=1;align=center;verticalAlign=middle;resizable=0;points=[];autosize=1;strokeColor=none;fillColor=none;fontColor=#FF9933;" vertex="1" parent="1">
          <mxGeometry x="846" y="279" width="60" height="30" as="geometry" />
        </mxCell>
        <mxCell id="9FvEI9ZuZgGLkIwgtBzl-15" value="" style="rounded=0;whiteSpace=wrap;html=1;" vertex="1" parent="1">
          <mxGeometry x="530" y="200" width="120" height="60" as="geometry" />
        </mxCell>
        <mxCell id="9FvEI9ZuZgGLkIwgtBzl-16" value="" style="shape=image;verticalLabelPosition=bottom;labelBackgroundColor=default;verticalAlign=top;aspect=fixed;imageAspect=0;image=data:image/png,iVBORw0KGgoAAAANSUhEUgAAAgAAAAIACAYAAAD0eNT6AAAABHNCSVQICAgIfAhkiAAAAAlwSFlzAAAOxAAADsQBlSsOGwAAABl0RVh0U29mdHdhcmUAd3d3Lmlua3NjYXBlLm9yZ5vuPBoAAB5wSURBVHic7d13vHZZVR/wH8NAVOpAEqOooImmmEgv9kqvVsrM0Iu9gC22ORp7SWIXOxDAShFUEFQUUEEY0AhEJYFELKAYERApM8kflxeGl7fcfe6zzzr7nO/38/n9f9717POsdfe9syYBAAAAAAAAAAAAAAAAAAAAAAAAAAAAAAAAAAAAAAAAAAAAAAAAAAAAAAAAAAAAAAAAAAAAAAAAAAAAAAAAAAAAAAAAAAAAAAAAAAAAAAAAAAAAAAAAAAAAAAAAAAAAAAAAAAAAAAAAAAAAAAAAAAAAAAAAAAAAAAAAAAAAAAAAANivayX5+yT/b7A8okcxAGAvLkl9M2/NW5PcsEcxYI4Lqh8AYIZLqx9ghqcleX31QwDAqD4gyTtS/xN9a+7ZoxgwlxsAYDT3S3L16odo9LdJnlH9EHBVBgBgNCNe/z8xR38DAADM8JGpv8qfk9v2KAachBsAYCQPrH6AGV6Z5IXVDwGnMwAAo7ggyX2qH2KGx+boFgAAmOH2qb/Kb82VST6sRzHgpNwAAKMY8Y//npfkf1U/BACM6lpJ3pj6n+hb87AexQCAvbg09c28NW9Jcv0exYBD8CsAYAQjXv8/PcnfVT8EAIzqAzPm6t979CgGHIobAGDtrP6FDgwAwNqNeP3/hCRvq34IABjVTVN/lT8nt+lRDDgkNwDAmo340/+fJvn96oeA8zEAAGtl9S8A7NAdUn+V3xqrfxmGGwBgrUa8/n9urP4FgNlGXf370B7FAIC9uH/qm3lrrP5lKH4FAKzRiNf/T4vVvwAw26irf+/eoxjQixsAYG0uznirf1+f5JnVDwEtDADA2lxS/QAzWP0LACdws9Rf5c/JrXsUA3pyAwCsyYh//Gf1L0MyAABrcUGSe1c/xAyPqX4AABjZHVN/ld+aK5N8aI9iQG9uAIC1GPH6/7eTvKr6IQBgVKOu/n1Ij2IAwF48IPXNvDVW/zI0vwIA1mDE6/9fitW/ADDbqKt/79ajGLAUNwBAtUsy3urfv47VvwzOAABUG3H17xOTvL36IQBgVDdP/VX+nNyqRzFgSW4AgEoj/vHfnyR5UfVDwEkZAIAqV09y3+qHmMHqXwA4gTul/iq/NVb/shluAIAqI17//1as/gWA2a6d5E2p/4m+NQ/uUQwA2IsHpr6Zt8bqXzbFrwCACiNe/z81Vv8CwGw3ypirf+/aoxhQxQ0AsLRRV//+WvVDwCEZAIClXVz9ADM8IVb/AsBst0j9Vf6c3LJHMaCSGwBgSSP+8d8rkry4+iHg0AwAwFIuTHKf6oeY4XHVDwAAI7tz6q/yW3Nlkpt0qAWUcwMALGXE6//nJHl18TMAwLCum+TNqf+JvjUP6lEMANiLB6W+mbfmLUmu16MYsAZ+BQAsYcTr/6ckeUP1QwDAqEZd/XuXHsWAtXADAPR2acZb/fu6JM+qfgjoyQAA9Gb1LwDszC1Tf5U/J7foUQxYEzcAQE8j/vHfK5JcXv0Q0JsBAOjlwiT3rn6IGR5b/QAAMLK7pP4qvzVXJPngHsWAtXEDAPQy4vX/c5L8WfVDAMCoRl39+8AOtQCA3Xhw6pt5a/4hVv+yI34FAPQw4vW/1b8AcAIfkqM/pqv+ib41d+5RDFgrNwDAoV2c8b5brP5ld0Z7SWn38CQXVT8EuzLi9f8TcvQ/LOLIRTn67gAGNeXoavMlSW5Y+yjsxK1Sf5U/JzfvUYxBXT/JC3NUl28vfhZghinv+QVnCGAJ35v6Zt6al3WpxJiu2vxPxRAAA5ly5i+6y2MIoJ8Lk/xV6ht6a76qRzEGdKbmbwiAgUw595edIYBe7pr6Zt4aq3+PnKv5GwJgAFOO96VnCKCHn0l9Q2/Ns7tUYizHaf6GAFixKW1ffIYADum6OdqkV93QW/OAHsUYSEvzNwTACk2Z9+V3eZIbLP+4bNBDUt/MW7P31b9zmr8hAFZkysm+BA0BHMJzUt/QW/P4HoUYxEmavyEAVmDKYb4IDQGcxKirf+/UoxgDOETzNwRAoSmH/TI0BDDX16S+mbfmtTn6zxb35pDN3xAABab0+VI0BDDHH6W+obfme7pUYt16NH9DACxoSt8vRkMALW6d+mY+JzfrUYwV69n8DQGwgCnLfDkaAjiu70t9M2/N3lb/LtH8DQHQ0ZRlvyQNAZzPqKt/v7JHMVZqyeZvCIAOptR8URoCOJe7pb6Zt2ZPq38rmr8hAA5oSu0XpiGAs/nZ1Df01jyrSyXW5/pJXpDaWhsC4ASm1H9hGgI4k1FX/96/RzFWZg3N3xAAJzCl/uW9al4cQwDv9tDUn8nWvDnJdXoUY0XW1PwNATDDlPqX1hDAufxW6s9ja/5bl0qsxxqbvyEAGkypf1kNAZzLjTPm6t879ijGSqy5+RsC4Bim1L+khgDO52tTfwZb81fZ7urfEZq/IQDOYUr9y2kI4Dhekfrz15rv7lKJeiM1/1MxBMBVTKl/KefEELA/t0n9uZuTm/YoRrERm/+pGAIg4zb/UzEE7Mv3p/7MteaPulSi1sjN/1QMAezalPqX8BAxBOzDqKt/v6JHMQptofmfiiGAXZpS//IdMoaA7bt76s9Za65I8kE9ilFkS83/VAwB7MqU+peuRwwB2/ZzqT9jrfm1LpWoscXmfyqGAHZhSv3L1jOGgG26XsZc/Xtpj2IU2HLzPxVDAJs2pf4lWyKGgO15WOrPVWvelOTaPYqxsD00/1MxBLBJU+pfriXzAwepGmsx4urfx3WpxPIenfpaLpnpIFWDlZhS/1Itmedl+//TlT25cZIrU3+uWnOHHsUocK2MOYCdJG4C2IQp9S/TktH8t+frUn+uWvMXSa7eoxhFDAEwmCn1L9GS0fy3acTVv9/VpRK1DAEwiCn1L8+S0fy36bapP1tz8lE9irEChgBYuSn1L82S0fy36wdSf75as8XVv1dlCICVmlL/siwZzX+7rpHkr1N/xlrz5T2KsTKGAFiZKfUvyZLR/LftHqk/Y63Z2urfczEEwEpMqX85lozmv30/n/pz1ppndqnEehkCoNiU+pdiyTw/mv/Wjbr695IexVg5QwAUmVL/MiwZzX8fHp76s9aaraz+ncMQAAubUv8SLBnNfz+em/rz1prHdqnEOAwBsJAp9Yd/yWj++3HjjLn69/Y9ijEYQwB0NqX+0C8ZzX9fvj71Z641f55trf49CUMAdDKl/rAvGc1/f/5H6s9da76zSyXGZQiAA5tSf8iXjOa/P7dL/bmbk62u/j0JQwAcyJT6w71kNP99+sHUn73WvLRLJbbBEAAnNKX+UC8ZzX+fRl39+6gexdgQQwDMNKX+MC8ZzX+/7pn689eaK5LcqEcxNsYQAI2m1B/iJaP579svpP4MtuYZXSqxTYYAOKYp9Yd3yWj++3ZRkn9M/TlszcU9irFhhgA4jyn1h3bJaP48IvXnsDV7Xv17EoYAOIsp9Yd1yWj+JEf/d8fqs9iax3SpxD4YAuA0U+oP6ZLR/EmSm2TM1b+f1qEWe2IIgHeaUn84l4zmzynfkPrz2Bqrfw/DEMDuTak/lEtG8+eqRlz9+x1dKrFPhgB2a0r9YVwymj9X9dGpP5Nz8h96FGPHDAHszpT6Q7hkNH9O90OpP5eteUmXSmAIYDem1B++JaP5c7prZszVv4/sUQySGALYgSn1h27JaP6cyb1SfzZb844kH9CjGLyLIYDNmlJ/2JaM5s/Z/GLqz2drfrVLJTidIYDNmVJ/yJaM5s/ZjLr69349isEZGQLYjCn1h2vJaP6cy+em/oy2xurf5RkCGN6U+kO1ZDR/zuf5qT+nrfnpHoXgvAwBDGtK/WFaMpo/5/MvM+bq30/tUQyOxRDAcKbUH6Ilo/lzHJel/qy2xurfeoYAhjGl/vAsGc2f4/rj1J9XX8RjMgSwelPqD82S0fw5ro9J/XmdE6t/18MQwGpNqT8sS0bzp8UPp/7MtubyLpXgJAwBrM6U+kOyZDR/Wlwzyd+k/ty25st6FIMTMwSwGlPqD8eS0fxp9empP7eteUeSf9GjGByEIYByU+oPxZLR/JnjSak/u635lS6V4JAMAZSZUn8Ylozmzxw3yJirf+/boxgcnCGAxU2pPwRLRvNnrs9L/fltzRtz1FgYgyGAxUyp//CXjObPSfxO6s9wa36qSyXoyRBAd1PqP/Qlo/lzEqOu/v2UHsWgO0MA3Uyp/7CXzPOTXPcQhWO3ptSf49a8Jlb/jswQwMFNqf+Ql4zmzyGMuPr327pUgiUZAjiYKfUf7pLR/DmEj039WZ6Tf9+jGCzOEMCJTan/UJeM5s+h/Ejqz3NrXtylElQxBDDblPoPc8lo/hzKqKt/v7RHMShlCKDZlPoPcclo/hzSZ6T+TLfm7bH6d6sMARzblPoPb8lo/hzak1N/rlvzy10qwVoYAjivKfUf2pLR/Dm0UVf/3qdHMVgVQwBnNaX+w1oymj89fH7qz3Zr3pDk/XoUg9UxBPBeptR/SEtG86eX3039+W7NT3apBGtlCOBdptR/OEtG86eXf5UxV/9+co9isGqGADR/OKBvTP0Zb43Vv/tlCNixKfUfxpLR/Onpaklemfpz3ppv7VEMhmEI2KEp9R/CktH86e3jUn/O58TqXwwBOzKlvvhLRvNnCY9O/VlvzYu6VIIRGQJ2YEp90ZeM5s8SRl39+yU9isGwDAEbNqW+2EtG82cpn5n6894aq385E0PABk2pL/KS+Z1o/iznKak/8615epdKsAWGgA2ZUl/cJaP5s6QbJHlr6s99a+7doxhshiFgA6bUF3XJaP4s7QtSf+5bY/Uvx2EIGNiU+mIuGc2fCr+X+rPfmp/oUgm2yBAwoCn1RVwymj8VRl39+0kdasF2GQIGMqW+eEtG86fKN6X+/Lfmfye5oEcx2DRDwACm1BdtyWj+VLlakv+Z+negNd/SoxjsgiFgxabUF2vJaP5U+vjUvwNz8pE9isFuGAJWaEp9kZaM5k+1H039e9Ca3+9SCfbGELAiU+qLs2Q0f6q9T5L/m/p3oTVf3KMY7JIhYAWm1BdlyWj+rMFnpf5daM3bk7x/j2KwW4aAQlPqi7FkNH/W4qmpfx9a87QulWDvDAEFptQXYclo/qzFDTPm6t/P6VEMiCFgUdMxHm5L0fxZky9M/TvRmjcked8exYB3MgQsYDrAQ48UzZ+1eUHq34vW/HiXSsB7MgR0NC3wj1lTNH/W5sMz5urfT+xRDDgDQ0AH0wr+kUtG82eN/lPq343WWP3L0gwBBzSt4B+3ZDR/1mjU1b/f3KMYcB6GgAOYVvCPWjKaP2v1Cal/P+bk3/QoBhyDIeAEphX8Y5aM5s+a/Vjq35HWvLBLJeD4DAEzTCv4RywZzZ81G3X17xf1KAY0MgQ0mFbw8EtG82ftPjv170lrrP5lTQwBxzCt4KGXjObPCH4p9e9Ka36pSyVgPkPAOUwreNglo/kzgn+W5G2pf19a89k9igEnZAg4g2kFD7lkNH9G8UWpf19aY/Uva2YIuIppBQ+3ZDR/RvLC1L8zrfmxLpWAwzEERPOHNfvw1L8zc/IJPYoBB7brIWBawcMsGc2f0Xxz6t+b1rw6Vv8yjl0OARckecshqjeQaya5evVDwDFdLcn9qh9ihsfl6H9YBCO4eo56w568q/d/VeqnkSXzoiQXnbB4sIRPTP37MidW/zKK6yb53dS/M0vmstOLYAiA9fnx1L8rrXlBl0rA4Wn+V2EIgPUYdfXvF/YoBhyY5n8GhgBYh89J/fvRGqt/GYHmfw6GAKj3tNS/G615apdKwOFo/sdgCIA6o67+/awexYAD0fwbGAKgxhen/n1ozd/F6l/WS/OfwRAAy/v91L8LrfnRLpWAk9P8T8AQAMv5iNS/A3Py8T2KASek+R+AIQCW8S2pP/+teXWOthbCmmj+B2QIgL6uluRVqT/7rfmmHsWAE9D8OzAEQD+flPozPyf/ukMtYC7NvyNDAPTxE6k/7635vS6VgHk0/wUYAuCwRl39+wU9igEzaP4LMgTA4dw79We8NW9L8k97FAMaaf4FDAFwGE9P/fluzVO6VALaaP6FDAFwMv88Y67+/cwexYAGmv8KGAJgvi9J/ZlujdW/VNP8V8QQAPO8KPXnuTWP7lIJOB7Nf4UMAdDm36b+HM/Jx/UoBhyD5r9ihgA4vm9N/Rluzati9S81NP8BGALg/EZd/fuNPYoB56H5D8QQAOf2yak/t3Ni9S9L0/wHZAiAs/vJ1J/Z1vxul0rA2Wn+AzMEwHt7nxz9p3TV57U1n9+jGHAWmv8GGALgPd0n9ee0NVb/siTNf0MMAfBuv5z6M9qaJ3epBLw3zX+DDAFwtPr37ak/n635jB7FgNNo/htmCGDvvjT157I1f5vkn/QoBlyF5r8DhgD27MWpP5Ot+ZEulYB30/x3xBDAHo26+vdjexQD3knz3yFDAHvzbak/h615Vaz+pR/Nf8cMAezFBUn+T+rPYGumDrWARPMnhgD24VNSf/bm5CN6FIPd0/x5F0MAW/dTqT93rfmdLpVg7zR/3oshgK1634y5+vfzehSDXdP8OStDAFt039Sftda8NVb/cliaP+dlCGBrfiX156w1T+pSCfZK8+fYDAFsxairfz+9RzHYJc2fZoYAtuDLUn+2WmP1L4ei+TObIYDRXZ76c9WaH+5SCfZG8+fEDAGM6t+l/jzNycf0KAa7ovlzMIYARvTtqT9LrXllrP7lZDR/Ds4QwEhGXf3ri4yT0PzpxhDAKD419ednTqz+ZS7Nn+4MAYzgp1N/dlrz/B6FYBc0fxZjCGDN3i/J36f+3LTmc3sUg83T/FmcIYC1ul/qz0tr3prkhj2KwaZp/pQxBLBGv5r6s9KaX+xSCbZM86ecIYA1ef+Mufr3Xj2KwWZp/qyGIYC1eGTqz0drXh+rfzk+zZ/VMQSwBi9J/dlozQ91qQRbpPmzWoYAKo26+vejexSDzdH8WT1DAFW+I/XnoTV/Gqt/OT/Nn2EYAljaBUn+LPVnoTXf0KMYbIrmz3AMASzp01J/Bubkw3sUg83Q/BmWIYClPCb1n39rntelEmyF5s/wDAH0Nurq30f0KAaboPmzGYYAero49Z95a6z+5Ww0fzbHEEAvz0j9592aX+hSCUan+bNZhgAObdTVv/fsUQyGpvmzeYYADulRqf+MW2P1L6fT/NkNQwCH8tLUf76t+cEulWBUmj+7YwjgpD4y9Z/rnNyuRzEYkubPbhkCOInvTP1n2hqrfzlF82f3DAHMMerq36/vUQyGo/nDOxkCaHX71H+OrbkyyYf1KAZD0fzhNIYAWjw29Z9ha57bpRKMRPOHszAEcBzXSvLG1H9+rXl4j2IwDM0fzsMQwPlckvrPrTVW/+6b5g/HZAjgXJ6Z+s+sNT/fpRKMQPOHRoYAzuQDk7wj9Z9Xa+7RoxisnuYPMxkCON2Xp/5zas3rk1yzRzFYNc0fTsgQwFX9Qeo/o9b8QJdKsGaaPxyIIYBk3NW/t+1RDFZL84cDMwTwXan/XFrzJ7H6d080f+jEELBfFyR5Teo/k9Z8XY9isEqaP3RmCNinO6T+s2iN1b/7ofnDQgwB+/O41H8OrfntLpVgbTR/WJghYD9GXf37sB7FYFU0fyhiCNiHS1Nf+9a8Jcn1exSD1dD8oZghYPt+LfV1b83PdakEa6H5w0oYArZr1NW/d+9RDFZB84eVMQRs01ekvtat+ZtY/btVmj+slCFge0Zc/fv9XSpBNc0fVs4QsB03TX195+Q2PYpBKc0fBmEI2IbvTn1tW2P17/Zo/jAYQ8DYRl39+7U9ikEZzR8GZQgY1x1TX8/WXJnkQ3sUgxKaPwxuSv1LtWQefZCq1Rtx9e9vdakEVR6d+jO1ZKaDVA1WZi83AZcnucGBalZp1NW/D+1RDMpcL8kLUn+ulshlB6oZrNLWh4CtNP8kuX/q69kaq3+3aQ9DwGUHqxas2FaHgC01/yR5Vupr2pqf7VIJ1mDLQ8BlB6wTrN7WhoCtNf9RV//erUcxWI0tDgGXHbRCMIitDAFba/5J8pWpr2trXpfkGj2KwapsaQi47MC1gaGMPgRssfknyR+mvrat+b4ulWCNtjAEXHbwqsCARh0Cttr8b5b62s7JrXsUg9UaeQi4rEM9YFijDQFbbf5J8j2pr29r/rhLJVi7EYeAy7pUAgY3yhCw5eZ/9SR/mfoat+ZrehSDIYw0BGj+cA5rHwK23PyT5E6pr3FrrP5lhCFA84djWOsQsPXmnySPT32dW/OcHoVgOGseAjR/aLC2IWAPzX/U1b8P6VEMhrTGIUDzhxnWMgTsofknyQNSX+vWWP3L6dY0BGj+cALVQ8Bemn+SPDv1X5it+ZkulWB0axgCNH84gKohYE/N/0YZc/XvXXsUg02oHAI0fzigpYeAy5PccJF/2TpU37TMidW/nM/1s/wQoPlDB0s1qb01/2TM1b/f26USbM2SQ4DmDx31HgL22PxvnvpmPie36lEMNmmJIUDzhwX0GgL22PyT5D+nvpm35uVdKsGW9RwCNH9Y0KGHgL02/wsz5urf/9ijGGxejyFA84cChxoC9tr8k+TOqW/mrbkyyU061IJ9OOQQoPlDoZMOAXtu/knyhNQ39Nb8ZpdKsCeHGAI0f1iBuUPA3pv/dZK8OfUNvTUP7lEMduckQ4DmDyvSOgTsvfknyQNT38xbY/UvhzRnCND8YYWOOwRo/kd+PfUNvTVP7FIJ9qxlCND8YcXONwRo/kdGXf17lx7FYPeOMwRo/jCAsw0Bmv+7fXXqm3lrXhurf+nnXEOA5g8DOX0I0Pzf039PfUNvzX/tUgl4tzMNAZo/DOjUEKD5v6dbpL6Zz8ktexQDTnPVIUDzh4E9PMlF1Q+xMv8l9c28NVb/sqSLcvTdAbAZo67+/eoexQCAvbhL6pt5a6z+BQ7uguoHgIVdWv0AMzwnyauLnwEAhnXdjLn690E9igEAe/Gg1Dfz1rwlyfV6FAPYN78CYE9GvP5/cpI3VD8EAIzqRkmuSP1P9K25c49iALgBYC/un/HO++uSPKv6IYBtGu0LEea6X/UDzPCEHP0PiwCAGW6Z+qv8OblFj2IAJG4A2IcR//jv5Tn6fzgAdGEAYOsuTHKf6oeY4bHVDwAAI7tr6q/yW3NFkg/uUQyAU9wAsHUjXv8/J8mfVT8EAIxq1NW/D+xQCwDYjQenvpm35h9i9S+wAL8CYMtGvP63+hcATuBDMubq3zv1KAbA6dwAsFWXZLzz/bokz65+CGAfRvuChOMacfXv42P1LwDMdqvUX+XPyc17FAPgTNwAsEUj/vHfy5O8pPohgP0wALA1Fya5d/VDzPCY6gcAgJHdLfVX+a2x+hdYnBsAtmbE6//fjNW/ADDbdXO0Sa/6J/rWPKBHMQBgLx6S+mbemjcnuU6PYgCci18BsCUjXv8/Ockbqx8CAEZ144y5+veOPYoBcD5uANiKEVf/vjbJr1c/BLBPo31hwtlcUv0AM1j9CwAncOvUX+XPyc16FAPgONwAsAUj/vHfy5K8tPohgP0yADC6C5N8TvVDzGD1LwCcwN1Tf5XfmiuSfFCPYgAclxsARjfi9f9vJHlN9UMAwKhGXf17/x7FAIC9eGjqm3lrrP4FVsGvABjZiNf/T4rVvwAw242TXJn6n+hbc4cexQBo5QaAUV2a5GrVD9HoL2P1L7ASBgBGdXH1A8zwhBz9J4AAwAy3Sf1V/pzctEcxAOZwA8CIRvzjv5cl+YPqhwCAUV0jyV+n/qf51nx5j2IAwF7cI/XNvDVW/wKr41cAjGbE6/9fj9W/ADDb9TLm6t8RhxYAWI2Hpb6Zt+ZNSa7doxgAJ+FXAIxkxJ+kn5SjIQAAmOHGGXP17+17FAPgpNwAMIr7Z7zVv3+R5DeqHwLgTAwAjMLqXwDYmdum/ip/Tj6qRzEADsENACMY8Y///ijJH1Y/BACMatTVv4/qUQwA2It7pr6Zt+aKJDfqUQyAQ/ErANZuxOv/Zyf58+qHAIBRjbr695IexQCAvXh46pt5a6z+BYbgVwCs2YjX/78Yq38BYLabZMzVv5/WoRYAB+cGgLUadfXvb1Y/BMBxGABYq/tVP8AMj4/VvwAw2+1Sf5U/J1b/AsNwA8AajfjHfy+N1b8AMNs1M+bq30f2KAYA7MW9Ut/MW2P1LzAcvwJgbUa8/n9WrP4FgNkuSvKPqf+JvjUX9ygGAOzFI1LfzFtj9S8AAAAAAAAAAAAAAAAAAAAAAAAAAAAAAAAAAAAAAAAAAAAAAAAAAAAAAAAAAAAAAAAAAAAAAAAAAAAAAAAAAAAAAAAAAAAAAAAAAAAAAAAAAAAAAAAAAAAAAAAAAAAAAAAAAAAAAAAAAAAAAAAAAAAAAAAAAAAAAAAAAAAAAAAAsGv/H8beCx8s0IfFAAAAAElFTkSuQmCC;" vertex="1" parent="1">
          <mxGeometry x="536" y="202" width="22" height="22" as="geometry" />
        </mxCell>
        <mxCell id="9FvEI9ZuZgGLkIwgtBzl-17" value="Feature pipeline" style="text;html=1;align=center;verticalAlign=middle;resizable=0;points=[];autosize=1;strokeColor=none;fillColor=none;" vertex="1" parent="1">
          <mxGeometry x="535" y="218" width="110" height="30" as="geometry" />
        </mxCell>
        <mxCell id="9FvEI9ZuZgGLkIwgtBzl-18" value="" style="rounded=0;whiteSpace=wrap;html=1;" vertex="1" parent="1">
          <mxGeometry x="700" y="200" width="120" height="60" as="geometry" />
        </mxCell>
        <mxCell id="9FvEI9ZuZgGLkIwgtBzl-19" value="" style="shape=image;verticalLabelPosition=bottom;labelBackgroundColor=default;verticalAlign=top;aspect=fixed;imageAspect=0;image=data:image/png,iVBORw0KGgoAAAANSUhEUgAAAgAAAAIACAYAAAD0eNT6AAAABHNCSVQICAgIfAhkiAAAAAlwSFlzAAAOxAAADsQBlSsOGwAAABl0RVh0U29mdHdhcmUAd3d3Lmlua3NjYXBlLm9yZ5vuPBoAAB5wSURBVHic7d13vHZZVR/wH8NAVOpAEqOooImmmEgv9kqvVsrM0Iu9gC22ORp7SWIXOxDAShFUEFQUUEEY0AhEJYFELKAYERApM8kflxeGl7fcfe6zzzr7nO/38/n9f9717POsdfe9syYBAAAAAAAAAAAAAAAAAAAAAAAAAAAAAAAAAAAAAAAAAAAAAAAAAAAAAAAAAAAAAAAAAAAAAAAAAAAAAAAAAAAAAAAAAAAAAAAAAAAAAAAAAAAAAAAAAAAAAAAAAAAAAAAAAAAAAAAAAAAAAAAAAAAAAAAAAAAAAAAAAAAAAAAAANivayX5+yT/b7A8okcxAGAvLkl9M2/NW5PcsEcxYI4Lqh8AYIZLqx9ghqcleX31QwDAqD4gyTtS/xN9a+7ZoxgwlxsAYDT3S3L16odo9LdJnlH9EHBVBgBgNCNe/z8xR38DAADM8JGpv8qfk9v2KAachBsAYCQPrH6AGV6Z5IXVDwGnMwAAo7ggyX2qH2KGx+boFgAAmOH2qb/Kb82VST6sRzHgpNwAAKMY8Y//npfkf1U/BACM6lpJ3pj6n+hb87AexQCAvbg09c28NW9Jcv0exYBD8CsAYAQjXv8/PcnfVT8EAIzqAzPm6t979CgGHIobAGDtrP6FDgwAwNqNeP3/hCRvq34IABjVTVN/lT8nt+lRDDgkNwDAmo340/+fJvn96oeA8zEAAGtl9S8A7NAdUn+V3xqrfxmGGwBgrUa8/n9urP4FgNlGXf370B7FAIC9uH/qm3lrrP5lKH4FAKzRiNf/T4vVvwAw26irf+/eoxjQixsAYG0uznirf1+f5JnVDwEtDADA2lxS/QAzWP0LACdws9Rf5c/JrXsUA3pyAwCsyYh//Gf1L0MyAABrcUGSe1c/xAyPqX4AABjZHVN/ld+aK5N8aI9iQG9uAIC1GPH6/7eTvKr6IQBgVKOu/n1Ij2IAwF48IPXNvDVW/zI0vwIA1mDE6/9fitW/ADDbqKt/79ajGLAUNwBAtUsy3urfv47VvwzOAABUG3H17xOTvL36IQBgVDdP/VX+nNyqRzFgSW4AgEoj/vHfnyR5UfVDwEkZAIAqV09y3+qHmMHqXwA4gTul/iq/NVb/shluAIAqI17//1as/gWA2a6d5E2p/4m+NQ/uUQwA2IsHpr6Zt8bqXzbFrwCACiNe/z81Vv8CwGw3ypirf+/aoxhQxQ0AsLRRV//+WvVDwCEZAIClXVz9ADM8IVb/AsBst0j9Vf6c3LJHMaCSGwBgSSP+8d8rkry4+iHg0AwAwFIuTHKf6oeY4XHVDwAAI7tz6q/yW3Nlkpt0qAWUcwMALGXE6//nJHl18TMAwLCum+TNqf+JvjUP6lEMANiLB6W+mbfmLUmu16MYsAZ+BQAsYcTr/6ckeUP1QwDAqEZd/XuXHsWAtXADAPR2acZb/fu6JM+qfgjoyQAA9Gb1LwDszC1Tf5U/J7foUQxYEzcAQE8j/vHfK5JcXv0Q0JsBAOjlwiT3rn6IGR5b/QAAMLK7pP4qvzVXJPngHsWAtXEDAPQy4vX/c5L8WfVDAMCoRl39+8AOtQCA3Xhw6pt5a/4hVv+yI34FAPQw4vW/1b8AcAIfkqM/pqv+ib41d+5RDFgrNwDAoV2c8b5brP5ld0Z7SWn38CQXVT8EuzLi9f8TcvQ/LOLIRTn67gAGNeXoavMlSW5Y+yjsxK1Sf5U/JzfvUYxBXT/JC3NUl28vfhZghinv+QVnCGAJ35v6Zt6al3WpxJiu2vxPxRAAA5ly5i+6y2MIoJ8Lk/xV6ht6a76qRzEGdKbmbwiAgUw595edIYBe7pr6Zt4aq3+PnKv5GwJgAFOO96VnCKCHn0l9Q2/Ns7tUYizHaf6GAFixKW1ffIYADum6OdqkV93QW/OAHsUYSEvzNwTACk2Z9+V3eZIbLP+4bNBDUt/MW7P31b9zmr8hAFZkysm+BA0BHMJzUt/QW/P4HoUYxEmavyEAVmDKYb4IDQGcxKirf+/UoxgDOETzNwRAoSmH/TI0BDDX16S+mbfmtTn6zxb35pDN3xAABab0+VI0BDDHH6W+obfme7pUYt16NH9DACxoSt8vRkMALW6d+mY+JzfrUYwV69n8DQGwgCnLfDkaAjiu70t9M2/N3lb/LtH8DQHQ0ZRlvyQNAZzPqKt/v7JHMVZqyeZvCIAOptR8URoCOJe7pb6Zt2ZPq38rmr8hAA5oSu0XpiGAs/nZ1Df01jyrSyXW5/pJXpDaWhsC4ASm1H9hGgI4k1FX/96/RzFWZg3N3xAAJzCl/uW9al4cQwDv9tDUn8nWvDnJdXoUY0XW1PwNATDDlPqX1hDAufxW6s9ja/5bl0qsxxqbvyEAGkypf1kNAZzLjTPm6t879ijGSqy5+RsC4Bim1L+khgDO52tTfwZb81fZ7urfEZq/IQDOYUr9y2kI4Dhekfrz15rv7lKJeiM1/1MxBMBVTKl/KefEELA/t0n9uZuTm/YoRrERm/+pGAIg4zb/UzEE7Mv3p/7MteaPulSi1sjN/1QMAezalPqX8BAxBOzDqKt/v6JHMQptofmfiiGAXZpS//IdMoaA7bt76s9Za65I8kE9ilFkS83/VAwB7MqU+peuRwwB2/ZzqT9jrfm1LpWoscXmfyqGAHZhSv3L1jOGgG26XsZc/Xtpj2IU2HLzPxVDAJs2pf4lWyKGgO15WOrPVWvelOTaPYqxsD00/1MxBLBJU+pfriXzAwepGmsx4urfx3WpxPIenfpaLpnpIFWDlZhS/1Itmedl+//TlT25cZIrU3+uWnOHHsUocK2MOYCdJG4C2IQp9S/TktH8t+frUn+uWvMXSa7eoxhFDAEwmCn1L9GS0fy3acTVv9/VpRK1DAEwiCn1L8+S0fy36bapP1tz8lE9irEChgBYuSn1L82S0fy36wdSf75as8XVv1dlCICVmlL/siwZzX+7rpHkr1N/xlrz5T2KsTKGAFiZKfUvyZLR/LftHqk/Y63Z2urfczEEwEpMqX85lozmv30/n/pz1ppndqnEehkCoNiU+pdiyTw/mv/Wjbr695IexVg5QwAUmVL/MiwZzX8fHp76s9aaraz+ncMQAAubUv8SLBnNfz+em/rz1prHdqnEOAwBsJAp9Yd/yWj++3HjjLn69/Y9ijEYQwB0NqX+0C8ZzX9fvj71Z641f55trf49CUMAdDKl/rAvGc1/f/5H6s9da76zSyXGZQiAA5tSf8iXjOa/P7dL/bmbk62u/j0JQwAcyJT6w71kNP99+sHUn73WvLRLJbbBEAAnNKX+UC8ZzX+fRl39+6gexdgQQwDMNKX+MC8ZzX+/7pn689eaK5LcqEcxNsYQAI2m1B/iJaP579svpP4MtuYZXSqxTYYAOKYp9Yd3yWj++3ZRkn9M/TlszcU9irFhhgA4jyn1h3bJaP48IvXnsDV7Xv17EoYAOIsp9Yd1yWj+JEf/d8fqs9iax3SpxD4YAuA0U+oP6ZLR/EmSm2TM1b+f1qEWe2IIgHeaUn84l4zmzynfkPrz2Bqrfw/DEMDuTak/lEtG8+eqRlz9+x1dKrFPhgB2a0r9YVwymj9X9dGpP5Nz8h96FGPHDAHszpT6Q7hkNH9O90OpP5eteUmXSmAIYDem1B++JaP5c7prZszVv4/sUQySGALYgSn1h27JaP6cyb1SfzZb844kH9CjGLyLIYDNmlJ/2JaM5s/Z/GLqz2drfrVLJTidIYDNmVJ/yJaM5s/ZjLr69349isEZGQLYjCn1h2vJaP6cy+em/oy2xurf5RkCGN6U+kO1ZDR/zuf5qT+nrfnpHoXgvAwBDGtK/WFaMpo/5/MvM+bq30/tUQyOxRDAcKbUH6Ilo/lzHJel/qy2xurfeoYAhjGl/vAsGc2f4/rj1J9XX8RjMgSwelPqD82S0fw5ro9J/XmdE6t/18MQwGpNqT8sS0bzp8UPp/7MtubyLpXgJAwBrM6U+kOyZDR/Wlwzyd+k/ty25st6FIMTMwSwGlPqD8eS0fxp9empP7eteUeSf9GjGByEIYByU+oPxZLR/JnjSak/u635lS6V4JAMAZSZUn8Ylozmzxw3yJirf+/boxgcnCGAxU2pPwRLRvNnrs9L/fltzRtz1FgYgyGAxUyp//CXjObPSfxO6s9wa36qSyXoyRBAd1PqP/Qlo/lzEqOu/v2UHsWgO0MA3Uyp/7CXzPOTXPcQhWO3ptSf49a8Jlb/jswQwMFNqf+Ql4zmzyGMuPr327pUgiUZAjiYKfUf7pLR/DmEj039WZ6Tf9+jGCzOEMCJTan/UJeM5s+h/Ejqz3NrXtylElQxBDDblPoPc8lo/hzKqKt/v7RHMShlCKDZlPoPcclo/hzSZ6T+TLfm7bH6d6sMARzblPoPb8lo/hzak1N/rlvzy10qwVoYAjivKfUf2pLR/Dm0UVf/3qdHMVgVQwBnNaX+w1oymj89fH7qz3Zr3pDk/XoUg9UxBPBeptR/SEtG86eX3039+W7NT3apBGtlCOBdptR/OEtG86eXf5UxV/9+co9isGqGADR/OKBvTP0Zb43Vv/tlCNixKfUfxpLR/Onpaklemfpz3ppv7VEMhmEI2KEp9R/CktH86e3jUn/O58TqXwwBOzKlvvhLRvNnCY9O/VlvzYu6VIIRGQJ2YEp90ZeM5s8SRl39+yU9isGwDAEbNqW+2EtG82cpn5n6894aq385E0PABk2pL/KS+Z1o/iznKak/8615epdKsAWGgA2ZUl/cJaP5s6QbJHlr6s99a+7doxhshiFgA6bUF3XJaP4s7QtSf+5bY/Uvx2EIGNiU+mIuGc2fCr+X+rPfmp/oUgm2yBAwoCn1RVwymj8VRl39+0kdasF2GQIGMqW+eEtG86fKN6X+/Lfmfye5oEcx2DRDwACm1BdtyWj+VLlakv+Z+negNd/SoxjsgiFgxabUF2vJaP5U+vjUvwNz8pE9isFuGAJWaEp9kZaM5k+1H039e9Ca3+9SCfbGELAiU+qLs2Q0f6q9T5L/m/p3oTVf3KMY7JIhYAWm1BdlyWj+rMFnpf5daM3bk7x/j2KwW4aAQlPqi7FkNH/W4qmpfx9a87QulWDvDAEFptQXYclo/qzFDTPm6t/P6VEMiCFgUdMxHm5L0fxZky9M/TvRmjcked8exYB3MgQsYDrAQ48UzZ+1eUHq34vW/HiXSsB7MgR0NC3wj1lTNH/W5sMz5urfT+xRDDgDQ0AH0wr+kUtG82eN/lPq343WWP3L0gwBBzSt4B+3ZDR/1mjU1b/f3KMYcB6GgAOYVvCPWjKaP2v1Cal/P+bk3/QoBhyDIeAEphX8Y5aM5s+a/Vjq35HWvLBLJeD4DAEzTCv4RywZzZ81G3X17xf1KAY0MgQ0mFbw8EtG82ftPjv170lrrP5lTQwBxzCt4KGXjObPCH4p9e9Ka36pSyVgPkPAOUwreNglo/kzgn+W5G2pf19a89k9igEnZAg4g2kFD7lkNH9G8UWpf19aY/Uva2YIuIppBQ+3ZDR/RvLC1L8zrfmxLpWAwzEERPOHNfvw1L8zc/IJPYoBB7brIWBawcMsGc2f0Xxz6t+b1rw6Vv8yjl0OARckecshqjeQaya5evVDwDFdLcn9qh9ihsfl6H9YBCO4eo56w568q/d/VeqnkSXzoiQXnbB4sIRPTP37MidW/zKK6yb53dS/M0vmstOLYAiA9fnx1L8rrXlBl0rA4Wn+V2EIgPUYdfXvF/YoBhyY5n8GhgBYh89J/fvRGqt/GYHmfw6GAKj3tNS/G615apdKwOFo/sdgCIA6o67+/awexYAD0fwbGAKgxhen/n1ozd/F6l/WS/OfwRAAy/v91L8LrfnRLpWAk9P8T8AQAMv5iNS/A3Py8T2KASek+R+AIQCW8S2pP/+teXWOthbCmmj+B2QIgL6uluRVqT/7rfmmHsWAE9D8OzAEQD+flPozPyf/ukMtYC7NvyNDAPTxE6k/7635vS6VgHk0/wUYAuCwRl39+wU9igEzaP4LMgTA4dw79We8NW9L8k97FAMaaf4FDAFwGE9P/fluzVO6VALaaP6FDAFwMv88Y67+/cwexYAGmv8KGAJgvi9J/ZlujdW/VNP8V8QQAPO8KPXnuTWP7lIJOB7Nf4UMAdDm36b+HM/Jx/UoBhyD5r9ihgA4vm9N/Rluzati9S81NP8BGALg/EZd/fuNPYoB56H5D8QQAOf2yak/t3Ni9S9L0/wHZAiAs/vJ1J/Z1vxul0rA2Wn+AzMEwHt7nxz9p3TV57U1n9+jGHAWmv8GGALgPd0n9ee0NVb/siTNf0MMAfBuv5z6M9qaJ3epBLw3zX+DDAFwtPr37ak/n635jB7FgNNo/htmCGDvvjT157I1f5vkn/QoBlyF5r8DhgD27MWpP5Ot+ZEulYB30/x3xBDAHo26+vdjexQD3knz3yFDAHvzbak/h615Vaz+pR/Nf8cMAezFBUn+T+rPYGumDrWARPMnhgD24VNSf/bm5CN6FIPd0/x5F0MAW/dTqT93rfmdLpVg7zR/3oshgK1634y5+vfzehSDXdP8OStDAFt039Sftda8NVb/cliaP+dlCGBrfiX156w1T+pSCfZK8+fYDAFsxairfz+9RzHYJc2fZoYAtuDLUn+2WmP1L4ei+TObIYDRXZ76c9WaH+5SCfZG8+fEDAGM6t+l/jzNycf0KAa7ovlzMIYARvTtqT9LrXllrP7lZDR/Ds4QwEhGXf3ri4yT0PzpxhDAKD419ednTqz+ZS7Nn+4MAYzgp1N/dlrz/B6FYBc0fxZjCGDN3i/J36f+3LTmc3sUg83T/FmcIYC1ul/qz0tr3prkhj2KwaZp/pQxBLBGv5r6s9KaX+xSCbZM86ecIYA1ef+Mufr3Xj2KwWZp/qyGIYC1eGTqz0drXh+rfzk+zZ/VMQSwBi9J/dlozQ91qQRbpPmzWoYAKo26+vejexSDzdH8WT1DAFW+I/XnoTV/Gqt/OT/Nn2EYAljaBUn+LPVnoTXf0KMYbIrmz3AMASzp01J/Bubkw3sUg83Q/BmWIYClPCb1n39rntelEmyF5s/wDAH0Nurq30f0KAaboPmzGYYAero49Z95a6z+5Ww0fzbHEEAvz0j9592aX+hSCUan+bNZhgAObdTVv/fsUQyGpvmzeYYADulRqf+MW2P1L6fT/NkNQwCH8tLUf76t+cEulWBUmj+7YwjgpD4y9Z/rnNyuRzEYkubPbhkCOInvTP1n2hqrfzlF82f3DAHMMerq36/vUQyGo/nDOxkCaHX71H+OrbkyyYf1KAZD0fzhNIYAWjw29Z9ha57bpRKMRPOHszAEcBzXSvLG1H9+rXl4j2IwDM0fzsMQwPlckvrPrTVW/+6b5g/HZAjgXJ6Z+s+sNT/fpRKMQPOHRoYAzuQDk7wj9Z9Xa+7RoxisnuYPMxkCON2Xp/5zas3rk1yzRzFYNc0fTsgQwFX9Qeo/o9b8QJdKsGaaPxyIIYBk3NW/t+1RDFZL84cDMwTwXan/XFrzJ7H6d080f+jEELBfFyR5Teo/k9Z8XY9isEqaP3RmCNinO6T+s2iN1b/7ofnDQgwB+/O41H8OrfntLpVgbTR/WJghYD9GXf37sB7FYFU0fyhiCNiHS1Nf+9a8Jcn1exSD1dD8oZghYPt+LfV1b83PdakEa6H5w0oYArZr1NW/d+9RDFZB84eVMQRs01ekvtat+ZtY/btVmj+slCFge0Zc/fv9XSpBNc0fVs4QsB03TX195+Q2PYpBKc0fBmEI2IbvTn1tW2P17/Zo/jAYQ8DYRl39+7U9ikEZzR8GZQgY1x1TX8/WXJnkQ3sUgxKaPwxuSv1LtWQefZCq1Rtx9e9vdakEVR6d+jO1ZKaDVA1WZi83AZcnucGBalZp1NW/D+1RDMpcL8kLUn+ulshlB6oZrNLWh4CtNP8kuX/q69kaq3+3aQ9DwGUHqxas2FaHgC01/yR5Vupr2pqf7VIJ1mDLQ8BlB6wTrN7WhoCtNf9RV//erUcxWI0tDgGXHbRCMIitDAFba/5J8pWpr2trXpfkGj2KwapsaQi47MC1gaGMPgRssfknyR+mvrat+b4ulWCNtjAEXHbwqsCARh0Cttr8b5b62s7JrXsUg9UaeQi4rEM9YFijDQFbbf5J8j2pr29r/rhLJVi7EYeAy7pUAgY3yhCw5eZ/9SR/mfoat+ZrehSDIYw0BGj+cA5rHwK23PyT5E6pr3FrrP5lhCFA84djWOsQsPXmnySPT32dW/OcHoVgOGseAjR/aLC2IWAPzX/U1b8P6VEMhrTGIUDzhxnWMgTsofknyQNSX+vWWP3L6dY0BGj+cALVQ8Bemn+SPDv1X5it+ZkulWB0axgCNH84gKohYE/N/0YZc/XvXXsUg02oHAI0fzigpYeAy5PccJF/2TpU37TMidW/nM/1s/wQoPlDB0s1qb01/2TM1b/f26USbM2SQ4DmDx31HgL22PxvnvpmPie36lEMNmmJIUDzhwX0GgL22PyT5D+nvpm35uVdKsGW9RwCNH9Y0KGHgL02/wsz5urf/9ijGGxejyFA84cChxoC9tr8k+TOqW/mrbkyyU061IJ9OOQQoPlDoZMOAXtu/knyhNQ39Nb8ZpdKsCeHGAI0f1iBuUPA3pv/dZK8OfUNvTUP7lEMduckQ4DmDyvSOgTsvfknyQNT38xbY/UvhzRnCND8YYWOOwRo/kd+PfUNvTVP7FIJ9qxlCND8YcXONwRo/kdGXf17lx7FYPeOMwRo/jCAsw0Bmv+7fXXqm3lrXhurf+nnXEOA5g8DOX0I0Pzf039PfUNvzX/tUgl4tzMNAZo/DOjUEKD5v6dbpL6Zz8ktexQDTnPVIUDzh4E9PMlF1Q+xMv8l9c28NVb/sqSLcvTdAbAZo67+/eoexQCAvbhL6pt5a6z+BQ7uguoHgIVdWv0AMzwnyauLnwEAhnXdjLn690E9igEAe/Gg1Dfz1rwlyfV6FAPYN78CYE9GvP5/cpI3VD8EAIzqRkmuSP1P9K25c49iALgBYC/un/HO++uSPKv6IYBtGu0LEea6X/UDzPCEHP0PiwCAGW6Z+qv8OblFj2IAJG4A2IcR//jv5Tn6fzgAdGEAYOsuTHKf6oeY4bHVDwAAI7tr6q/yW3NFkg/uUQyAU9wAsHUjXv8/J8mfVT8EAIxq1NW/D+xQCwDYjQenvpm35h9i9S+wAL8CYMtGvP63+hcATuBDMubq3zv1KAbA6dwAsFWXZLzz/bokz65+CGAfRvuChOMacfXv42P1LwDMdqvUX+XPyc17FAPgTNwAsEUj/vHfy5O8pPohgP0wALA1Fya5d/VDzPCY6gcAgJHdLfVX+a2x+hdYnBsAtmbE6//fjNW/ADDbdXO0Sa/6J/rWPKBHMQBgLx6S+mbemjcnuU6PYgCci18BsCUjXv8/Ockbqx8CAEZ144y5+veOPYoBcD5uANiKEVf/vjbJr1c/BLBPo31hwtlcUv0AM1j9CwAncOvUX+XPyc16FAPgONwAsAUj/vHfy5K8tPohgP0yADC6C5N8TvVDzGD1LwCcwN1Tf5XfmiuSfFCPYgAclxsARjfi9f9vJHlN9UMAwKhGXf17/x7FAIC9eGjqm3lrrP4FVsGvABjZiNf/T4rVvwAw242TXJn6n+hbc4cexQBo5QaAUV2a5GrVD9HoL2P1L7ASBgBGdXH1A8zwhBz9J4AAwAy3Sf1V/pzctEcxAOZwA8CIRvzjv5cl+YPqhwCAUV0jyV+n/qf51nx5j2IAwF7cI/XNvDVW/wKr41cAjGbE6/9fj9W/ADDb9TLm6t8RhxYAWI2Hpb6Zt+ZNSa7doxgAJ+FXAIxkxJ+kn5SjIQAAmOHGGXP17+17FAPgpNwAMIr7Z7zVv3+R5DeqHwLgTAwAjMLqXwDYmdum/ip/Tj6qRzEADsENACMY8Y///ijJH1Y/BACMatTVv4/qUQwA2It7pr6Zt+aKJDfqUQyAQ/ErANZuxOv/Zyf58+qHAIBRjbr695IexQCAvXh46pt5a6z+BYbgVwCs2YjX/78Yq38BYLabZMzVv5/WoRYAB+cGgLUadfXvb1Y/BMBxGABYq/tVP8AMj4/VvwAw2+1Sf5U/J1b/AsNwA8AajfjHfy+N1b8AMNs1M+bq30f2KAYA7MW9Ut/MW2P1LzAcvwJgbUa8/n9WrP4FgNkuSvKPqf+JvjUX9ygGAOzFI1LfzFtj9S8AAAAAAAAAAAAAAAAAAAAAAAAAAAAAAAAAAAAAAAAAAAAAAAAAAAAAAAAAAAAAAAAAAAAAAAAAAAAAAAAAAAAAAAAAAAAAAAAAAAAAAAAAAAAAAAAAAAAAAAAAAAAAAAAAAAAAAAAAAAAAAAAAAAAAAAAAAAAAAAAAAAAAAAAAsGv/H8beCx8s0IfFAAAAAElFTkSuQmCC;" vertex="1" parent="1">
          <mxGeometry x="706" y="202" width="22" height="22" as="geometry" />
        </mxCell>
        <mxCell id="9FvEI9ZuZgGLkIwgtBzl-20" value="Training pipeline" style="text;html=1;align=center;verticalAlign=middle;resizable=0;points=[];autosize=1;strokeColor=none;fillColor=none;" vertex="1" parent="1">
          <mxGeometry x="705" y="218" width="110" height="30" as="geometry" />
        </mxCell>
        <mxCell id="9FvEI9ZuZgGLkIwgtBzl-21" value="" style="rounded=0;whiteSpace=wrap;html=1;" vertex="1" parent="1">
          <mxGeometry x="870" y="200" width="120" height="60" as="geometry" />
        </mxCell>
        <mxCell id="9FvEI9ZuZgGLkIwgtBzl-22" value="" style="shape=image;verticalLabelPosition=bottom;labelBackgroundColor=default;verticalAlign=top;aspect=fixed;imageAspect=0;image=data:image/png,iVBORw0KGgoAAAANSUhEUgAAAgAAAAIACAYAAAD0eNT6AAAABHNCSVQICAgIfAhkiAAAAAlwSFlzAAAOxAAADsQBlSsOGwAAABl0RVh0U29mdHdhcmUAd3d3Lmlua3NjYXBlLm9yZ5vuPBoAAB5wSURBVHic7d13vHZZVR/wH8NAVOpAEqOooImmmEgv9kqvVsrM0Iu9gC22ORp7SWIXOxDAShFUEFQUUEEY0AhEJYFELKAYERApM8kflxeGl7fcfe6zzzr7nO/38/n9f9717POsdfe9syYBAAAAAAAAAAAAAAAAAAAAAAAAAAAAAAAAAAAAAAAAAAAAAAAAAAAAAAAAAAAAAAAAAAAAAAAAAAAAAAAAAAAAAAAAAAAAAAAAAAAAAAAAAAAAAAAAAAAAAAAAAAAAAAAAAAAAAAAAAAAAAAAAAAAAAAAAAAAAAAAAAAAAAAAAANivayX5+yT/b7A8okcxAGAvLkl9M2/NW5PcsEcxYI4Lqh8AYIZLqx9ghqcleX31QwDAqD4gyTtS/xN9a+7ZoxgwlxsAYDT3S3L16odo9LdJnlH9EHBVBgBgNCNe/z8xR38DAADM8JGpv8qfk9v2KAachBsAYCQPrH6AGV6Z5IXVDwGnMwAAo7ggyX2qH2KGx+boFgAAmOH2qb/Kb82VST6sRzHgpNwAAKMY8Y//npfkf1U/BACM6lpJ3pj6n+hb87AexQCAvbg09c28NW9Jcv0exYBD8CsAYAQjXv8/PcnfVT8EAIzqAzPm6t979CgGHIobAGDtrP6FDgwAwNqNeP3/hCRvq34IABjVTVN/lT8nt+lRDDgkNwDAmo340/+fJvn96oeA8zEAAGtl9S8A7NAdUn+V3xqrfxmGGwBgrUa8/n9urP4FgNlGXf370B7FAIC9uH/qm3lrrP5lKH4FAKzRiNf/T4vVvwAw26irf+/eoxjQixsAYG0uznirf1+f5JnVDwEtDADA2lxS/QAzWP0LACdws9Rf5c/JrXsUA3pyAwCsyYh//Gf1L0MyAABrcUGSe1c/xAyPqX4AABjZHVN/ld+aK5N8aI9iQG9uAIC1GPH6/7eTvKr6IQBgVKOu/n1Ij2IAwF48IPXNvDVW/zI0vwIA1mDE6/9fitW/ADDbqKt/79ajGLAUNwBAtUsy3urfv47VvwzOAABUG3H17xOTvL36IQBgVDdP/VX+nNyqRzFgSW4AgEoj/vHfnyR5UfVDwEkZAIAqV09y3+qHmMHqXwA4gTul/iq/NVb/shluAIAqI17//1as/gWA2a6d5E2p/4m+NQ/uUQwA2IsHpr6Zt8bqXzbFrwCACiNe/z81Vv8CwGw3ypirf+/aoxhQxQ0AsLRRV//+WvVDwCEZAIClXVz9ADM8IVb/AsBst0j9Vf6c3LJHMaCSGwBgSSP+8d8rkry4+iHg0AwAwFIuTHKf6oeY4XHVDwAAI7tz6q/yW3Nlkpt0qAWUcwMALGXE6//nJHl18TMAwLCum+TNqf+JvjUP6lEMANiLB6W+mbfmLUmu16MYsAZ+BQAsYcTr/6ckeUP1QwDAqEZd/XuXHsWAtXADAPR2acZb/fu6JM+qfgjoyQAA9Gb1LwDszC1Tf5U/J7foUQxYEzcAQE8j/vHfK5JcXv0Q0JsBAOjlwiT3rn6IGR5b/QAAMLK7pP4qvzVXJPngHsWAtXEDAPQy4vX/c5L8WfVDAMCoRl39+8AOtQCA3Xhw6pt5a/4hVv+yI34FAPQw4vW/1b8AcAIfkqM/pqv+ib41d+5RDFgrNwDAoV2c8b5brP5ld0Z7SWn38CQXVT8EuzLi9f8TcvQ/LOLIRTn67gAGNeXoavMlSW5Y+yjsxK1Sf5U/JzfvUYxBXT/JC3NUl28vfhZghinv+QVnCGAJ35v6Zt6al3WpxJiu2vxPxRAAA5ly5i+6y2MIoJ8Lk/xV6ht6a76qRzEGdKbmbwiAgUw595edIYBe7pr6Zt4aq3+PnKv5GwJgAFOO96VnCKCHn0l9Q2/Ns7tUYizHaf6GAFixKW1ffIYADum6OdqkV93QW/OAHsUYSEvzNwTACk2Z9+V3eZIbLP+4bNBDUt/MW7P31b9zmr8hAFZkysm+BA0BHMJzUt/QW/P4HoUYxEmavyEAVmDKYb4IDQGcxKirf+/UoxgDOETzNwRAoSmH/TI0BDDX16S+mbfmtTn6zxb35pDN3xAABab0+VI0BDDHH6W+obfme7pUYt16NH9DACxoSt8vRkMALW6d+mY+JzfrUYwV69n8DQGwgCnLfDkaAjiu70t9M2/N3lb/LtH8DQHQ0ZRlvyQNAZzPqKt/v7JHMVZqyeZvCIAOptR8URoCOJe7pb6Zt2ZPq38rmr8hAA5oSu0XpiGAs/nZ1Df01jyrSyXW5/pJXpDaWhsC4ASm1H9hGgI4k1FX/96/RzFWZg3N3xAAJzCl/uW9al4cQwDv9tDUn8nWvDnJdXoUY0XW1PwNATDDlPqX1hDAufxW6s9ja/5bl0qsxxqbvyEAGkypf1kNAZzLjTPm6t879ijGSqy5+RsC4Bim1L+khgDO52tTfwZb81fZ7urfEZq/IQDOYUr9y2kI4Dhekfrz15rv7lKJeiM1/1MxBMBVTKl/KefEELA/t0n9uZuTm/YoRrERm/+pGAIg4zb/UzEE7Mv3p/7MteaPulSi1sjN/1QMAezalPqX8BAxBOzDqKt/v6JHMQptofmfiiGAXZpS//IdMoaA7bt76s9Za65I8kE9ilFkS83/VAwB7MqU+peuRwwB2/ZzqT9jrfm1LpWoscXmfyqGAHZhSv3L1jOGgG26XsZc/Xtpj2IU2HLzPxVDAJs2pf4lWyKGgO15WOrPVWvelOTaPYqxsD00/1MxBLBJU+pfriXzAwepGmsx4urfx3WpxPIenfpaLpnpIFWDlZhS/1Itmedl+//TlT25cZIrU3+uWnOHHsUocK2MOYCdJG4C2IQp9S/TktH8t+frUn+uWvMXSa7eoxhFDAEwmCn1L9GS0fy3acTVv9/VpRK1DAEwiCn1L8+S0fy36bapP1tz8lE9irEChgBYuSn1L82S0fy36wdSf75as8XVv1dlCICVmlL/siwZzX+7rpHkr1N/xlrz5T2KsTKGAFiZKfUvyZLR/LftHqk/Y63Z2urfczEEwEpMqX85lozmv30/n/pz1ppndqnEehkCoNiU+pdiyTw/mv/Wjbr695IexVg5QwAUmVL/MiwZzX8fHp76s9aaraz+ncMQAAubUv8SLBnNfz+em/rz1prHdqnEOAwBsJAp9Yd/yWj++3HjjLn69/Y9ijEYQwB0NqX+0C8ZzX9fvj71Z641f55trf49CUMAdDKl/rAvGc1/f/5H6s9da76zSyXGZQiAA5tSf8iXjOa/P7dL/bmbk62u/j0JQwAcyJT6w71kNP99+sHUn73WvLRLJbbBEAAnNKX+UC8ZzX+fRl39+6gexdgQQwDMNKX+MC8ZzX+/7pn689eaK5LcqEcxNsYQAI2m1B/iJaP579svpP4MtuYZXSqxTYYAOKYp9Yd3yWj++3ZRkn9M/TlszcU9irFhhgA4jyn1h3bJaP48IvXnsDV7Xv17EoYAOIsp9Yd1yWj+JEf/d8fqs9iax3SpxD4YAuA0U+oP6ZLR/EmSm2TM1b+f1qEWe2IIgHeaUn84l4zmzynfkPrz2Bqrfw/DEMDuTak/lEtG8+eqRlz9+x1dKrFPhgB2a0r9YVwymj9X9dGpP5Nz8h96FGPHDAHszpT6Q7hkNH9O90OpP5eteUmXSmAIYDem1B++JaP5c7prZszVv4/sUQySGALYgSn1h27JaP6cyb1SfzZb844kH9CjGLyLIYDNmlJ/2JaM5s/Z/GLqz2drfrVLJTidIYDNmVJ/yJaM5s/ZjLr69349isEZGQLYjCn1h2vJaP6cy+em/oy2xurf5RkCGN6U+kO1ZDR/zuf5qT+nrfnpHoXgvAwBDGtK/WFaMpo/5/MvM+bq30/tUQyOxRDAcKbUH6Ilo/lzHJel/qy2xurfeoYAhjGl/vAsGc2f4/rj1J9XX8RjMgSwelPqD82S0fw5ro9J/XmdE6t/18MQwGpNqT8sS0bzp8UPp/7MtubyLpXgJAwBrM6U+kOyZDR/Wlwzyd+k/ty25st6FIMTMwSwGlPqD8eS0fxp9empP7eteUeSf9GjGByEIYByU+oPxZLR/JnjSak/u635lS6V4JAMAZSZUn8Ylozmzxw3yJirf+/boxgcnCGAxU2pPwRLRvNnrs9L/fltzRtz1FgYgyGAxUyp//CXjObPSfxO6s9wa36qSyXoyRBAd1PqP/Qlo/lzEqOu/v2UHsWgO0MA3Uyp/7CXzPOTXPcQhWO3ptSf49a8Jlb/jswQwMFNqf+Ql4zmzyGMuPr327pUgiUZAjiYKfUf7pLR/DmEj039WZ6Tf9+jGCzOEMCJTan/UJeM5s+h/Ejqz3NrXtylElQxBDDblPoPc8lo/hzKqKt/v7RHMShlCKDZlPoPcclo/hzSZ6T+TLfm7bH6d6sMARzblPoPb8lo/hzak1N/rlvzy10qwVoYAjivKfUf2pLR/Dm0UVf/3qdHMVgVQwBnNaX+w1oymj89fH7qz3Zr3pDk/XoUg9UxBPBeptR/SEtG86eX3039+W7NT3apBGtlCOBdptR/OEtG86eXf5UxV/9+co9isGqGADR/OKBvTP0Zb43Vv/tlCNixKfUfxpLR/Onpaklemfpz3ppv7VEMhmEI2KEp9R/CktH86e3jUn/O58TqXwwBOzKlvvhLRvNnCY9O/VlvzYu6VIIRGQJ2YEp90ZeM5s8SRl39+yU9isGwDAEbNqW+2EtG82cpn5n6894aq385E0PABk2pL/KS+Z1o/iznKak/8615epdKsAWGgA2ZUl/cJaP5s6QbJHlr6s99a+7doxhshiFgA6bUF3XJaP4s7QtSf+5bY/Uvx2EIGNiU+mIuGc2fCr+X+rPfmp/oUgm2yBAwoCn1RVwymj8VRl39+0kdasF2GQIGMqW+eEtG86fKN6X+/Lfmfye5oEcx2DRDwACm1BdtyWj+VLlakv+Z+negNd/SoxjsgiFgxabUF2vJaP5U+vjUvwNz8pE9isFuGAJWaEp9kZaM5k+1H039e9Ca3+9SCfbGELAiU+qLs2Q0f6q9T5L/m/p3oTVf3KMY7JIhYAWm1BdlyWj+rMFnpf5daM3bk7x/j2KwW4aAQlPqi7FkNH/W4qmpfx9a87QulWDvDAEFptQXYclo/qzFDTPm6t/P6VEMiCFgUdMxHm5L0fxZky9M/TvRmjcked8exYB3MgQsYDrAQ48UzZ+1eUHq34vW/HiXSsB7MgR0NC3wj1lTNH/W5sMz5urfT+xRDDgDQ0AH0wr+kUtG82eN/lPq343WWP3L0gwBBzSt4B+3ZDR/1mjU1b/f3KMYcB6GgAOYVvCPWjKaP2v1Cal/P+bk3/QoBhyDIeAEphX8Y5aM5s+a/Vjq35HWvLBLJeD4DAEzTCv4RywZzZ81G3X17xf1KAY0MgQ0mFbw8EtG82ftPjv170lrrP5lTQwBxzCt4KGXjObPCH4p9e9Ka36pSyVgPkPAOUwreNglo/kzgn+W5G2pf19a89k9igEnZAg4g2kFD7lkNH9G8UWpf19aY/Uva2YIuIppBQ+3ZDR/RvLC1L8zrfmxLpWAwzEERPOHNfvw1L8zc/IJPYoBB7brIWBawcMsGc2f0Xxz6t+b1rw6Vv8yjl0OARckecshqjeQaya5evVDwDFdLcn9qh9ihsfl6H9YBCO4eo56w568q/d/VeqnkSXzoiQXnbB4sIRPTP37MidW/zKK6yb53dS/M0vmstOLYAiA9fnx1L8rrXlBl0rA4Wn+V2EIgPUYdfXvF/YoBhyY5n8GhgBYh89J/fvRGqt/GYHmfw6GAKj3tNS/G615apdKwOFo/sdgCIA6o67+/awexYAD0fwbGAKgxhen/n1ozd/F6l/WS/OfwRAAy/v91L8LrfnRLpWAk9P8T8AQAMv5iNS/A3Py8T2KASek+R+AIQCW8S2pP/+teXWOthbCmmj+B2QIgL6uluRVqT/7rfmmHsWAE9D8OzAEQD+flPozPyf/ukMtYC7NvyNDAPTxE6k/7635vS6VgHk0/wUYAuCwRl39+wU9igEzaP4LMgTA4dw79We8NW9L8k97FAMaaf4FDAFwGE9P/fluzVO6VALaaP6FDAFwMv88Y67+/cwexYAGmv8KGAJgvi9J/ZlujdW/VNP8V8QQAPO8KPXnuTWP7lIJOB7Nf4UMAdDm36b+HM/Jx/UoBhyD5r9ihgA4vm9N/Rluzati9S81NP8BGALg/EZd/fuNPYoB56H5D8QQAOf2yak/t3Ni9S9L0/wHZAiAs/vJ1J/Z1vxul0rA2Wn+AzMEwHt7nxz9p3TV57U1n9+jGHAWmv8GGALgPd0n9ee0NVb/siTNf0MMAfBuv5z6M9qaJ3epBLw3zX+DDAFwtPr37ak/n635jB7FgNNo/htmCGDvvjT157I1f5vkn/QoBlyF5r8DhgD27MWpP5Ot+ZEulYB30/x3xBDAHo26+vdjexQD3knz3yFDAHvzbak/h615Vaz+pR/Nf8cMAezFBUn+T+rPYGumDrWARPMnhgD24VNSf/bm5CN6FIPd0/x5F0MAW/dTqT93rfmdLpVg7zR/3oshgK1634y5+vfzehSDXdP8OStDAFt039Sftda8NVb/cliaP+dlCGBrfiX156w1T+pSCfZK8+fYDAFsxairfz+9RzHYJc2fZoYAtuDLUn+2WmP1L4ei+TObIYDRXZ76c9WaH+5SCfZG8+fEDAGM6t+l/jzNycf0KAa7ovlzMIYARvTtqT9LrXllrP7lZDR/Ds4QwEhGXf3ri4yT0PzpxhDAKD419ednTqz+ZS7Nn+4MAYzgp1N/dlrz/B6FYBc0fxZjCGDN3i/J36f+3LTmc3sUg83T/FmcIYC1ul/qz0tr3prkhj2KwaZp/pQxBLBGv5r6s9KaX+xSCbZM86ecIYA1ef+Mufr3Xj2KwWZp/qyGIYC1eGTqz0drXh+rfzk+zZ/VMQSwBi9J/dlozQ91qQRbpPmzWoYAKo26+vejexSDzdH8WT1DAFW+I/XnoTV/Gqt/OT/Nn2EYAljaBUn+LPVnoTXf0KMYbIrmz3AMASzp01J/Bubkw3sUg83Q/BmWIYClPCb1n39rntelEmyF5s/wDAH0Nurq30f0KAaboPmzGYYAero49Z95a6z+5Ww0fzbHEEAvz0j9592aX+hSCUan+bNZhgAObdTVv/fsUQyGpvmzeYYADulRqf+MW2P1L6fT/NkNQwCH8tLUf76t+cEulWBUmj+7YwjgpD4y9Z/rnNyuRzEYkubPbhkCOInvTP1n2hqrfzlF82f3DAHMMerq36/vUQyGo/nDOxkCaHX71H+OrbkyyYf1KAZD0fzhNIYAWjw29Z9ha57bpRKMRPOHszAEcBzXSvLG1H9+rXl4j2IwDM0fzsMQwPlckvrPrTVW/+6b5g/HZAjgXJ6Z+s+sNT/fpRKMQPOHRoYAzuQDk7wj9Z9Xa+7RoxisnuYPMxkCON2Xp/5zas3rk1yzRzFYNc0fTsgQwFX9Qeo/o9b8QJdKsGaaPxyIIYBk3NW/t+1RDFZL84cDMwTwXan/XFrzJ7H6d080f+jEELBfFyR5Teo/k9Z8XY9isEqaP3RmCNinO6T+s2iN1b/7ofnDQgwB+/O41H8OrfntLpVgbTR/WJghYD9GXf37sB7FYFU0fyhiCNiHS1Nf+9a8Jcn1exSD1dD8oZghYPt+LfV1b83PdakEa6H5w0oYArZr1NW/d+9RDFZB84eVMQRs01ekvtat+ZtY/btVmj+slCFge0Zc/fv9XSpBNc0fVs4QsB03TX195+Q2PYpBKc0fBmEI2IbvTn1tW2P17/Zo/jAYQ8DYRl39+7U9ikEZzR8GZQgY1x1TX8/WXJnkQ3sUgxKaPwxuSv1LtWQefZCq1Rtx9e9vdakEVR6d+jO1ZKaDVA1WZi83AZcnucGBalZp1NW/D+1RDMpcL8kLUn+ulshlB6oZrNLWh4CtNP8kuX/q69kaq3+3aQ9DwGUHqxas2FaHgC01/yR5Vupr2pqf7VIJ1mDLQ8BlB6wTrN7WhoCtNf9RV//erUcxWI0tDgGXHbRCMIitDAFba/5J8pWpr2trXpfkGj2KwapsaQi47MC1gaGMPgRssfknyR+mvrat+b4ulWCNtjAEXHbwqsCARh0Cttr8b5b62s7JrXsUg9UaeQi4rEM9YFijDQFbbf5J8j2pr29r/rhLJVi7EYeAy7pUAgY3yhCw5eZ/9SR/mfoat+ZrehSDIYw0BGj+cA5rHwK23PyT5E6pr3FrrP5lhCFA84djWOsQsPXmnySPT32dW/OcHoVgOGseAjR/aLC2IWAPzX/U1b8P6VEMhrTGIUDzhxnWMgTsofknyQNSX+vWWP3L6dY0BGj+cALVQ8Bemn+SPDv1X5it+ZkulWB0axgCNH84gKohYE/N/0YZc/XvXXsUg02oHAI0fzigpYeAy5PccJF/2TpU37TMidW/nM/1s/wQoPlDB0s1qb01/2TM1b/f26USbM2SQ4DmDx31HgL22PxvnvpmPie36lEMNmmJIUDzhwX0GgL22PyT5D+nvpm35uVdKsGW9RwCNH9Y0KGHgL02/wsz5urf/9ijGGxejyFA84cChxoC9tr8k+TOqW/mrbkyyU061IJ9OOQQoPlDoZMOAXtu/knyhNQ39Nb8ZpdKsCeHGAI0f1iBuUPA3pv/dZK8OfUNvTUP7lEMduckQ4DmDyvSOgTsvfknyQNT38xbY/UvhzRnCND8YYWOOwRo/kd+PfUNvTVP7FIJ9qxlCND8YcXONwRo/kdGXf17lx7FYPeOMwRo/jCAsw0Bmv+7fXXqm3lrXhurf+nnXEOA5g8DOX0I0Pzf039PfUNvzX/tUgl4tzMNAZo/DOjUEKD5v6dbpL6Zz8ktexQDTnPVIUDzh4E9PMlF1Q+xMv8l9c28NVb/sqSLcvTdAbAZo67+/eoexQCAvbhL6pt5a6z+BQ7uguoHgIVdWv0AMzwnyauLnwEAhnXdjLn690E9igEAe/Gg1Dfz1rwlyfV6FAPYN78CYE9GvP5/cpI3VD8EAIzqRkmuSP1P9K25c49iALgBYC/un/HO++uSPKv6IYBtGu0LEea6X/UDzPCEHP0PiwCAGW6Z+qv8OblFj2IAJG4A2IcR//jv5Tn6fzgAdGEAYOsuTHKf6oeY4bHVDwAAI7tr6q/yW3NFkg/uUQyAU9wAsHUjXv8/J8mfVT8EAIxq1NW/D+xQCwDYjQenvpm35h9i9S+wAL8CYMtGvP63+hcATuBDMubq3zv1KAbA6dwAsFWXZLzz/bokz65+CGAfRvuChOMacfXv42P1LwDMdqvUX+XPyc17FAPgTNwAsEUj/vHfy5O8pPohgP0wALA1Fya5d/VDzPCY6gcAgJHdLfVX+a2x+hdYnBsAtmbE6//fjNW/ADDbdXO0Sa/6J/rWPKBHMQBgLx6S+mbemjcnuU6PYgCci18BsCUjXv8/Ockbqx8CAEZ144y5+veOPYoBcD5uANiKEVf/vjbJr1c/BLBPo31hwtlcUv0AM1j9CwAncOvUX+XPyc16FAPgONwAsAUj/vHfy5K8tPohgP0yADC6C5N8TvVDzGD1LwCcwN1Tf5XfmiuSfFCPYgAclxsARjfi9f9vJHlN9UMAwKhGXf17/x7FAIC9eGjqm3lrrP4FVsGvABjZiNf/T4rVvwAw242TXJn6n+hbc4cexQBo5QaAUV2a5GrVD9HoL2P1L7ASBgBGdXH1A8zwhBz9J4AAwAy3Sf1V/pzctEcxAOZwA8CIRvzjv5cl+YPqhwCAUV0jyV+n/qf51nx5j2IAwF7cI/XNvDVW/wKr41cAjGbE6/9fj9W/ADDb9TLm6t8RhxYAWI2Hpb6Zt+ZNSa7doxgAJ+FXAIxkxJ+kn5SjIQAAmOHGGXP17+17FAPgpNwAMIr7Z7zVv3+R5DeqHwLgTAwAjMLqXwDYmdum/ip/Tj6qRzEADsENACMY8Y///ijJH1Y/BACMatTVv4/qUQwA2It7pr6Zt+aKJDfqUQyAQ/ErANZuxOv/Zyf58+qHAIBRjbr695IexQCAvXh46pt5a6z+BYbgVwCs2YjX/78Yq38BYLabZMzVv5/WoRYAB+cGgLUadfXvb1Y/BMBxGABYq/tVP8AMj4/VvwAw2+1Sf5U/J1b/AsNwA8AajfjHfy+N1b8AMNs1M+bq30f2KAYA7MW9Ut/MW2P1LzAcvwJgbUa8/n9WrP4FgNkuSvKPqf+JvjUX9ygGAOzFI1LfzFtj9S8AAAAAAAAAAAAAAAAAAAAAAAAAAAAAAAAAAAAAAAAAAAAAAAAAAAAAAAAAAAAAAAAAAAAAAAAAAAAAAAAAAAAAAAAAAAAAAAAAAAAAAAAAAAAAAAAAAAAAAAAAAAAAAAAAAAAAAAAAAAAAAAAAAAAAAAAAAAAAAAAAAAAAAAAAsGv/H8beCx8s0IfFAAAAAElFTkSuQmCC;" vertex="1" parent="1">
          <mxGeometry x="876" y="202" width="22" height="22" as="geometry" />
        </mxCell>
        <mxCell id="9FvEI9ZuZgGLkIwgtBzl-23" value="Inference pipeline" style="text;html=1;align=center;verticalAlign=middle;resizable=0;points=[];autosize=1;strokeColor=none;fillColor=none;" vertex="1" parent="1">
          <mxGeometry x="870" y="218" width="120" height="30" as="geometry" />
        </mxCell>
        <mxCell id="9FvEI9ZuZgGLkIwgtBzl-24" value="" style="group" vertex="1" connectable="0" parent="1">
          <mxGeometry x="357" y="175" width="14" height="14" as="geometry" />
        </mxCell>
        <mxCell id="9FvEI9ZuZgGLkIwgtBzl-25" value="" style="group;fontStyle=1;strokeWidth=0;perimeterSpacing=0;strokeColor=default;container=0;" vertex="1" connectable="0" parent="9FvEI9ZuZgGLkIwgtBzl-24">
          <mxGeometry x="2" width="11" height="14" as="geometry" />
        </mxCell>
        <mxCell id="9FvEI9ZuZgGLkIwgtBzl-26" value="" style="shape=step;perimeter=stepPerimeter;whiteSpace=wrap;html=1;fixedSize=1;strokeWidth=2;" vertex="1" parent="9FvEI9ZuZgGLkIwgtBzl-24">
          <mxGeometry x="3.432692307692321" width="3.807692307692308" height="14" as="geometry" />
        </mxCell>
        <mxCell id="9FvEI9ZuZgGLkIwgtBzl-27" value="" style="shape=step;perimeter=stepPerimeter;whiteSpace=wrap;html=1;fixedSize=1;strokeWidth=2;" vertex="1" parent="9FvEI9ZuZgGLkIwgtBzl-24">
          <mxGeometry x="6.865384615384642" width="3.807692307692308" height="14" as="geometry" />
        </mxCell>
        <mxCell id="9FvEI9ZuZgGLkIwgtBzl-28" value="" style="shape=step;perimeter=stepPerimeter;whiteSpace=wrap;html=1;fixedSize=1;strokeWidth=2;" vertex="1" parent="9FvEI9ZuZgGLkIwgtBzl-24">
          <mxGeometry x="10.19230769230768" width="3.807692307692308" height="14" as="geometry" />
        </mxCell>
        <mxCell id="9FvEI9ZuZgGLkIwgtBzl-29" value="" style="shape=step;perimeter=stepPerimeter;whiteSpace=wrap;html=1;fixedSize=1;strokeWidth=2;" vertex="1" parent="9FvEI9ZuZgGLkIwgtBzl-24">
          <mxGeometry width="3.807692307692308" height="14" as="geometry" />
        </mxCell>
        <mxCell id="9FvEI9ZuZgGLkIwgtBzl-30" value="" style="endArrow=classic;html=1;rounded=0;exitX=0.873;exitY=1.012;exitDx=0;exitDy=0;exitPerimeter=0;strokeColor=#FF9933;" edge="1" parent="1">
          <mxGeometry width="50" height="50" relative="1" as="geometry">
            <mxPoint x="790" y="260.72" as="sourcePoint" />
            <mxPoint x="790.24" y="310" as="targetPoint" />
          </mxGeometry>
        </mxCell>
        <mxCell id="9FvEI9ZuZgGLkIwgtBzl-31" value="model" style="text;html=1;align=center;verticalAlign=middle;resizable=0;points=[];autosize=1;strokeColor=none;fillColor=none;fontColor=#FF9933;" vertex="1" parent="1">
          <mxGeometry x="780" y="268" width="60" height="30" as="geometry" />
        </mxCell>
        <mxCell id="9FvEI9ZuZgGLkIwgtBzl-32" value="" style="endArrow=classic;html=1;rounded=0;strokeColor=#00CC00;" edge="1" parent="1">
          <mxGeometry width="50" height="50" relative="1" as="geometry">
            <mxPoint x="728" y="311" as="sourcePoint" />
            <mxPoint x="728" y="261" as="targetPoint" />
          </mxGeometry>
        </mxCell>
        <mxCell id="9FvEI9ZuZgGLkIwgtBzl-33" value="&lt;span style=&quot;text-align: left;&quot;&gt;features,&lt;/span&gt;" style="text;html=1;align=center;verticalAlign=middle;resizable=0;points=[];autosize=1;strokeColor=none;fillColor=none;fontColor=#00CC00;" vertex="1" parent="1">
          <mxGeometry x="837" y="266" width="70" height="30" as="geometry" />
        </mxCell>
        <mxCell id="9FvEI9ZuZgGLkIwgtBzl-34" value="" style="endArrow=classic;html=1;rounded=0;strokeColor=#00CC00;" edge="1" parent="1">
          <mxGeometry width="50" height="50" relative="1" as="geometry">
            <mxPoint x="900" y="310" as="sourcePoint" />
            <mxPoint x="900" y="260" as="targetPoint" />
          </mxGeometry>
        </mxCell>
        <mxCell id="9FvEI9ZuZgGLkIwgtBzl-35" value="" style="endArrow=classic;html=1;rounded=0;strokeColor=#FF9933;" edge="1" parent="1">
          <mxGeometry width="50" height="50" relative="1" as="geometry">
            <mxPoint x="910" y="310" as="sourcePoint" />
            <mxPoint x="910" y="260" as="targetPoint" />
          </mxGeometry>
        </mxCell>
        <mxCell id="9FvEI9ZuZgGLkIwgtBzl-36" value="" style="endArrow=classic;html=1;rounded=0;exitX=0.873;exitY=1.012;exitDx=0;exitDy=0;exitPerimeter=0;strokeColor=#666666;" edge="1" parent="1">
          <mxGeometry width="50" height="50" relative="1" as="geometry">
            <mxPoint x="950" y="259.72" as="sourcePoint" />
            <mxPoint x="950.24" y="309" as="targetPoint" />
          </mxGeometry>
        </mxCell>
        <mxCell id="9FvEI9ZuZgGLkIwgtBzl-37" value="logs" style="text;html=1;align=center;verticalAlign=middle;resizable=0;points=[];autosize=1;strokeColor=none;fillColor=none;fontColor=#666666;" vertex="1" parent="1">
          <mxGeometry x="945" y="266" width="50" height="30" as="geometry" />
        </mxCell>
        <mxCell id="9FvEI9ZuZgGLkIwgtBzl-38" value="" style="endArrow=classic;html=1;rounded=0;exitX=1;exitY=0.5;exitDx=0;exitDy=0;entryX=0;entryY=0.5;entryDx=0;entryDy=0;" edge="1" parent="1" source="9FvEI9ZuZgGLkIwgtBzl-21" target="9FvEI9ZuZgGLkIwgtBzl-7">
          <mxGeometry width="50" height="50" relative="1" as="geometry">
            <mxPoint x="990" y="320" as="sourcePoint" />
            <mxPoint x="1040" y="270" as="targetPoint" />
          </mxGeometry>
        </mxCell>
        <mxCell id="9FvEI9ZuZgGLkIwgtBzl-39" value="predictions" style="edgeLabel;html=1;align=center;verticalAlign=middle;resizable=0;points=[];labelBackgroundColor=none;" vertex="1" connectable="0" parent="9FvEI9ZuZgGLkIwgtBzl-38">
          <mxGeometry x="-0.2226" relative="1" as="geometry">
            <mxPoint x="5" y="-8" as="offset" />
          </mxGeometry>
        </mxCell>
        <mxCell id="9FvEI9ZuZgGLkIwgtBzl-40" value="&lt;i&gt;Hopsworks AI Data Platform&lt;/i&gt;" style="text;html=1;align=center;verticalAlign=middle;resizable=0;points=[];autosize=1;strokeColor=none;fillColor=none;" vertex="1" parent="1">
          <mxGeometry x="675" y="310" width="170" height="30" as="geometry" />
        </mxCell>
      </root>
    </mxGraphModel>
  </diagram>
  <diagram id="I7ZHfpTSbFvY88gpty2q" name="RQ1">
    <mxGraphModel dx="1050" dy="522" grid="1" gridSize="10" guides="1" tooltips="1" connect="1" arrows="1" fold="1" page="1" pageScale="1" pageWidth="827" pageHeight="1169" math="0" shadow="0">
      <root>
        <mxCell id="0" />
        <mxCell id="1" parent="0" />
        <mxCell id="AnA0vIVNNSfj2xfhvl83-11" value="" style="points=[[0.25,0,0],[0.5,0,0],[0.75,0,0],[1,0.25,0],[1,0.5,0],[1,0.75,0],[0.75,1,0],[0.5,1,0],[0.25,1,0],[0,0.75,0],[0,0.5,0],[0,0.25,0]];shape=mxgraph.bpmn.task;whiteSpace=wrap;rectStyle=rounded;size=10;html=1;container=1;expand=0;collapsible=0;taskMarker=abstract;isLoopStandard=1;" parent="1" vertex="1">
          <mxGeometry x="200" y="350" width="430" height="160" as="geometry" />
        </mxCell>
        <mxCell id="AnA0vIVNNSfj2xfhvl83-41" value="" style="points=[[0.145,0.145,0],[0.5,0,0],[0.855,0.145,0],[1,0.5,0],[0.855,0.855,0],[0.5,1,0],[0.145,0.855,0],[0,0.5,0]];shape=mxgraph.bpmn.event;html=1;verticalLabelPosition=bottom;labelBackgroundColor=#ffffff;verticalAlign=top;align=center;perimeter=ellipsePerimeter;outlineConnect=0;aspect=fixed;outline=end;symbol=terminate2;" parent="AnA0vIVNNSfj2xfhvl83-11" vertex="1">
          <mxGeometry x="355.74097035040427" y="100.43" width="27.07" height="27.07" as="geometry" />
        </mxCell>
        <mxCell id="AnA0vIVNNSfj2xfhvl83-36" value="Verify system integration (G4)" style="points=[[0.25,0,0],[0.5,0,0],[0.75,0,0],[1,0.25,0],[1,0.5,0],[1,0.75,0],[0.75,1,0],[0.5,1,0],[0.25,1,0],[0,0.75,0],[0,0.5,0],[0,0.25,0]];shape=mxgraph.bpmn.task;whiteSpace=wrap;rectStyle=rounded;size=10;html=1;container=1;expand=0;collapsible=0;taskMarker=abstract;" parent="AnA0vIVNNSfj2xfhvl83-11" vertex="1">
          <mxGeometry x="187.310781671159" y="94.27999999999997" width="125.62722371967654" height="39.38" as="geometry" />
        </mxCell>
        <mxCell id="AnA0vIVNNSfj2xfhvl83-42" style="edgeStyle=orthogonalEdgeStyle;rounded=0;orthogonalLoop=1;jettySize=auto;html=1;entryX=0;entryY=0.5;entryDx=0;entryDy=0;entryPerimeter=0;" parent="AnA0vIVNNSfj2xfhvl83-11" source="AnA0vIVNNSfj2xfhvl83-36" target="AnA0vIVNNSfj2xfhvl83-41" edge="1">
          <mxGeometry relative="1" as="geometry" />
        </mxCell>
        <mxCell id="kFDNbCBGzgOFqAX-q5Mj-1" value="Code software (G3)" style="points=[[0.25,0,0],[0.5,0,0],[0.75,0,0],[1,0.25,0],[1,0.5,0],[1,0.75,0],[0.75,1,0],[0.5,1,0],[0.25,1,0],[0,0.75,0],[0,0.5,0],[0,0.25,0]];shape=mxgraph.bpmn.task;whiteSpace=wrap;rectStyle=rounded;size=10;html=1;container=1;expand=0;collapsible=0;taskMarker=abstract;" parent="AnA0vIVNNSfj2xfhvl83-11" vertex="1">
          <mxGeometry x="319.9347619047619" y="17.208620689655184" width="92.96607142857142" height="39.85413793103449" as="geometry" />
        </mxCell>
        <mxCell id="AnA0vIVNNSfj2xfhvl83-33" value="Design&lt;div&gt;software (G3)&lt;/div&gt;" style="points=[[0.25,0,0],[0.5,0,0],[0.75,0,0],[1,0.25,0],[1,0.5,0],[1,0.75,0],[0.75,1,0],[0.5,1,0],[0.25,1,0],[0,0.75,0],[0,0.5,0],[0,0.25,0]];shape=mxgraph.bpmn.task;whiteSpace=wrap;rectStyle=rounded;size=10;html=1;container=1;expand=0;collapsible=0;taskMarker=abstract;" parent="AnA0vIVNNSfj2xfhvl83-11" vertex="1">
          <mxGeometry x="187.31" y="17.21" width="95.28" height="39.85" as="geometry" />
        </mxCell>
        <mxCell id="kFDNbCBGzgOFqAX-q5Mj-4" style="edgeStyle=orthogonalEdgeStyle;rounded=0;orthogonalLoop=1;jettySize=auto;html=1;exitX=1;exitY=0.5;exitDx=0;exitDy=0;exitPerimeter=0;entryX=0;entryY=0.5;entryDx=0;entryDy=0;entryPerimeter=0;" parent="AnA0vIVNNSfj2xfhvl83-11" source="AnA0vIVNNSfj2xfhvl83-33" target="kFDNbCBGzgOFqAX-q5Mj-1" edge="1">
          <mxGeometry relative="1" as="geometry" />
        </mxCell>
        <mxCell id="AnA0vIVNNSfj2xfhvl83-32" value="Analyse&amp;nbsp;&lt;div&gt;system (G1-G2)&lt;/div&gt;" style="points=[[0.25,0,0],[0.5,0,0],[0.75,0,0],[1,0.25,0],[1,0.5,0],[1,0.75,0],[0.75,1,0],[0.5,1,0],[0.25,1,0],[0,0.75,0],[0,0.5,0],[0,0.25,0]];shape=mxgraph.bpmn.task;whiteSpace=wrap;rectStyle=rounded;size=10;html=1;container=1;expand=0;collapsible=0;taskMarker=abstract;" parent="AnA0vIVNNSfj2xfhvl83-11" vertex="1">
          <mxGeometry x="60" y="17.45" width="98.7" height="39.38" as="geometry" />
        </mxCell>
        <mxCell id="AnA0vIVNNSfj2xfhvl83-34" value="" style="points=[[0.145,0.145,0],[0.5,0,0],[0.855,0.145,0],[1,0.5,0],[0.855,0.855,0],[0.5,1,0],[0.145,0.855,0],[0,0.5,0]];shape=mxgraph.bpmn.event;html=1;verticalLabelPosition=bottom;labelBackgroundColor=#ffffff;verticalAlign=top;align=center;perimeter=ellipsePerimeter;outlineConnect=0;aspect=fixed;outline=standard;symbol=general;" parent="AnA0vIVNNSfj2xfhvl83-11" vertex="1">
          <mxGeometry x="13.5" y="24.569999999999993" width="25.138928571428572" height="25.138928571428572" as="geometry" />
        </mxCell>
        <mxCell id="kFDNbCBGzgOFqAX-q5Mj-8" style="edgeStyle=orthogonalEdgeStyle;rounded=0;orthogonalLoop=1;jettySize=auto;html=1;entryX=0;entryY=0.5;entryDx=0;entryDy=0;entryPerimeter=0;" parent="AnA0vIVNNSfj2xfhvl83-11" source="AnA0vIVNNSfj2xfhvl83-34" target="AnA0vIVNNSfj2xfhvl83-32" edge="1">
          <mxGeometry relative="1" as="geometry" />
        </mxCell>
        <mxCell id="kFDNbCBGzgOFqAX-q5Mj-9" style="edgeStyle=orthogonalEdgeStyle;rounded=0;orthogonalLoop=1;jettySize=auto;html=1;entryX=0;entryY=0.5;entryDx=0;entryDy=0;entryPerimeter=0;" parent="AnA0vIVNNSfj2xfhvl83-11" source="AnA0vIVNNSfj2xfhvl83-32" target="AnA0vIVNNSfj2xfhvl83-33" edge="1">
          <mxGeometry relative="1" as="geometry" />
        </mxCell>
        <mxCell id="kFDNbCBGzgOFqAX-q5Mj-12" style="edgeStyle=orthogonalEdgeStyle;rounded=0;orthogonalLoop=1;jettySize=auto;html=1;" parent="1" source="AnA0vIVNNSfj2xfhvl83-11" target="AnA0vIVNNSfj2xfhvl83-45" edge="1">
          <mxGeometry relative="1" as="geometry" />
        </mxCell>
        <mxCell id="AnA0vIVNNSfj2xfhvl83-5" value="" style="points=[[0.145,0.145,0],[0.5,0,0],[0.855,0.145,0],[1,0.5,0],[0.855,0.855,0],[0.5,1,0],[0.145,0.855,0],[0,0.5,0]];shape=mxgraph.bpmn.event;html=1;verticalLabelPosition=bottom;labelBackgroundColor=#ffffff;verticalAlign=top;align=center;perimeter=ellipsePerimeter;outlineConnect=0;aspect=fixed;outline=standard;symbol=general;" parent="1" vertex="1">
          <mxGeometry x="210" y="290.01000000000005" width="40" height="40" as="geometry" />
        </mxCell>
        <mxCell id="AnA0vIVNNSfj2xfhvl83-8" value="Identify problems collaboratively (G1-G2)" style="points=[[0.25,0,0],[0.5,0,0],[0.75,0,0],[1,0.25,0],[1,0.5,0],[1,0.75,0],[0.75,1,0],[0.5,1,0],[0.25,1,0],[0,0.75,0],[0,0.5,0],[0,0.25,0]];shape=mxgraph.bpmn.task;whiteSpace=wrap;rectStyle=rounded;size=10;html=1;container=1;expand=0;collapsible=0;taskMarker=abstract;" parent="1" vertex="1">
          <mxGeometry x="350" y="291.16" width="250" height="37.69" as="geometry" />
        </mxCell>
        <mxCell id="AnA0vIVNNSfj2xfhvl83-15" value="" style="html=1;shape=mxgraph.flowchart.annotation_2;align=left;labelPosition=right;" parent="1" vertex="1">
          <mxGeometry x="434" y="518" width="20" height="40" as="geometry" />
        </mxCell>
        <mxCell id="AnA0vIVNNSfj2xfhvl83-16" value="Until system fulfils&amp;nbsp;&lt;div&gt;functional requirements&lt;/div&gt;" style="text;html=1;align=left;verticalAlign=middle;resizable=0;points=[];autosize=1;strokeColor=none;fillColor=none;" parent="1" vertex="1">
          <mxGeometry x="448" y="518" width="150" height="40" as="geometry" />
        </mxCell>
        <mxCell id="AnA0vIVNNSfj2xfhvl83-17" value="" style="shape=mxgraph.bpmn.data;labelPosition=center;verticalLabelPosition=bottom;align=center;verticalAlign=top;size=15;html=1;" parent="1" vertex="1">
          <mxGeometry x="285" y="530" width="33.33" height="40" as="geometry" />
        </mxCell>
        <mxCell id="AnA0vIVNNSfj2xfhvl83-18" value="&amp;nbsp;(D1) Code implementation" style="text;html=1;align=left;verticalAlign=middle;resizable=0;points=[];autosize=1;strokeColor=none;fillColor=none;" parent="1" vertex="1">
          <mxGeometry x="246.07" y="565" width="170" height="30" as="geometry" />
        </mxCell>
        <mxCell id="AnA0vIVNNSfj2xfhvl83-19" style="edgeStyle=orthogonalEdgeStyle;rounded=0;orthogonalLoop=1;jettySize=auto;html=1;entryX=0;entryY=0.5;entryDx=0;entryDy=0;entryPerimeter=0;" parent="1" source="AnA0vIVNNSfj2xfhvl83-5" target="AnA0vIVNNSfj2xfhvl83-8" edge="1">
          <mxGeometry relative="1" as="geometry" />
        </mxCell>
        <mxCell id="AnA0vIVNNSfj2xfhvl83-25" style="edgeStyle=orthogonalEdgeStyle;rounded=0;orthogonalLoop=1;jettySize=auto;html=1;entryX=0.5;entryY=1;entryDx=0;entryDy=0;entryPerimeter=0;exitX=0;exitY=0.5;exitDx=0;exitDy=0;exitPerimeter=0;endArrow=none;endFill=0;dashed=1;dashPattern=1 2;" parent="1" source="AnA0vIVNNSfj2xfhvl83-15" target="AnA0vIVNNSfj2xfhvl83-11" edge="1">
          <mxGeometry relative="1" as="geometry" />
        </mxCell>
        <mxCell id="AnA0vIVNNSfj2xfhvl83-35" value="Test system (G4)" style="points=[[0.25,0,0],[0.5,0,0],[0.75,0,0],[1,0.25,0],[1,0.5,0],[1,0.75,0],[0.75,1,0],[0.5,1,0],[0.25,1,0],[0,0.75,0],[0,0.5,0],[0,0.25,0]];shape=mxgraph.bpmn.task;whiteSpace=wrap;rectStyle=rounded;size=10;html=1;container=1;expand=0;collapsible=0;taskMarker=abstract;" parent="1" vertex="1">
          <mxGeometry x="247.02380952380952" y="444.2758620689655" width="84.79333333333334" height="39.38241379310345" as="geometry" />
        </mxCell>
        <mxCell id="AnA0vIVNNSfj2xfhvl83-40" style="edgeStyle=orthogonalEdgeStyle;rounded=0;orthogonalLoop=1;jettySize=auto;html=1;entryX=0;entryY=0.5;entryDx=0;entryDy=0;entryPerimeter=0;" parent="1" source="AnA0vIVNNSfj2xfhvl83-35" target="AnA0vIVNNSfj2xfhvl83-36" edge="1">
          <mxGeometry relative="1" as="geometry" />
        </mxCell>
        <mxCell id="AnA0vIVNNSfj2xfhvl83-43" value="" style="endArrow=open;html=1;rounded=0;exitX=0.25;exitY=1;exitDx=0;exitDy=0;exitPerimeter=0;entryX=0;entryY=0;entryDx=9.165;entryDy=0;entryPerimeter=0;endFill=0;dashed=1;" parent="1" source="AnA0vIVNNSfj2xfhvl83-11" target="AnA0vIVNNSfj2xfhvl83-17" edge="1">
          <mxGeometry width="50" height="50" relative="1" as="geometry">
            <mxPoint x="301" y="570" as="sourcePoint" />
            <mxPoint x="351" y="520" as="targetPoint" />
          </mxGeometry>
        </mxCell>
        <mxCell id="AnA0vIVNNSfj2xfhvl83-45" value="" style="points=[[0.145,0.145,0],[0.5,0,0],[0.855,0.145,0],[1,0.5,0],[0.855,0.855,0],[0.5,1,0],[0.145,0.855,0],[0,0.5,0]];shape=mxgraph.bpmn.event;html=1;verticalLabelPosition=bottom;labelBackgroundColor=#ffffff;verticalAlign=top;align=center;perimeter=ellipsePerimeter;outlineConnect=0;aspect=fixed;outline=end;symbol=terminate2;" parent="1" vertex="1">
          <mxGeometry x="650" y="410" width="40" height="40" as="geometry" />
        </mxCell>
        <mxCell id="kFDNbCBGzgOFqAX-q5Mj-11" style="edgeStyle=orthogonalEdgeStyle;rounded=0;orthogonalLoop=1;jettySize=auto;html=1;entryX=0.5;entryY=0;entryDx=0;entryDy=0;entryPerimeter=0;" parent="1" source="kFDNbCBGzgOFqAX-q5Mj-1" target="AnA0vIVNNSfj2xfhvl83-35" edge="1">
          <mxGeometry relative="1" as="geometry">
            <Array as="points">
              <mxPoint x="566" y="430" />
              <mxPoint x="289" y="430" />
            </Array>
          </mxGeometry>
        </mxCell>
        <mxCell id="kFDNbCBGzgOFqAX-q5Mj-17" value="" style="endArrow=classic;html=1;rounded=0;exitX=0.576;exitY=0.996;exitDx=0;exitDy=0;exitPerimeter=0;entryX=0.684;entryY=-0.001;entryDx=0;entryDy=0;entryPerimeter=0;" parent="1" source="AnA0vIVNNSfj2xfhvl83-8" target="AnA0vIVNNSfj2xfhvl83-11" edge="1">
          <mxGeometry width="50" height="50" relative="1" as="geometry">
            <mxPoint x="560" y="330" as="sourcePoint" />
            <mxPoint x="560" y="350" as="targetPoint" />
          </mxGeometry>
        </mxCell>
      </root>
    </mxGraphModel>
  </diagram>
  <diagram name="RQ2" id="iTJ8iv89Ss-WS_-Y1mFZ">
    <mxGraphModel dx="1050" dy="522" grid="1" gridSize="10" guides="1" tooltips="1" connect="1" arrows="1" fold="1" page="1" pageScale="1" pageWidth="827" pageHeight="1169" math="0" shadow="0">
      <root>
        <mxCell id="a_0pFjkOoRE9qxC32I5a-0" />
        <mxCell id="a_0pFjkOoRE9qxC32I5a-1" parent="a_0pFjkOoRE9qxC32I5a-0" />
        <mxCell id="a_0pFjkOoRE9qxC32I5a-2" value="" style="points=[[0.145,0.145,0],[0.5,0,0],[0.855,0.145,0],[1,0.5,0],[0.855,0.855,0],[0.5,1,0],[0.145,0.855,0],[0,0.5,0]];shape=mxgraph.bpmn.event;html=1;verticalLabelPosition=bottom;labelBackgroundColor=#ffffff;verticalAlign=top;align=center;perimeter=ellipsePerimeter;outlineConnect=0;aspect=fixed;outline=standard;symbol=general;" parent="a_0pFjkOoRE9qxC32I5a-1" vertex="1">
          <mxGeometry x="155.5" y="504.53" width="40" height="40" as="geometry" />
        </mxCell>
        <mxCell id="a_0pFjkOoRE9qxC32I5a-4" value="Perform experiments (G6)" style="points=[[0.25,0,0],[0.5,0,0],[0.75,0,0],[1,0.25,0],[1,0.5,0],[1,0.75,0],[0.75,1,0],[0.5,1,0],[0.25,1,0],[0,0.75,0],[0,0.5,0],[0,0.25,0]];shape=mxgraph.bpmn.task;whiteSpace=wrap;rectStyle=rounded;size=10;html=1;container=1;expand=0;collapsible=0;taskMarker=abstract;isLoopSub=1;" parent="a_0pFjkOoRE9qxC32I5a-1" vertex="1">
          <mxGeometry x="433" y="489.02" width="110.29" height="71.02" as="geometry" />
        </mxCell>
        <mxCell id="a_0pFjkOoRE9qxC32I5a-5" value="Design&amp;nbsp;&lt;div&gt;experiments (G5)&lt;/div&gt;" style="points=[[0.25,0,0],[0.5,0,0],[0.75,0,0],[1,0.25,0],[1,0.5,0],[1,0.75,0],[0.75,1,0],[0.5,1,0],[0.25,1,0],[0,0.75,0],[0,0.5,0],[0,0.25,0]];shape=mxgraph.bpmn.task;whiteSpace=wrap;rectStyle=rounded;size=10;html=1;container=1;expand=0;collapsible=0;taskMarker=abstract;" parent="a_0pFjkOoRE9qxC32I5a-1" vertex="1">
          <mxGeometry x="258.5" y="490.02" width="111.5" height="70" as="geometry" />
        </mxCell>
        <mxCell id="a_0pFjkOoRE9qxC32I5a-6" value="" style="shape=mxgraph.bpmn.data;labelPosition=center;verticalLabelPosition=bottom;align=center;verticalAlign=top;size=15;html=1;" parent="a_0pFjkOoRE9qxC32I5a-1" vertex="1">
          <mxGeometry x="439.7900000000001" y="428.00000000000006" width="32.07" height="40" as="geometry" />
        </mxCell>
        <mxCell id="a_0pFjkOoRE9qxC32I5a-7" value="(D1)&amp;nbsp;&lt;div&gt;Code implementation&lt;/div&gt;" style="text;html=1;align=left;verticalAlign=middle;resizable=0;points=[];autosize=1;strokeColor=none;fillColor=none;" parent="a_0pFjkOoRE9qxC32I5a-1" vertex="1">
          <mxGeometry x="480" y="428.00000000000006" width="140" height="40" as="geometry" />
        </mxCell>
        <mxCell id="a_0pFjkOoRE9qxC32I5a-9" value="Transform data according to metrics (G7)" style="points=[[0.25,0,0],[0.5,0,0],[0.75,0,0],[1,0.25,0],[1,0.5,0],[1,0.75,0],[0.75,1,0],[0.5,1,0],[0.25,1,0],[0,0.75,0],[0,0.5,0],[0,0.25,0]];shape=mxgraph.bpmn.task;whiteSpace=wrap;rectStyle=rounded;size=10;html=1;container=1;expand=0;collapsible=0;taskMarker=abstract;" parent="a_0pFjkOoRE9qxC32I5a-1" vertex="1">
          <mxGeometry x="180" y="597.64" width="106" height="70.02" as="geometry" />
        </mxCell>
        <mxCell id="a_0pFjkOoRE9qxC32I5a-10" value="Visualise&amp;nbsp;&lt;div&gt;results (G7)&lt;/div&gt;" style="points=[[0.25,0,0],[0.5,0,0],[0.75,0,0],[1,0.25,0],[1,0.5,0],[1,0.75,0],[0.75,1,0],[0.5,1,0],[0.25,1,0],[0,0.75,0],[0,0.5,0],[0,0.25,0]];shape=mxgraph.bpmn.task;whiteSpace=wrap;rectStyle=rounded;size=10;html=1;container=1;expand=0;collapsible=0;taskMarker=abstract;" parent="a_0pFjkOoRE9qxC32I5a-1" vertex="1">
          <mxGeometry x="327.5" y="597.64" width="86" height="70.04" as="geometry" />
        </mxCell>
        <mxCell id="a_0pFjkOoRE9qxC32I5a-11" value="" style="points=[[0.145,0.145,0],[0.5,0,0],[0.855,0.145,0],[1,0.5,0],[0.855,0.855,0],[0.5,1,0],[0.145,0.855,0],[0,0.5,0]];shape=mxgraph.bpmn.event;html=1;verticalLabelPosition=bottom;labelBackgroundColor=#ffffff;verticalAlign=top;align=center;perimeter=ellipsePerimeter;outlineConnect=0;aspect=fixed;outline=end;symbol=terminate2;" parent="a_0pFjkOoRE9qxC32I5a-1" vertex="1">
          <mxGeometry x="598" y="612.6500000000001" width="40" height="40" as="geometry" />
        </mxCell>
        <mxCell id="a_0pFjkOoRE9qxC32I5a-12" style="edgeStyle=orthogonalEdgeStyle;rounded=0;orthogonalLoop=1;jettySize=auto;html=1;" parent="a_0pFjkOoRE9qxC32I5a-1" source="a_0pFjkOoRE9qxC32I5a-2" edge="1">
          <mxGeometry relative="1" as="geometry">
            <mxPoint x="258.5" y="524.85" as="targetPoint" />
          </mxGeometry>
        </mxCell>
        <mxCell id="a_0pFjkOoRE9qxC32I5a-16" style="edgeStyle=orthogonalEdgeStyle;rounded=0;orthogonalLoop=1;jettySize=auto;html=1;entryX=0;entryY=0.5;entryDx=0;entryDy=0;entryPerimeter=0;" parent="a_0pFjkOoRE9qxC32I5a-1" source="a_0pFjkOoRE9qxC32I5a-9" target="a_0pFjkOoRE9qxC32I5a-10" edge="1">
          <mxGeometry relative="1" as="geometry" />
        </mxCell>
        <mxCell id="a_0pFjkOoRE9qxC32I5a-18" value="" style="shape=mxgraph.bpmn.data;labelPosition=center;verticalLabelPosition=bottom;align=center;verticalAlign=top;size=15;html=1;" parent="a_0pFjkOoRE9qxC32I5a-1" vertex="1">
          <mxGeometry x="333.93000000000006" y="686" width="32.07" height="39" as="geometry" />
        </mxCell>
        <mxCell id="a_0pFjkOoRE9qxC32I5a-19" value="(D2)&amp;nbsp;&lt;div&gt;Experiments results&lt;/div&gt;" style="text;html=1;align=left;verticalAlign=middle;resizable=0;points=[];autosize=1;strokeColor=none;fillColor=none;" parent="a_0pFjkOoRE9qxC32I5a-1" vertex="1">
          <mxGeometry x="222.00000000000006" y="684.5" width="130" height="40" as="geometry" />
        </mxCell>
        <mxCell id="3OvlR-f9F0D67xahjrFH-0" value="" style="endArrow=open;html=1;rounded=0;entryX=0.5;entryY=1;entryDx=0;entryDy=0;entryPerimeter=0;endFill=0;dashed=1;" parent="a_0pFjkOoRE9qxC32I5a-1" target="a_0pFjkOoRE9qxC32I5a-6" edge="1">
          <mxGeometry width="50" height="50" relative="1" as="geometry">
            <mxPoint x="456" y="489.02" as="sourcePoint" />
            <mxPoint x="432.5" y="449.02" as="targetPoint" />
          </mxGeometry>
        </mxCell>
        <mxCell id="3OvlR-f9F0D67xahjrFH-1" value="Analyse&amp;nbsp;&lt;div&gt;results (G8)&lt;/div&gt;" style="points=[[0.25,0,0],[0.5,0,0],[0.75,0,0],[1,0.25,0],[1,0.5,0],[1,0.75,0],[0.75,1,0],[0.5,1,0],[0.25,1,0],[0,0.75,0],[0,0.5,0],[0,0.25,0]];shape=mxgraph.bpmn.task;whiteSpace=wrap;rectStyle=rounded;size=10;html=1;container=1;expand=0;collapsible=0;taskMarker=abstract;" parent="a_0pFjkOoRE9qxC32I5a-1" vertex="1">
          <mxGeometry x="460" y="597.64" width="86" height="70.04" as="geometry" />
        </mxCell>
        <mxCell id="3OvlR-f9F0D67xahjrFH-2" value="" style="shape=mxgraph.bpmn.data;labelPosition=center;verticalLabelPosition=bottom;align=center;verticalAlign=top;size=15;html=1;" parent="a_0pFjkOoRE9qxC32I5a-1" vertex="1">
          <mxGeometry x="510.75" y="685" width="32.07" height="39" as="geometry" />
        </mxCell>
        <mxCell id="3OvlR-f9F0D67xahjrFH-3" value="(D3-partial)&amp;nbsp;&lt;div&gt;Results analysis&lt;/div&gt;" style="text;html=1;align=left;verticalAlign=middle;resizable=0;points=[];autosize=1;strokeColor=none;fillColor=none;" parent="a_0pFjkOoRE9qxC32I5a-1" vertex="1">
          <mxGeometry x="416.00000000000006" y="686.5" width="110" height="40" as="geometry" />
        </mxCell>
        <mxCell id="3OvlR-f9F0D67xahjrFH-4" style="edgeStyle=orthogonalEdgeStyle;rounded=0;orthogonalLoop=1;jettySize=auto;html=1;entryX=0.5;entryY=0;entryDx=0;entryDy=0;entryPerimeter=0;" parent="a_0pFjkOoRE9qxC32I5a-1" source="a_0pFjkOoRE9qxC32I5a-4" target="a_0pFjkOoRE9qxC32I5a-9" edge="1">
          <mxGeometry relative="1" as="geometry">
            <Array as="points">
              <mxPoint x="460" y="580" />
              <mxPoint x="233" y="580" />
            </Array>
          </mxGeometry>
        </mxCell>
        <mxCell id="3OvlR-f9F0D67xahjrFH-5" style="edgeStyle=orthogonalEdgeStyle;rounded=0;orthogonalLoop=1;jettySize=auto;html=1;entryX=0;entryY=0.5;entryDx=0;entryDy=0;entryPerimeter=0;" parent="a_0pFjkOoRE9qxC32I5a-1" source="a_0pFjkOoRE9qxC32I5a-5" target="a_0pFjkOoRE9qxC32I5a-4" edge="1">
          <mxGeometry relative="1" as="geometry" />
        </mxCell>
        <mxCell id="3OvlR-f9F0D67xahjrFH-6" style="edgeStyle=orthogonalEdgeStyle;rounded=0;orthogonalLoop=1;jettySize=auto;html=1;entryX=0;entryY=0.5;entryDx=0;entryDy=0;entryPerimeter=0;" parent="a_0pFjkOoRE9qxC32I5a-1" source="a_0pFjkOoRE9qxC32I5a-10" target="3OvlR-f9F0D67xahjrFH-1" edge="1">
          <mxGeometry relative="1" as="geometry" />
        </mxCell>
        <mxCell id="3OvlR-f9F0D67xahjrFH-7" style="edgeStyle=orthogonalEdgeStyle;rounded=0;orthogonalLoop=1;jettySize=auto;html=1;entryX=0;entryY=0.5;entryDx=0;entryDy=0;entryPerimeter=0;" parent="a_0pFjkOoRE9qxC32I5a-1" source="3OvlR-f9F0D67xahjrFH-1" target="a_0pFjkOoRE9qxC32I5a-11" edge="1">
          <mxGeometry relative="1" as="geometry" />
        </mxCell>
        <mxCell id="iU1MeGQfuLUyHFQsdcEJ-1" value="" style="endArrow=open;html=1;rounded=0;exitX=0.175;exitY=0.999;exitDx=0;exitDy=0;exitPerimeter=0;entryX=0;entryY=0;entryDx=8.535;entryDy=0;entryPerimeter=0;endFill=0;dashed=1;" parent="a_0pFjkOoRE9qxC32I5a-1" source="a_0pFjkOoRE9qxC32I5a-10" target="a_0pFjkOoRE9qxC32I5a-18" edge="1">
          <mxGeometry width="50" height="50" relative="1" as="geometry">
            <mxPoint x="340" y="665" as="sourcePoint" />
            <mxPoint x="340" y="685" as="targetPoint" />
          </mxGeometry>
        </mxCell>
        <mxCell id="iU1MeGQfuLUyHFQsdcEJ-2" value="" style="endArrow=open;html=1;rounded=0;exitX=0.175;exitY=0.999;exitDx=0;exitDy=0;exitPerimeter=0;entryX=0;entryY=0;entryDx=8.535;entryDy=0;entryPerimeter=0;endFill=0;dashed=1;" parent="a_0pFjkOoRE9qxC32I5a-1" edge="1">
          <mxGeometry width="50" height="50" relative="1" as="geometry">
            <mxPoint x="521" y="667.68" as="sourcePoint" />
            <mxPoint x="520" y="685.68" as="targetPoint" />
          </mxGeometry>
        </mxCell>
      </root>
    </mxGraphModel>
  </diagram>
  <diagram id="X1fa6qZcX9lgSAH-Bl-D" name="hudi_write">
    <mxGraphModel dx="1050" dy="522" grid="1" gridSize="10" guides="1" tooltips="1" connect="1" arrows="1" fold="1" page="1" pageScale="1" pageWidth="827" pageHeight="1169" math="0" shadow="0">
      <root>
        <mxCell id="0" />
        <mxCell id="1" parent="0" />
        <mxCell id="97BI6fRqXYRTkMZz9MMr-5" value="" style="rounded=0;whiteSpace=wrap;html=1;fillColor=#E6E6E6;fontColor=#333333;strokeColor=none;" parent="1" vertex="1">
          <mxGeometry x="627.5" y="482.5" width="245" height="140" as="geometry" />
        </mxCell>
        <mxCell id="wsly44gGToYlioBU8WoA-1" value="" style="rounded=0;whiteSpace=wrap;html=1;verticalAlign=top;fillColor=#dae8fc;strokeColor=#6c8ebf;" parent="1" vertex="1">
          <mxGeometry x="8" y="482" width="172" height="87" as="geometry" />
        </mxCell>
        <mxCell id="wsly44gGToYlioBU8WoA-29" style="edgeStyle=orthogonalEdgeStyle;rounded=0;orthogonalLoop=1;jettySize=auto;html=1;exitX=0.009;exitY=0.24;exitDx=0;exitDy=0;curved=1;entryX=0.077;entryY=0.025;entryDx=0;entryDy=0;entryPerimeter=0;exitPerimeter=0;endArrow=classicThin;endFill=1;" parent="1" source="wsly44gGToYlioBU8WoA-47" target="wsly44gGToYlioBU8WoA-4" edge="1">
          <mxGeometry relative="1" as="geometry">
            <mxPoint x="77" y="565" as="targetPoint" />
          </mxGeometry>
        </mxCell>
        <mxCell id="wsly44gGToYlioBU8WoA-2" value="Pandas&amp;nbsp;&lt;div&gt;DataFrame&lt;/div&gt;" style="rounded=0;whiteSpace=wrap;html=1;dashed=1;dashPattern=8 8;verticalAlign=top;" parent="1" vertex="1">
          <mxGeometry x="88" y="509" width="86" height="50" as="geometry" />
        </mxCell>
        <mxCell id="wsly44gGToYlioBU8WoA-3" value="" style="rounded=0;whiteSpace=wrap;html=1;verticalAlign=top;fillColor=#d5e8d4;strokeColor=#82b366;" parent="1" vertex="1">
          <mxGeometry x="244" y="483.5" width="286" height="140" as="geometry" />
        </mxCell>
        <mxCell id="wsly44gGToYlioBU8WoA-4" value="Hopsworks Client" style="rounded=0;whiteSpace=wrap;html=1;rotation=0;" parent="1" vertex="1">
          <mxGeometry x="37" y="565" width="120" height="35" as="geometry" />
        </mxCell>
        <mxCell id="wsly44gGToYlioBU8WoA-6" value="&lt;i style=&quot;white-space: normal;&quot;&gt;Hopsworks&amp;nbsp;&lt;/i&gt;&lt;i style=&quot;white-space: normal;&quot;&gt;Cluster&lt;/i&gt;" style="text;html=1;align=center;verticalAlign=middle;resizable=0;points=[];autosize=1;strokeColor=none;fillColor=none;" parent="1" vertex="1">
          <mxGeometry x="329" y="480.5" width="120" height="30" as="geometry" />
        </mxCell>
        <mxCell id="wsly44gGToYlioBU8WoA-7" value="" style="shape=cylinder3;whiteSpace=wrap;html=1;boundedLbl=1;backgroundOutline=1;size=15;rotation=90;" parent="1" vertex="1">
          <mxGeometry x="277" y="544.5" width="40" height="80" as="geometry" />
        </mxCell>
        <mxCell id="wsly44gGToYlioBU8WoA-8" value="" style="rounded=0;whiteSpace=wrap;html=1;fillColor=#fff2cc;strokeColor=#d6b656;" parent="1" vertex="1">
          <mxGeometry x="382" y="520" width="143" height="99" as="geometry" />
        </mxCell>
        <mxCell id="wsly44gGToYlioBU8WoA-9" value="&lt;i&gt;Spark Cluster&lt;/i&gt;" style="text;html=1;align=center;verticalAlign=middle;resizable=0;points=[];autosize=1;strokeColor=none;fillColor=none;" parent="1" vertex="1">
          <mxGeometry x="404" y="523.5" width="100" height="30" as="geometry" />
        </mxCell>
        <mxCell id="wsly44gGToYlioBU8WoA-10" value="&lt;i&gt;Kafka&lt;/i&gt;" style="text;html=1;align=center;verticalAlign=middle;resizable=0;points=[];autosize=1;strokeColor=none;fillColor=none;" parent="1" vertex="1">
          <mxGeometry x="260" y="567.5" width="50" height="30" as="geometry" />
        </mxCell>
        <mxCell id="wsly44gGToYlioBU8WoA-20" value="Hudi Delta Streamer Job" style="rounded=1;whiteSpace=wrap;html=1;fillColor=#f8cecc;strokeColor=#b85450;" parent="1" vertex="1">
          <mxGeometry x="399" y="554" width="110" height="40" as="geometry" />
        </mxCell>
        <mxCell id="wsly44gGToYlioBU8WoA-22" value="&lt;i style=&quot;white-space: normal;&quot;&gt;Python&amp;nbsp;&lt;/i&gt;&lt;i style=&quot;white-space: normal;&quot;&gt;Client&lt;/i&gt;" style="text;html=1;align=center;verticalAlign=middle;resizable=0;points=[];autosize=1;strokeColor=none;fillColor=none;" parent="1" vertex="1">
          <mxGeometry x="52" y="480" width="90" height="30" as="geometry" />
        </mxCell>
        <mxCell id="wsly44gGToYlioBU8WoA-27" value="&lt;font style=&quot;font-size: 10px;&quot;&gt;calls fg.insert(df)&amp;nbsp;&lt;/font&gt;" style="text;html=1;align=center;verticalAlign=middle;whiteSpace=wrap;rounded=0;fontColor=#FF9933;" parent="1" vertex="1">
          <mxGeometry x="7.5" y="517" width="84" height="20" as="geometry" />
        </mxCell>
        <mxCell id="wsly44gGToYlioBU8WoA-31" value="&lt;font size=&quot;1&quot;&gt;sends table&amp;nbsp;&lt;/font&gt;&lt;div&gt;&lt;font size=&quot;1&quot;&gt;&lt;font color=&quot;#0000ff&quot;&gt;row by&amp;nbsp;&lt;/font&gt;&lt;/font&gt;&lt;font size=&quot;1&quot;&gt;&lt;font color=&quot;#0000ff&quot;&gt;row&lt;/font&gt;&amp;nbsp;&lt;/font&gt;&lt;/div&gt;" style="text;html=1;align=center;verticalAlign=middle;resizable=0;points=[];autosize=1;strokeColor=none;fillColor=none;fontColor=#FF9933;" parent="1" vertex="1">
          <mxGeometry x="174" y="589.5" width="80" height="40" as="geometry" />
        </mxCell>
        <mxCell id="wsly44gGToYlioBU8WoA-42" value="&lt;font size=&quot;1&quot;&gt;retrieves&amp;nbsp;&lt;/font&gt;&lt;div&gt;&lt;span style=&quot;font-size: x-small;&quot;&gt;messages&amp;nbsp;&lt;/span&gt;&lt;/div&gt;" style="text;html=1;align=center;verticalAlign=middle;resizable=0;points=[];autosize=1;strokeColor=none;fillColor=none;fontColor=#FF9933;" parent="1" vertex="1">
          <mxGeometry x="323" y="584.5" width="70" height="40" as="geometry" />
        </mxCell>
        <mxCell id="wsly44gGToYlioBU8WoA-44" value="&lt;font size=&quot;1&quot;&gt;writes&amp;nbsp;&lt;/font&gt;&lt;span style=&quot;font-size: x-small;&quot;&gt;table&lt;/span&gt;&lt;div&gt;&lt;span style=&quot;font-size: x-small;&quot;&gt;by &lt;font color=&quot;#0000ff&quot;&gt;column&lt;/font&gt;&lt;/span&gt;&lt;/div&gt;" style="text;html=1;align=center;verticalAlign=middle;resizable=0;points=[];autosize=1;strokeColor=none;fillColor=none;fontColor=#FF9933;" parent="1" vertex="1">
          <mxGeometry x="553" y="563.25" width="70" height="40" as="geometry" />
        </mxCell>
        <mxCell id="wsly44gGToYlioBU8WoA-45" value="&lt;font color=&quot;#0000ff&quot; size=&quot;1&quot;&gt;rows&lt;/font&gt;&lt;font color=&quot;#ff9933&quot; size=&quot;1&quot;&gt; collected into table&lt;/font&gt;" style="text;html=1;align=center;verticalAlign=middle;resizable=0;points=[];autosize=1;strokeColor=none;fillColor=none;" parent="1" vertex="1">
          <mxGeometry x="403" y="589.5" width="130" height="30" as="geometry" />
        </mxCell>
        <mxCell id="wsly44gGToYlioBU8WoA-47" value="&lt;span style=&quot;font-size: x-small;&quot;&gt;column-oriented&lt;/span&gt;" style="text;html=1;align=center;verticalAlign=middle;resizable=0;points=[];autosize=1;strokeColor=none;fillColor=none;fontColor=#0000FF;" parent="1" vertex="1">
          <mxGeometry x="81.5" y="536" width="100" height="30" as="geometry" />
        </mxCell>
        <mxCell id="wsly44gGToYlioBU8WoA-50" value="" style="group" parent="1" connectable="0" vertex="1">
          <mxGeometry x="51" y="530" width="30" height="30" as="geometry" />
        </mxCell>
        <mxCell id="wsly44gGToYlioBU8WoA-48" value="" style="ellipse;whiteSpace=wrap;html=1;aspect=fixed;" parent="wsly44gGToYlioBU8WoA-50" vertex="1">
          <mxGeometry x="5" y="6" width="20" height="20" as="geometry" />
        </mxCell>
        <mxCell id="wsly44gGToYlioBU8WoA-49" value="1" style="text;html=1;align=center;verticalAlign=middle;resizable=0;points=[];autosize=1;strokeColor=none;fillColor=none;" parent="wsly44gGToYlioBU8WoA-50" vertex="1">
          <mxGeometry width="30" height="30" as="geometry" />
        </mxCell>
        <mxCell id="wsly44gGToYlioBU8WoA-64" value="" style="group" parent="1" connectable="0" vertex="1">
          <mxGeometry x="20" y="581" width="30" height="30" as="geometry" />
        </mxCell>
        <mxCell id="wsly44gGToYlioBU8WoA-65" value="" style="ellipse;whiteSpace=wrap;html=1;aspect=fixed;" parent="wsly44gGToYlioBU8WoA-64" vertex="1">
          <mxGeometry x="5" y="6" width="20" height="20" as="geometry" />
        </mxCell>
        <mxCell id="wsly44gGToYlioBU8WoA-66" value="2" style="text;html=1;align=center;verticalAlign=middle;resizable=0;points=[];autosize=1;strokeColor=none;fillColor=none;" parent="wsly44gGToYlioBU8WoA-64" vertex="1">
          <mxGeometry width="30" height="30" as="geometry" />
        </mxCell>
        <mxCell id="wsly44gGToYlioBU8WoA-67" value="&lt;font size=&quot;1&quot;&gt;conversion to &lt;font color=&quot;#0000ff&quot;&gt;row-oriented&lt;/font&gt; storage&lt;/font&gt;" style="text;html=1;align=center;verticalAlign=middle;whiteSpace=wrap;rounded=0;fontColor=#FF9933;" parent="1" vertex="1">
          <mxGeometry x="14" y="609" width="84" height="20" as="geometry" />
        </mxCell>
        <mxCell id="kqDOjkfEE_pRzm1UnQSW-6" value="" style="curved=1;endArrow=classicThin;html=1;rounded=0;exitX=0.956;exitY=1.029;exitDx=0;exitDy=0;exitPerimeter=0;endFill=1;entryX=0.64;entryY=0.995;entryDx=0;entryDy=0;entryPerimeter=0;" parent="1" target="wsly44gGToYlioBU8WoA-4" edge="1">
          <mxGeometry width="50" height="50" relative="1" as="geometry">
            <mxPoint x="140.72000000000003" y="601.0149999999999" as="sourcePoint" />
            <mxPoint x="116" y="600" as="targetPoint" />
            <Array as="points">
              <mxPoint x="130" y="630" />
              <mxPoint x="110" y="630" />
            </Array>
          </mxGeometry>
        </mxCell>
        <mxCell id="kqDOjkfEE_pRzm1UnQSW-4" value="&lt;font size=&quot;1&quot;&gt;&lt;font color=&quot;#ff0000&quot;&gt;upload&lt;/font&gt;&amp;nbsp;&lt;/font&gt;&lt;div&gt;&lt;font size=&quot;1&quot;&gt;end&amp;nbsp;&lt;/font&gt;&lt;span style=&quot;font-size: x-small;&quot;&gt;ACK&lt;/span&gt;&lt;/div&gt;" style="text;html=1;align=center;verticalAlign=middle;resizable=0;points=[];autosize=1;strokeColor=none;fillColor=none;fontColor=#FF9933;" parent="1" vertex="1">
          <mxGeometry x="123" y="604" width="60" height="40" as="geometry" />
        </mxCell>
        <mxCell id="kqDOjkfEE_pRzm1UnQSW-1" value="" style="group" parent="1" connectable="0" vertex="1">
          <mxGeometry x="125" y="585" width="30" height="30" as="geometry" />
        </mxCell>
        <mxCell id="kqDOjkfEE_pRzm1UnQSW-2" value="" style="ellipse;whiteSpace=wrap;html=1;aspect=fixed;" parent="kqDOjkfEE_pRzm1UnQSW-1" vertex="1">
          <mxGeometry x="5" y="6" width="20" height="20" as="geometry" />
        </mxCell>
        <mxCell id="kqDOjkfEE_pRzm1UnQSW-3" value="4" style="text;html=1;align=center;verticalAlign=middle;resizable=0;points=[];autosize=1;strokeColor=none;fillColor=none;" parent="kqDOjkfEE_pRzm1UnQSW-1" vertex="1">
          <mxGeometry width="30" height="30" as="geometry" />
        </mxCell>
        <mxCell id="kqDOjkfEE_pRzm1UnQSW-10" value="" style="group" parent="1" connectable="0" vertex="1">
          <mxGeometry x="493" y="575" width="30" height="30" as="geometry" />
        </mxCell>
        <mxCell id="wsly44gGToYlioBU8WoA-69" value="" style="ellipse;whiteSpace=wrap;html=1;aspect=fixed;" parent="kqDOjkfEE_pRzm1UnQSW-10" vertex="1">
          <mxGeometry x="5.666666666666686" y="6" width="18.666666666666668" height="18.666666666666668" as="geometry" />
        </mxCell>
        <mxCell id="wsly44gGToYlioBU8WoA-70" value="6" style="text;html=1;align=center;verticalAlign=middle;resizable=0;points=[];autosize=1;strokeColor=none;fillColor=none;" parent="kqDOjkfEE_pRzm1UnQSW-10" vertex="1">
          <mxGeometry width="30" height="30" as="geometry" />
        </mxCell>
        <mxCell id="kqDOjkfEE_pRzm1UnQSW-19" value="" style="endArrow=classicThin;html=1;rounded=0;exitX=0;exitY=0.75;exitDx=0;exitDy=0;entryX=0.5;entryY=0;entryDx=0;entryDy=0;entryPerimeter=0;endFill=1;" parent="1" source="wsly44gGToYlioBU8WoA-20" target="wsly44gGToYlioBU8WoA-7" edge="1">
          <mxGeometry width="50" height="50" relative="1" as="geometry">
            <mxPoint x="270" y="570" as="sourcePoint" />
            <mxPoint x="320" y="520" as="targetPoint" />
          </mxGeometry>
        </mxCell>
        <mxCell id="wsly44gGToYlioBU8WoA-54" value="" style="group" parent="1" connectable="0" vertex="1">
          <mxGeometry x="350" y="567" width="30" height="30" as="geometry" />
        </mxCell>
        <mxCell id="wsly44gGToYlioBU8WoA-55" value="" style="ellipse;whiteSpace=wrap;html=1;aspect=fixed;" parent="wsly44gGToYlioBU8WoA-54" vertex="1">
          <mxGeometry x="5" y="6" width="20" height="20" as="geometry" />
        </mxCell>
        <mxCell id="wsly44gGToYlioBU8WoA-56" value="5" style="text;html=1;align=center;verticalAlign=middle;resizable=0;points=[];autosize=1;strokeColor=none;fillColor=none;" parent="wsly44gGToYlioBU8WoA-54" vertex="1">
          <mxGeometry width="30" height="30" as="geometry" />
        </mxCell>
        <mxCell id="kqDOjkfEE_pRzm1UnQSW-21" style="edgeStyle=orthogonalEdgeStyle;rounded=0;orthogonalLoop=1;jettySize=auto;html=1;entryX=0.5;entryY=1;entryDx=0;entryDy=0;entryPerimeter=0;exitX=0.998;exitY=0.582;exitDx=0;exitDy=0;exitPerimeter=0;endArrow=classicThin;endFill=1;" parent="1" source="wsly44gGToYlioBU8WoA-4" target="wsly44gGToYlioBU8WoA-7" edge="1">
          <mxGeometry relative="1" as="geometry">
            <mxPoint x="160" y="585" as="sourcePoint" />
          </mxGeometry>
        </mxCell>
        <mxCell id="kqDOjkfEE_pRzm1UnQSW-20" value="" style="group" parent="1" connectable="0" vertex="1">
          <mxGeometry x="200" y="573" width="40" height="30.5" as="geometry" />
        </mxCell>
        <mxCell id="wsly44gGToYlioBU8WoA-33" value="" style="shape=message;html=1;html=1;outlineConnect=0;labelPosition=center;verticalLabelPosition=bottom;align=center;verticalAlign=top;" parent="kqDOjkfEE_pRzm1UnQSW-20" vertex="1">
          <mxGeometry x="2.5" width="34" height="24" as="geometry" />
        </mxCell>
        <mxCell id="wsly44gGToYlioBU8WoA-36" value="" style="rounded=0;whiteSpace=wrap;html=1;dashed=1;fillColor=none;" parent="kqDOjkfEE_pRzm1UnQSW-20" vertex="1">
          <mxGeometry x="6.5" y="13.5" width="27" height="9.12" as="geometry" />
        </mxCell>
        <mxCell id="wsly44gGToYlioBU8WoA-37" value="&lt;font color=&quot;#0000ff&quot; style=&quot;font-size: 10px;&quot;&gt;row&lt;/font&gt;" style="text;html=1;align=center;verticalAlign=middle;resizable=0;points=[];autosize=1;strokeColor=none;fillColor=none;" parent="kqDOjkfEE_pRzm1UnQSW-20" vertex="1">
          <mxGeometry y="0.5" width="40" height="30" as="geometry" />
        </mxCell>
        <mxCell id="wsly44gGToYlioBU8WoA-51" value="" style="group" parent="1" connectable="0" vertex="1">
          <mxGeometry x="170" y="570" width="30" height="30" as="geometry" />
        </mxCell>
        <mxCell id="wsly44gGToYlioBU8WoA-52" value="" style="ellipse;whiteSpace=wrap;html=1;aspect=fixed;" parent="wsly44gGToYlioBU8WoA-51" vertex="1">
          <mxGeometry x="5" y="6" width="20" height="20" as="geometry" />
        </mxCell>
        <mxCell id="wsly44gGToYlioBU8WoA-53" value="3" style="text;html=1;align=center;verticalAlign=middle;resizable=0;points=[];autosize=1;strokeColor=none;fillColor=none;" parent="wsly44gGToYlioBU8WoA-51" vertex="1">
          <mxGeometry width="30" height="30" as="geometry" />
        </mxCell>
        <mxCell id="kqDOjkfEE_pRzm1UnQSW-22" value="" style="endArrow=classicThin;html=1;rounded=0;entryX=0.994;entryY=0.392;entryDx=0;entryDy=0;exitX=0;exitY=0.25;exitDx=0;exitDy=0;curved=1;endFill=1;entryPerimeter=0;" parent="1" edge="1">
          <mxGeometry width="50" height="50" relative="1" as="geometry">
            <mxPoint x="400" y="564" as="sourcePoint" />
            <mxPoint x="157.27999999999997" y="578.72" as="targetPoint" />
            <Array as="points">
              <mxPoint x="331" y="530" />
              <mxPoint x="191" y="530" />
              <mxPoint x="201" y="570" />
            </Array>
          </mxGeometry>
        </mxCell>
        <mxCell id="kqDOjkfEE_pRzm1UnQSW-11" value="" style="group" parent="1" connectable="0" vertex="1">
          <mxGeometry x="384" y="545" width="30" height="30" as="geometry" />
        </mxCell>
        <mxCell id="kqDOjkfEE_pRzm1UnQSW-12" value="" style="ellipse;whiteSpace=wrap;html=1;aspect=fixed;" parent="kqDOjkfEE_pRzm1UnQSW-11" vertex="1">
          <mxGeometry x="5.666666666666686" y="6" width="18.666666666666668" height="18.666666666666668" as="geometry" />
        </mxCell>
        <mxCell id="kqDOjkfEE_pRzm1UnQSW-13" value="8" style="text;html=1;align=center;verticalAlign=middle;resizable=0;points=[];autosize=1;strokeColor=none;fillColor=none;" parent="kqDOjkfEE_pRzm1UnQSW-11" vertex="1">
          <mxGeometry width="30" height="30" as="geometry" />
        </mxCell>
        <mxCell id="kqDOjkfEE_pRzm1UnQSW-26" value="&lt;font size=&quot;1&quot;&gt;&lt;font color=&quot;#ff0000&quot;&gt;materialization&lt;/font&gt; end ACK&lt;/font&gt;" style="text;html=1;align=center;verticalAlign=middle;resizable=0;points=[];autosize=1;strokeColor=none;fillColor=none;fontColor=#FF9933;" parent="1" vertex="1">
          <mxGeometry x="240" y="504" width="130" height="30" as="geometry" />
        </mxCell>
        <mxCell id="kqDOjkfEE_pRzm1UnQSW-27" value="&lt;font color=&quot;#ff0000&quot; style=&quot;font-size: 10px;&quot;&gt;MATERIALIZATION&lt;/font&gt;" style="text;html=1;align=center;verticalAlign=middle;resizable=0;points=[];autosize=1;strokeColor=none;fillColor=none;" parent="1" vertex="1">
          <mxGeometry x="524" y="515.5" width="110" height="30" as="geometry" />
        </mxCell>
        <mxCell id="kqDOjkfEE_pRzm1UnQSW-30" value="&lt;font color=&quot;#ff0000&quot; style=&quot;font-size: 10px;&quot;&gt;UPLOAD&lt;/font&gt;" style="text;html=1;align=center;verticalAlign=middle;resizable=0;points=[];autosize=1;strokeColor=none;fillColor=none;" parent="1" vertex="1">
          <mxGeometry x="190" y="548" width="60" height="30" as="geometry" />
        </mxCell>
        <mxCell id="97BI6fRqXYRTkMZz9MMr-6" value="" style="shape=parallelogram;perimeter=parallelogramPerimeter;whiteSpace=wrap;html=1;fixedSize=1;size=15;" parent="1" vertex="1">
          <mxGeometry x="630" y="491.5" width="220" height="89.5" as="geometry" />
        </mxCell>
        <mxCell id="97BI6fRqXYRTkMZz9MMr-8" value="" style="shape=parallelogram;perimeter=parallelogramPerimeter;whiteSpace=wrap;html=1;fixedSize=1;size=15;" parent="1" vertex="1">
          <mxGeometry x="641" y="501.5" width="219" height="89.5" as="geometry" />
        </mxCell>
        <mxCell id="97BI6fRqXYRTkMZz9MMr-7" value="" style="group" parent="1" connectable="0" vertex="1">
          <mxGeometry x="662" y="506.5" width="126" height="92" as="geometry" />
        </mxCell>
        <mxCell id="97BI6fRqXYRTkMZz9MMr-1" value="" style="shape=cube;whiteSpace=wrap;html=1;boundedLbl=1;backgroundOutline=1;darkOpacity=0.05;darkOpacity2=0.1;size=7;fillColor=#e1d5e7;strokeColor=#9673a6;" parent="97BI6fRqXYRTkMZz9MMr-7" vertex="1">
          <mxGeometry width="120" height="80" as="geometry" />
        </mxCell>
        <mxCell id="wsly44gGToYlioBU8WoA-17" value="Apache Hudi Table" style="text;html=1;align=center;verticalAlign=middle;resizable=0;points=[];autosize=1;strokeColor=none;fillColor=none;" parent="97BI6fRqXYRTkMZz9MMr-7" vertex="1">
          <mxGeometry x="5" y="10" width="120" height="30" as="geometry" />
        </mxCell>
        <mxCell id="97BI6fRqXYRTkMZz9MMr-4" value="" style="group" parent="97BI6fRqXYRTkMZz9MMr-7" connectable="0" vertex="1">
          <mxGeometry x="16" y="40" width="110" height="42" as="geometry" />
        </mxCell>
        <mxCell id="97BI6fRqXYRTkMZz9MMr-2" value="&lt;div&gt;.parquet files&lt;/div&gt;" style="rounded=0;whiteSpace=wrap;html=1;dashed=1;dashPattern=8 8;verticalAlign=top;" parent="97BI6fRqXYRTkMZz9MMr-4" vertex="1">
          <mxGeometry width="100" height="36.4" as="geometry" />
        </mxCell>
        <mxCell id="97BI6fRqXYRTkMZz9MMr-3" value="&lt;font color=&quot;#0000ff&quot; size=&quot;1&quot;&gt;column-oriented&lt;/font&gt;" style="text;html=1;align=center;verticalAlign=middle;resizable=0;points=[];autosize=1;strokeColor=none;fillColor=none;" parent="97BI6fRqXYRTkMZz9MMr-4" vertex="1">
          <mxGeometry x="10" y="14" width="100" height="30" as="geometry" />
        </mxCell>
        <mxCell id="97BI6fRqXYRTkMZz9MMr-9" value="&lt;i&gt;Feature&amp;nbsp;&lt;/i&gt;&lt;div&gt;&lt;i&gt;Group (fg)&lt;/i&gt;&lt;/div&gt;" style="text;html=1;align=center;verticalAlign=middle;resizable=0;points=[];autosize=1;strokeColor=none;fillColor=none;" parent="1" vertex="1">
          <mxGeometry x="778" y="526.25" width="80" height="40" as="geometry" />
        </mxCell>
        <mxCell id="97BI6fRqXYRTkMZz9MMr-10" value="HopsFS" style="text;html=1;align=center;verticalAlign=middle;resizable=0;points=[];autosize=1;strokeColor=none;fillColor=none;" parent="1" vertex="1">
          <mxGeometry x="715" y="593.5" width="70" height="30" as="geometry" />
        </mxCell>
        <mxCell id="wsly44gGToYlioBU8WoA-43" style="edgeStyle=orthogonalEdgeStyle;rounded=0;orthogonalLoop=1;jettySize=auto;html=1;curved=1;endArrow=classicThin;endFill=1;entryX=0;entryY=0;entryDx=0;entryDy=36.5;entryPerimeter=0;" parent="1" source="wsly44gGToYlioBU8WoA-20" target="97BI6fRqXYRTkMZz9MMr-1" edge="1">
          <mxGeometry relative="1" as="geometry">
            <mxPoint x="646.9999999999998" y="535" as="targetPoint" />
          </mxGeometry>
        </mxCell>
        <mxCell id="wsly44gGToYlioBU8WoA-57" value="" style="group" parent="1" connectable="0" vertex="1">
          <mxGeometry x="572" y="543" width="30" height="30" as="geometry" />
        </mxCell>
        <mxCell id="wsly44gGToYlioBU8WoA-58" value="" style="ellipse;whiteSpace=wrap;html=1;aspect=fixed;" parent="wsly44gGToYlioBU8WoA-57" vertex="1">
          <mxGeometry x="5" y="6" width="20" height="20" as="geometry" />
        </mxCell>
        <mxCell id="wsly44gGToYlioBU8WoA-59" value="7" style="text;html=1;align=center;verticalAlign=middle;resizable=0;points=[];autosize=1;strokeColor=none;fillColor=none;" parent="wsly44gGToYlioBU8WoA-57" vertex="1">
          <mxGeometry width="30" height="30" as="geometry" />
        </mxCell>
      </root>
    </mxGraphModel>
  </diagram>
  <diagram name="hudi_read" id="HTdKbOxOb-yLPDnem-GS">
    <mxGraphModel dx="1050" dy="522" grid="1" gridSize="10" guides="1" tooltips="1" connect="1" arrows="1" fold="1" page="1" pageScale="1" pageWidth="827" pageHeight="1169" math="0" shadow="0">
      <root>
        <mxCell id="QYOK-UgumVuoygTT7ox_-0" />
        <mxCell id="QYOK-UgumVuoygTT7ox_-1" parent="QYOK-UgumVuoygTT7ox_-0" />
        <mxCell id="QYOK-UgumVuoygTT7ox_-3" value="" style="rounded=0;whiteSpace=wrap;html=1;verticalAlign=top;fillColor=#dae8fc;strokeColor=#6c8ebf;" parent="QYOK-UgumVuoygTT7ox_-1" vertex="1">
          <mxGeometry x="8" y="483" width="180" height="92" as="geometry" />
        </mxCell>
        <mxCell id="QYOK-UgumVuoygTT7ox_-4" style="edgeStyle=orthogonalEdgeStyle;rounded=0;orthogonalLoop=1;jettySize=auto;html=1;exitX=0.009;exitY=0.24;exitDx=0;exitDy=0;curved=1;entryX=0.077;entryY=0.025;entryDx=0;entryDy=0;entryPerimeter=0;exitPerimeter=0;endArrow=none;endFill=0;startArrow=classicThin;startFill=1;" parent="QYOK-UgumVuoygTT7ox_-1" source="QYOK-UgumVuoygTT7ox_-33" target="QYOK-UgumVuoygTT7ox_-7" edge="1">
          <mxGeometry relative="1" as="geometry">
            <mxPoint x="77" y="565" as="targetPoint" />
          </mxGeometry>
        </mxCell>
        <mxCell id="QYOK-UgumVuoygTT7ox_-5" value="Pandas&amp;nbsp;&lt;div&gt;DataFrame&lt;/div&gt;" style="rounded=0;whiteSpace=wrap;html=1;dashed=1;dashPattern=8 8;verticalAlign=top;" parent="QYOK-UgumVuoygTT7ox_-1" vertex="1">
          <mxGeometry x="95" y="509" width="86" height="50" as="geometry" />
        </mxCell>
        <mxCell id="QYOK-UgumVuoygTT7ox_-7" value="Hopsworks Client" style="rounded=0;whiteSpace=wrap;html=1;rotation=0;" parent="QYOK-UgumVuoygTT7ox_-1" vertex="1">
          <mxGeometry x="37" y="565" width="120" height="30" as="geometry" />
        </mxCell>
        <mxCell id="QYOK-UgumVuoygTT7ox_-21" value="&lt;i style=&quot;white-space: normal;&quot;&gt;Python&amp;nbsp;&lt;/i&gt;&lt;i style=&quot;white-space: normal;&quot;&gt;Client&lt;/i&gt;" style="text;html=1;align=center;verticalAlign=middle;resizable=0;points=[];autosize=1;strokeColor=none;fillColor=none;" parent="QYOK-UgumVuoygTT7ox_-1" vertex="1">
          <mxGeometry x="52" y="480" width="90" height="30" as="geometry" />
        </mxCell>
        <mxCell id="QYOK-UgumVuoygTT7ox_-22" value="&lt;font style=&quot;font-size: 10px;&quot;&gt;calls fg.read(df)&amp;nbsp;&lt;/font&gt;" style="text;html=1;align=center;verticalAlign=middle;whiteSpace=wrap;rounded=0;fontColor=#FF9933;" parent="QYOK-UgumVuoygTT7ox_-1" vertex="1">
          <mxGeometry x="28" y="601" width="84" height="20" as="geometry" />
        </mxCell>
        <mxCell id="QYOK-UgumVuoygTT7ox_-33" value="&lt;span style=&quot;font-size: x-small;&quot;&gt;column-oriented&lt;/span&gt;" style="text;html=1;align=center;verticalAlign=middle;resizable=0;points=[];autosize=1;strokeColor=none;fillColor=none;fontColor=#0000FF;" parent="QYOK-UgumVuoygTT7ox_-1" vertex="1">
          <mxGeometry x="88.5" y="536" width="100" height="30" as="geometry" />
        </mxCell>
        <mxCell id="QYOK-UgumVuoygTT7ox_-34" value="" style="group" parent="QYOK-UgumVuoygTT7ox_-1" connectable="0" vertex="1">
          <mxGeometry x="20" y="580" width="30" height="30" as="geometry" />
        </mxCell>
        <mxCell id="QYOK-UgumVuoygTT7ox_-35" value="" style="ellipse;whiteSpace=wrap;html=1;aspect=fixed;" parent="QYOK-UgumVuoygTT7ox_-34" vertex="1">
          <mxGeometry x="5" y="6" width="20" height="20" as="geometry" />
        </mxCell>
        <mxCell id="QYOK-UgumVuoygTT7ox_-36" value="1" style="text;html=1;align=center;verticalAlign=middle;resizable=0;points=[];autosize=1;strokeColor=none;fillColor=none;" parent="QYOK-UgumVuoygTT7ox_-34" vertex="1">
          <mxGeometry width="30" height="30" as="geometry" />
        </mxCell>
        <mxCell id="ba8KTrNMyyHExYbTDLo3-0" value="" style="rounded=0;whiteSpace=wrap;html=1;verticalAlign=top;fillColor=#d5e8d4;strokeColor=#82b366;" parent="QYOK-UgumVuoygTT7ox_-1" vertex="1">
          <mxGeometry x="314" y="483" width="170" height="117" as="geometry" />
        </mxCell>
        <mxCell id="ba8KTrNMyyHExYbTDLo3-1" value="&lt;i style=&quot;white-space: normal;&quot;&gt;Hopsworks&amp;nbsp;&lt;/i&gt;&lt;i style=&quot;white-space: normal;&quot;&gt;Cluster&lt;/i&gt;" style="text;html=1;align=center;verticalAlign=middle;resizable=0;points=[];autosize=1;strokeColor=none;fillColor=none;" parent="QYOK-UgumVuoygTT7ox_-1" vertex="1">
          <mxGeometry x="339" y="480" width="120" height="30" as="geometry" />
        </mxCell>
        <mxCell id="cbzHn1vEBzVgquJP2fCj-0" value="" style="rounded=0;whiteSpace=wrap;html=1;fillColor=#ffe6cc;strokeColor=#d79b00;" parent="QYOK-UgumVuoygTT7ox_-1" vertex="1">
          <mxGeometry x="330" y="525" width="140.5" height="64" as="geometry" />
        </mxCell>
        <mxCell id="cbzHn1vEBzVgquJP2fCj-1" value="&lt;i&gt;ArrowFlight + DuckDB&lt;/i&gt;" style="text;html=1;align=center;verticalAlign=middle;resizable=0;points=[];autosize=1;strokeColor=none;fillColor=none;" parent="QYOK-UgumVuoygTT7ox_-1" vertex="1">
          <mxGeometry x="329.5" y="528.5" width="140" height="30" as="geometry" />
        </mxCell>
        <mxCell id="wAtf_kejYcMnYOWTdzsA-0" value="&lt;font style=&quot;font-size: 10px;&quot;&gt;read request&lt;/font&gt;" style="text;html=1;align=center;verticalAlign=middle;resizable=0;points=[];autosize=1;strokeColor=none;fillColor=none;fontColor=#FF9933;" parent="QYOK-UgumVuoygTT7ox_-1" vertex="1">
          <mxGeometry x="157" y="584" width="80" height="30" as="geometry" />
        </mxCell>
        <mxCell id="PFcNvD-fHg91uvB2SXM4-3" style="edgeStyle=orthogonalEdgeStyle;rounded=0;orthogonalLoop=1;jettySize=auto;html=1;entryX=0;entryY=0.75;entryDx=0;entryDy=0;exitX=0.75;exitY=1;exitDx=0;exitDy=0;curved=1;endArrow=classicThin;endFill=1;" parent="QYOK-UgumVuoygTT7ox_-1" source="QYOK-UgumVuoygTT7ox_-7" target="cbzHn1vEBzVgquJP2fCj-0" edge="1">
          <mxGeometry relative="1" as="geometry" />
        </mxCell>
        <mxCell id="PFcNvD-fHg91uvB2SXM4-0" value="" style="group" parent="QYOK-UgumVuoygTT7ox_-1" connectable="0" vertex="1">
          <mxGeometry x="226" y="584" width="30" height="30" as="geometry" />
        </mxCell>
        <mxCell id="PFcNvD-fHg91uvB2SXM4-1" value="" style="ellipse;whiteSpace=wrap;html=1;aspect=fixed;" parent="PFcNvD-fHg91uvB2SXM4-0" vertex="1">
          <mxGeometry x="5" y="6" width="20" height="20" as="geometry" />
        </mxCell>
        <mxCell id="PFcNvD-fHg91uvB2SXM4-2" value="2" style="text;html=1;align=center;verticalAlign=middle;resizable=0;points=[];autosize=1;strokeColor=none;fillColor=none;" parent="PFcNvD-fHg91uvB2SXM4-0" vertex="1">
          <mxGeometry width="30" height="30" as="geometry" />
        </mxCell>
        <mxCell id="aDcIcqyaxxSHz6JHdj5N-4" value="&lt;span style=&quot;font-size: 10px;&quot;&gt;read request&lt;/span&gt;" style="text;html=1;align=center;verticalAlign=middle;resizable=0;points=[];autosize=1;strokeColor=none;fillColor=none;fontColor=#FF9933;" parent="QYOK-UgumVuoygTT7ox_-1" vertex="1">
          <mxGeometry x="518" y="574" width="80" height="30" as="geometry" />
        </mxCell>
        <mxCell id="LBaZS7v9-VuiJdraRtgE-1" value="" style="group" parent="QYOK-UgumVuoygTT7ox_-1" connectable="0" vertex="1">
          <mxGeometry x="508" y="490" width="30" height="30" as="geometry" />
        </mxCell>
        <mxCell id="LBaZS7v9-VuiJdraRtgE-2" value="" style="ellipse;whiteSpace=wrap;html=1;aspect=fixed;" parent="LBaZS7v9-VuiJdraRtgE-1" vertex="1">
          <mxGeometry x="5" y="6" width="20" height="20" as="geometry" />
        </mxCell>
        <mxCell id="LBaZS7v9-VuiJdraRtgE-3" value="4" style="text;html=1;align=center;verticalAlign=middle;resizable=0;points=[];autosize=1;strokeColor=none;fillColor=none;" parent="LBaZS7v9-VuiJdraRtgE-1" vertex="1">
          <mxGeometry width="30" height="30" as="geometry" />
        </mxCell>
        <mxCell id="LBaZS7v9-VuiJdraRtgE-7" value="&lt;span style=&quot;caret-color: rgb(255, 153, 51); color: rgb(255, 153, 51); font-size: 10px;&quot;&gt;return table&lt;/span&gt;" style="text;html=1;align=center;verticalAlign=middle;resizable=0;points=[];autosize=1;strokeColor=none;fillColor=none;" parent="QYOK-UgumVuoygTT7ox_-1" vertex="1">
          <mxGeometry x="527" y="490" width="70" height="30" as="geometry" />
        </mxCell>
        <mxCell id="LBaZS7v9-VuiJdraRtgE-8" value="" style="endArrow=classic;html=1;rounded=0;entryX=0.989;entryY=0.624;entryDx=0;entryDy=0;entryPerimeter=0;curved=1;" parent="QYOK-UgumVuoygTT7ox_-1" edge="1">
          <mxGeometry width="50" height="50" relative="1" as="geometry">
            <mxPoint x="330" y="541" as="sourcePoint" />
            <mxPoint x="156.67999999999995" y="583.7199999999999" as="targetPoint" />
            <Array as="points">
              <mxPoint x="261" y="540" />
              <mxPoint x="221" y="584" />
            </Array>
          </mxGeometry>
        </mxCell>
        <mxCell id="io4G8iCz5WEbVmh3dCAH-7" value="" style="group" parent="QYOK-UgumVuoygTT7ox_-1" connectable="0" vertex="1">
          <mxGeometry x="208" y="529" width="100" height="41" as="geometry" />
        </mxCell>
        <mxCell id="io4G8iCz5WEbVmh3dCAH-1" value="Arrow Table" style="rounded=0;whiteSpace=wrap;html=1;dashed=1;dashPattern=8 8;verticalAlign=top;" parent="io4G8iCz5WEbVmh3dCAH-7" vertex="1">
          <mxGeometry x="6.5" width="86" height="34.5" as="geometry" />
        </mxCell>
        <mxCell id="io4G8iCz5WEbVmh3dCAH-2" value="&lt;span style=&quot;font-size: x-small;&quot;&gt;column-oriented&lt;/span&gt;" style="text;html=1;align=center;verticalAlign=middle;resizable=0;points=[];autosize=1;strokeColor=none;fillColor=none;fontColor=#0000FF;" parent="io4G8iCz5WEbVmh3dCAH-7" vertex="1">
          <mxGeometry y="11" width="100" height="30" as="geometry" />
        </mxCell>
        <mxCell id="LBaZS7v9-VuiJdraRtgE-9" value="" style="group" parent="QYOK-UgumVuoygTT7ox_-1" connectable="0" vertex="1">
          <mxGeometry x="213.5" y="498" width="30" height="30" as="geometry" />
        </mxCell>
        <mxCell id="LBaZS7v9-VuiJdraRtgE-10" value="" style="ellipse;whiteSpace=wrap;html=1;aspect=fixed;" parent="LBaZS7v9-VuiJdraRtgE-9" vertex="1">
          <mxGeometry x="5" y="6" width="20" height="20" as="geometry" />
        </mxCell>
        <mxCell id="LBaZS7v9-VuiJdraRtgE-11" value="5" style="text;html=1;align=center;verticalAlign=middle;resizable=0;points=[];autosize=1;strokeColor=none;fillColor=none;" parent="LBaZS7v9-VuiJdraRtgE-9" vertex="1">
          <mxGeometry width="30" height="30" as="geometry" />
        </mxCell>
        <mxCell id="LBaZS7v9-VuiJdraRtgE-12" value="&lt;span style=&quot;caret-color: rgb(255, 153, 51); color: rgb(255, 153, 51); font-size: 10px;&quot;&gt;return table&lt;/span&gt;" style="text;html=1;align=center;verticalAlign=middle;resizable=0;points=[];autosize=1;strokeColor=none;fillColor=none;" parent="QYOK-UgumVuoygTT7ox_-1" vertex="1">
          <mxGeometry x="232.5" y="498" width="70" height="30" as="geometry" />
        </mxCell>
        <mxCell id="qV-8IugOM8QRLWdjbgaW-0" value="" style="group" parent="QYOK-UgumVuoygTT7ox_-1" connectable="0" vertex="1">
          <mxGeometry x="40" y="530" width="30" height="30" as="geometry" />
        </mxCell>
        <mxCell id="qV-8IugOM8QRLWdjbgaW-1" value="" style="ellipse;whiteSpace=wrap;html=1;aspect=fixed;" parent="qV-8IugOM8QRLWdjbgaW-0" vertex="1">
          <mxGeometry x="5" y="6" width="20" height="20" as="geometry" />
        </mxCell>
        <mxCell id="qV-8IugOM8QRLWdjbgaW-2" value="6" style="text;html=1;align=center;verticalAlign=middle;resizable=0;points=[];autosize=1;strokeColor=none;fillColor=none;" parent="qV-8IugOM8QRLWdjbgaW-0" vertex="1">
          <mxGeometry width="30" height="30" as="geometry" />
        </mxCell>
        <mxCell id="qV-8IugOM8QRLWdjbgaW-3" value="&lt;span style=&quot;caret-color: rgb(255, 153, 51); color: rgb(255, 153, 51); font-size: 10px;&quot;&gt;copy to pandas&lt;/span&gt;" style="text;html=1;align=center;verticalAlign=middle;resizable=0;points=[];autosize=1;strokeColor=none;fillColor=none;" parent="QYOK-UgumVuoygTT7ox_-1" vertex="1">
          <mxGeometry x="6" y="512" width="90" height="30" as="geometry" />
        </mxCell>
        <mxCell id="IMzRYWP-xbRWMXtcixVS-0" value="" style="rounded=0;whiteSpace=wrap;html=1;fillColor=#E6E6E6;fontColor=#333333;strokeColor=none;" parent="QYOK-UgumVuoygTT7ox_-1" vertex="1">
          <mxGeometry x="616.5" y="482.5" width="245" height="140" as="geometry" />
        </mxCell>
        <mxCell id="IMzRYWP-xbRWMXtcixVS-1" value="" style="shape=parallelogram;perimeter=parallelogramPerimeter;whiteSpace=wrap;html=1;fixedSize=1;size=15;" parent="QYOK-UgumVuoygTT7ox_-1" vertex="1">
          <mxGeometry x="619" y="491.5" width="220" height="89.5" as="geometry" />
        </mxCell>
        <mxCell id="IMzRYWP-xbRWMXtcixVS-2" value="" style="shape=parallelogram;perimeter=parallelogramPerimeter;whiteSpace=wrap;html=1;fixedSize=1;size=15;" parent="QYOK-UgumVuoygTT7ox_-1" vertex="1">
          <mxGeometry x="630" y="501.5" width="219" height="89.5" as="geometry" />
        </mxCell>
        <mxCell id="IMzRYWP-xbRWMXtcixVS-3" value="" style="group" parent="QYOK-UgumVuoygTT7ox_-1" connectable="0" vertex="1">
          <mxGeometry x="651" y="506.5" width="126" height="92" as="geometry" />
        </mxCell>
        <mxCell id="IMzRYWP-xbRWMXtcixVS-4" value="" style="shape=cube;whiteSpace=wrap;html=1;boundedLbl=1;backgroundOutline=1;darkOpacity=0.05;darkOpacity2=0.1;size=7;fillColor=#e1d5e7;strokeColor=#9673a6;" parent="IMzRYWP-xbRWMXtcixVS-3" vertex="1">
          <mxGeometry width="120" height="80" as="geometry" />
        </mxCell>
        <mxCell id="IMzRYWP-xbRWMXtcixVS-5" value="Apache Hudi Table" style="text;html=1;align=center;verticalAlign=middle;resizable=0;points=[];autosize=1;strokeColor=none;fillColor=none;" parent="IMzRYWP-xbRWMXtcixVS-3" vertex="1">
          <mxGeometry x="5" y="10" width="120" height="30" as="geometry" />
        </mxCell>
        <mxCell id="IMzRYWP-xbRWMXtcixVS-6" value="" style="group" parent="IMzRYWP-xbRWMXtcixVS-3" connectable="0" vertex="1">
          <mxGeometry x="16" y="40" width="110" height="42" as="geometry" />
        </mxCell>
        <mxCell id="IMzRYWP-xbRWMXtcixVS-7" value="&lt;div&gt;.parquet files&lt;/div&gt;" style="rounded=0;whiteSpace=wrap;html=1;dashed=1;dashPattern=8 8;verticalAlign=top;" parent="IMzRYWP-xbRWMXtcixVS-6" vertex="1">
          <mxGeometry width="100" height="36.4" as="geometry" />
        </mxCell>
        <mxCell id="IMzRYWP-xbRWMXtcixVS-8" value="&lt;font color=&quot;#0000ff&quot; size=&quot;1&quot;&gt;column-oriented&lt;/font&gt;" style="text;html=1;align=center;verticalAlign=middle;resizable=0;points=[];autosize=1;strokeColor=none;fillColor=none;" parent="IMzRYWP-xbRWMXtcixVS-6" vertex="1">
          <mxGeometry x="10" y="14" width="100" height="30" as="geometry" />
        </mxCell>
        <mxCell id="IMzRYWP-xbRWMXtcixVS-9" value="&lt;i&gt;Feature&amp;nbsp;&lt;/i&gt;&lt;div&gt;&lt;i&gt;Group (fg)&lt;/i&gt;&lt;/div&gt;" style="text;html=1;align=center;verticalAlign=middle;resizable=0;points=[];autosize=1;strokeColor=none;fillColor=none;" parent="QYOK-UgumVuoygTT7ox_-1" vertex="1">
          <mxGeometry x="767" y="526.25" width="80" height="40" as="geometry" />
        </mxCell>
        <mxCell id="IMzRYWP-xbRWMXtcixVS-10" value="HopsFS" style="text;html=1;align=center;verticalAlign=middle;resizable=0;points=[];autosize=1;strokeColor=none;fillColor=none;" parent="QYOK-UgumVuoygTT7ox_-1" vertex="1">
          <mxGeometry x="704" y="593.5" width="70" height="30" as="geometry" />
        </mxCell>
        <mxCell id="aDcIcqyaxxSHz6JHdj5N-0" value="" style="endArrow=classicThin;html=1;rounded=0;exitX=1;exitY=0.75;exitDx=0;exitDy=0;entryX=-0.006;entryY=0.826;entryDx=0;entryDy=0;entryPerimeter=0;endFill=1;" parent="QYOK-UgumVuoygTT7ox_-1" target="IMzRYWP-xbRWMXtcixVS-4" edge="1">
          <mxGeometry width="50" height="50" relative="1" as="geometry">
            <mxPoint x="470.5" y="572" as="sourcePoint" />
            <mxPoint x="646.52" y="573.1320000000001" as="targetPoint" />
          </mxGeometry>
        </mxCell>
        <mxCell id="LBaZS7v9-VuiJdraRtgE-0" value="" style="endArrow=classicThin;html=1;rounded=0;exitX=-0.006;exitY=0.409;exitDx=0;exitDy=0;entryX=1.016;entryY=0.34;entryDx=0;entryDy=0;entryPerimeter=0;endFill=1;exitPerimeter=0;" parent="QYOK-UgumVuoygTT7ox_-1" source="IMzRYWP-xbRWMXtcixVS-4" target="cbzHn1vEBzVgquJP2fCj-1" edge="1">
          <mxGeometry width="50" height="50" relative="1" as="geometry">
            <mxPoint x="646.52" y="541.152" as="sourcePoint" />
            <mxPoint x="540" y="440" as="targetPoint" />
          </mxGeometry>
        </mxCell>
        <mxCell id="io4G8iCz5WEbVmh3dCAH-8" value="" style="group" parent="QYOK-UgumVuoygTT7ox_-1" connectable="0" vertex="1">
          <mxGeometry x="500" y="520" width="100" height="41" as="geometry" />
        </mxCell>
        <mxCell id="io4G8iCz5WEbVmh3dCAH-5" value="Arrow Table" style="rounded=0;whiteSpace=wrap;html=1;dashed=1;dashPattern=8 8;verticalAlign=top;" parent="io4G8iCz5WEbVmh3dCAH-8" vertex="1">
          <mxGeometry x="6.5" width="86" height="34.5" as="geometry" />
        </mxCell>
        <mxCell id="io4G8iCz5WEbVmh3dCAH-6" value="&lt;span style=&quot;font-size: x-small;&quot;&gt;column-oriented&lt;/span&gt;" style="text;html=1;align=center;verticalAlign=middle;resizable=0;points=[];autosize=1;strokeColor=none;fillColor=none;fontColor=#0000FF;" parent="io4G8iCz5WEbVmh3dCAH-8" vertex="1">
          <mxGeometry y="11" width="100" height="30" as="geometry" />
        </mxCell>
        <mxCell id="aDcIcqyaxxSHz6JHdj5N-1" value="" style="group" parent="QYOK-UgumVuoygTT7ox_-1" connectable="0" vertex="1">
          <mxGeometry x="540" y="557" width="30" height="30" as="geometry" />
        </mxCell>
        <mxCell id="aDcIcqyaxxSHz6JHdj5N-2" value="" style="ellipse;whiteSpace=wrap;html=1;aspect=fixed;" parent="aDcIcqyaxxSHz6JHdj5N-1" vertex="1">
          <mxGeometry x="5" y="6" width="20" height="20" as="geometry" />
        </mxCell>
        <mxCell id="aDcIcqyaxxSHz6JHdj5N-3" value="3" style="text;html=1;align=center;verticalAlign=middle;resizable=0;points=[];autosize=1;strokeColor=none;fillColor=none;" parent="aDcIcqyaxxSHz6JHdj5N-1" vertex="1">
          <mxGeometry width="30" height="30" as="geometry" />
        </mxCell>
      </root>
    </mxGraphModel>
  </diagram>
  <diagram name="delta_write" id="rpMzecMQP9hohBHLLt1f">
    <mxGraphModel dx="1050" dy="522" grid="1" gridSize="10" guides="1" tooltips="1" connect="1" arrows="1" fold="1" page="1" pageScale="1" pageWidth="827" pageHeight="1169" math="0" shadow="0">
      <root>
        <mxCell id="9WEx4iddH-ThUdtr-N7B-0" />
        <mxCell id="9WEx4iddH-ThUdtr-N7B-1" parent="9WEx4iddH-ThUdtr-N7B-0" />
        <mxCell id="9WEx4iddH-ThUdtr-N7B-2" value="" style="rounded=0;whiteSpace=wrap;html=1;fillColor=#E6E6E6;fontColor=#333333;strokeColor=none;" parent="9WEx4iddH-ThUdtr-N7B-1" vertex="1">
          <mxGeometry x="434" y="479" width="149" height="121" as="geometry" />
        </mxCell>
        <mxCell id="9WEx4iddH-ThUdtr-N7B-3" value="" style="rounded=0;whiteSpace=wrap;html=1;verticalAlign=top;fillColor=#dae8fc;strokeColor=#6c8ebf;" parent="9WEx4iddH-ThUdtr-N7B-1" vertex="1">
          <mxGeometry x="120" y="479" width="212" height="92" as="geometry" />
        </mxCell>
        <mxCell id="9WEx4iddH-ThUdtr-N7B-4" style="edgeStyle=orthogonalEdgeStyle;rounded=0;orthogonalLoop=1;jettySize=auto;html=1;exitX=0.005;exitY=0.559;exitDx=0;exitDy=0;curved=1;entryX=0.327;entryY=0.04;entryDx=0;entryDy=0;entryPerimeter=0;exitPerimeter=0;endArrow=classicThin;endFill=1;" parent="9WEx4iddH-ThUdtr-N7B-1" source="9WEx4iddH-ThUdtr-N7B-5" target="9WEx4iddH-ThUdtr-N7B-7" edge="1">
          <mxGeometry relative="1" as="geometry">
            <mxPoint x="189" y="561" as="targetPoint" />
          </mxGeometry>
        </mxCell>
        <mxCell id="9WEx4iddH-ThUdtr-N7B-5" value="Arrow Table" style="rounded=0;whiteSpace=wrap;html=1;dashed=1;dashPattern=8 8;verticalAlign=top;" parent="9WEx4iddH-ThUdtr-N7B-1" vertex="1">
          <mxGeometry x="243" y="513" width="81" height="34" as="geometry" />
        </mxCell>
        <mxCell id="9WEx4iddH-ThUdtr-N7B-7" value="delta-rs Client" style="rounded=0;whiteSpace=wrap;html=1;rotation=0;" parent="9WEx4iddH-ThUdtr-N7B-1" vertex="1">
          <mxGeometry x="149" y="561" width="120" height="30" as="geometry" />
        </mxCell>
        <mxCell id="9WEx4iddH-ThUdtr-N7B-18" value="HopsFS" style="text;html=1;align=center;verticalAlign=middle;resizable=0;points=[];autosize=1;strokeColor=none;fillColor=none;" parent="9WEx4iddH-ThUdtr-N7B-1" vertex="1">
          <mxGeometry x="478" y="571" width="70" height="30" as="geometry" />
        </mxCell>
        <mxCell id="9WEx4iddH-ThUdtr-N7B-21" value="&lt;i style=&quot;white-space: normal;&quot;&gt;Python&amp;nbsp;&lt;/i&gt;&lt;i style=&quot;white-space: normal;&quot;&gt;Client&lt;/i&gt;" style="text;html=1;align=center;verticalAlign=middle;resizable=0;points=[];autosize=1;strokeColor=none;fillColor=none;" parent="9WEx4iddH-ThUdtr-N7B-1" vertex="1">
          <mxGeometry x="164" y="476" width="90" height="30" as="geometry" />
        </mxCell>
        <mxCell id="9WEx4iddH-ThUdtr-N7B-22" value="&lt;font style=&quot;font-size: 10px;&quot;&gt;calls write_deltalake(df)&lt;/font&gt;" style="text;html=1;align=center;verticalAlign=middle;whiteSpace=wrap;rounded=0;fontColor=#FF9933;" parent="9WEx4iddH-ThUdtr-N7B-1" vertex="1">
          <mxGeometry x="131" y="510.5" width="110" height="20" as="geometry" />
        </mxCell>
        <mxCell id="9WEx4iddH-ThUdtr-N7B-33" value="&lt;span style=&quot;font-size: x-small;&quot;&gt;column-oriented&lt;/span&gt;" style="text;html=1;align=center;verticalAlign=middle;resizable=0;points=[];autosize=1;strokeColor=none;fillColor=none;fontColor=#0000FF;" parent="9WEx4iddH-ThUdtr-N7B-1" vertex="1">
          <mxGeometry x="235.5" y="524" width="100" height="30" as="geometry" />
        </mxCell>
        <mxCell id="9WEx4iddH-ThUdtr-N7B-34" value="" style="group" parent="9WEx4iddH-ThUdtr-N7B-1" vertex="1" connectable="0">
          <mxGeometry x="194" y="526" width="30" height="30" as="geometry" />
        </mxCell>
        <mxCell id="9WEx4iddH-ThUdtr-N7B-35" value="" style="ellipse;whiteSpace=wrap;html=1;aspect=fixed;" parent="9WEx4iddH-ThUdtr-N7B-34" vertex="1">
          <mxGeometry x="5" y="6" width="20" height="20" as="geometry" />
        </mxCell>
        <mxCell id="9WEx4iddH-ThUdtr-N7B-36" value="1" style="text;html=1;align=center;verticalAlign=middle;resizable=0;points=[];autosize=1;strokeColor=none;fillColor=none;" parent="9WEx4iddH-ThUdtr-N7B-34" vertex="1">
          <mxGeometry width="30" height="30" as="geometry" />
        </mxCell>
        <mxCell id="KikMQPibFgpdp8T8mHzP-0" value="&lt;font size=&quot;1&quot; style=&quot;caret-color: rgb(255, 153, 51); color: rgb(255, 153, 51); font-family: Helvetica; font-style: normal; font-variant-caps: normal; font-weight: 400; letter-spacing: normal; orphans: auto; text-align: center; text-indent: 0px; text-transform: none; white-space: nowrap; widows: auto; word-spacing: 0px; -webkit-text-stroke-width: 0px; text-decoration: none;&quot;&gt;writes&amp;nbsp;&lt;/font&gt;&lt;span style=&quot;caret-color: rgb(255, 153, 51); color: rgb(255, 153, 51); font-family: Helvetica; font-style: normal; font-variant-caps: normal; font-weight: 400; letter-spacing: normal; orphans: auto; text-align: center; text-indent: 0px; text-transform: none; white-space: nowrap; widows: auto; word-spacing: 0px; -webkit-text-stroke-width: 0px; text-decoration: none; font-size: x-small;&quot;&gt;table&lt;/span&gt;&lt;div style=&quot;caret-color: rgb(255, 153, 51); color: rgb(255, 153, 51); font-family: Helvetica; font-size: 12px; font-style: normal; font-variant-caps: normal; font-weight: 400; letter-spacing: normal; orphans: auto; text-align: center; text-indent: 0px; text-transform: none; white-space: nowrap; widows: auto; word-spacing: 0px; -webkit-text-stroke-width: 0px; text-decoration: none;&quot;&gt;&lt;span style=&quot;font-size: x-small;&quot;&gt;by&lt;span class=&quot;Apple-converted-space&quot;&gt;&amp;nbsp;&lt;/span&gt;&lt;font color=&quot;#0000ff&quot;&gt;column&lt;/font&gt;&lt;/span&gt;&lt;/div&gt;" style="text;whiteSpace=wrap;html=1;" parent="9WEx4iddH-ThUdtr-N7B-1" vertex="1">
          <mxGeometry x="371" y="530" width="60" height="50" as="geometry" />
        </mxCell>
        <mxCell id="lRSEu4QFp_bhw3zzZROr-0" style="edgeStyle=orthogonalEdgeStyle;rounded=0;orthogonalLoop=1;jettySize=auto;html=1;entryX=0;entryY=0;entryDx=0;entryDy=36.5;curved=1;exitX=1;exitY=0.75;exitDx=0;exitDy=0;entryPerimeter=0;" parent="9WEx4iddH-ThUdtr-N7B-1" source="9WEx4iddH-ThUdtr-N7B-7" target="NH5F3yxeBbGZY75qyfsg-1" edge="1">
          <mxGeometry relative="1" as="geometry">
            <mxPoint x="447" y="520.5" as="targetPoint" />
          </mxGeometry>
        </mxCell>
        <mxCell id="lRSEu4QFp_bhw3zzZROr-1" value="" style="group" parent="9WEx4iddH-ThUdtr-N7B-1" connectable="0" vertex="1">
          <mxGeometry x="344" y="534" width="30" height="30" as="geometry" />
        </mxCell>
        <mxCell id="lRSEu4QFp_bhw3zzZROr-2" value="" style="ellipse;whiteSpace=wrap;html=1;aspect=fixed;" parent="lRSEu4QFp_bhw3zzZROr-1" vertex="1">
          <mxGeometry x="5" y="6" width="20" height="20" as="geometry" />
        </mxCell>
        <mxCell id="lRSEu4QFp_bhw3zzZROr-3" value="2" style="text;html=1;align=center;verticalAlign=middle;resizable=0;points=[];autosize=1;strokeColor=none;fillColor=none;" parent="lRSEu4QFp_bhw3zzZROr-1" vertex="1">
          <mxGeometry width="30" height="30" as="geometry" />
        </mxCell>
        <mxCell id="NH5F3yxeBbGZY75qyfsg-0" value="" style="group" parent="9WEx4iddH-ThUdtr-N7B-1" connectable="0" vertex="1">
          <mxGeometry x="450" y="490" width="126" height="92" as="geometry" />
        </mxCell>
        <mxCell id="NH5F3yxeBbGZY75qyfsg-1" value="" style="shape=cube;whiteSpace=wrap;html=1;boundedLbl=1;backgroundOutline=1;darkOpacity=0.05;darkOpacity2=0.1;size=7;fillColor=#ffe6cc;strokeColor=#d79b00;" parent="NH5F3yxeBbGZY75qyfsg-0" vertex="1">
          <mxGeometry width="120" height="80" as="geometry" />
        </mxCell>
        <mxCell id="NH5F3yxeBbGZY75qyfsg-2" value="Delta Lake table" style="text;html=1;align=center;verticalAlign=middle;resizable=0;points=[];autosize=1;strokeColor=none;fillColor=none;" parent="NH5F3yxeBbGZY75qyfsg-0" vertex="1">
          <mxGeometry x="10" y="10" width="110" height="30" as="geometry" />
        </mxCell>
        <mxCell id="NH5F3yxeBbGZY75qyfsg-3" value="" style="group" parent="NH5F3yxeBbGZY75qyfsg-0" connectable="0" vertex="1">
          <mxGeometry x="16" y="40" width="110" height="42" as="geometry" />
        </mxCell>
        <mxCell id="NH5F3yxeBbGZY75qyfsg-4" value="&lt;div&gt;.parquet files&lt;/div&gt;" style="rounded=0;whiteSpace=wrap;html=1;dashed=1;dashPattern=8 8;verticalAlign=top;" parent="NH5F3yxeBbGZY75qyfsg-3" vertex="1">
          <mxGeometry width="100" height="36.4" as="geometry" />
        </mxCell>
        <mxCell id="NH5F3yxeBbGZY75qyfsg-5" value="&lt;font color=&quot;#0000ff&quot; size=&quot;1&quot;&gt;column-oriented&lt;/font&gt;" style="text;html=1;align=center;verticalAlign=middle;resizable=0;points=[];autosize=1;strokeColor=none;fillColor=none;" parent="NH5F3yxeBbGZY75qyfsg-3" vertex="1">
          <mxGeometry x="10" y="14" width="100" height="30" as="geometry" />
        </mxCell>
      </root>
    </mxGraphModel>
  </diagram>
  <diagram name="delta_read" id="Otx52RUA-QxXia0rmbS2">
    <mxGraphModel dx="1050" dy="522" grid="1" gridSize="10" guides="1" tooltips="1" connect="1" arrows="1" fold="1" page="1" pageScale="1" pageWidth="827" pageHeight="1169" math="0" shadow="0">
      <root>
        <mxCell id="0VxUf1fHCBOi7_iufEZi-0" />
        <mxCell id="0VxUf1fHCBOi7_iufEZi-1" parent="0VxUf1fHCBOi7_iufEZi-0" />
        <mxCell id="0VxUf1fHCBOi7_iufEZi-3" value="" style="rounded=0;whiteSpace=wrap;html=1;verticalAlign=top;fillColor=#dae8fc;strokeColor=#6c8ebf;" parent="0VxUf1fHCBOi7_iufEZi-1" vertex="1">
          <mxGeometry x="120" y="479" width="212" height="92" as="geometry" />
        </mxCell>
        <mxCell id="0VxUf1fHCBOi7_iufEZi-4" style="edgeStyle=orthogonalEdgeStyle;rounded=0;orthogonalLoop=1;jettySize=auto;html=1;exitX=0.005;exitY=0.559;exitDx=0;exitDy=0;curved=1;entryX=0.327;entryY=0.04;entryDx=0;entryDy=0;entryPerimeter=0;exitPerimeter=0;endArrow=none;endFill=0;startArrow=classicThin;startFill=1;" parent="0VxUf1fHCBOi7_iufEZi-1" source="0VxUf1fHCBOi7_iufEZi-5" target="0VxUf1fHCBOi7_iufEZi-6" edge="1">
          <mxGeometry relative="1" as="geometry">
            <mxPoint x="189" y="561" as="targetPoint" />
          </mxGeometry>
        </mxCell>
        <mxCell id="0VxUf1fHCBOi7_iufEZi-5" value="Arrow Table" style="rounded=0;whiteSpace=wrap;html=1;dashed=1;dashPattern=8 8;verticalAlign=top;" parent="0VxUf1fHCBOi7_iufEZi-1" vertex="1">
          <mxGeometry x="243" y="513" width="81" height="34" as="geometry" />
        </mxCell>
        <mxCell id="0VxUf1fHCBOi7_iufEZi-6" value="delta-rs Client" style="rounded=0;whiteSpace=wrap;html=1;rotation=0;" parent="0VxUf1fHCBOi7_iufEZi-1" vertex="1">
          <mxGeometry x="149" y="565" width="120" height="30" as="geometry" />
        </mxCell>
        <mxCell id="0VxUf1fHCBOi7_iufEZi-11" value="&lt;i style=&quot;white-space: normal;&quot;&gt;Python&amp;nbsp;&lt;/i&gt;&lt;i style=&quot;white-space: normal;&quot;&gt;Client&lt;/i&gt;" style="text;html=1;align=center;verticalAlign=middle;resizable=0;points=[];autosize=1;strokeColor=none;fillColor=none;" parent="0VxUf1fHCBOi7_iufEZi-1" vertex="1">
          <mxGeometry x="179" y="477.5" width="90" height="30" as="geometry" />
        </mxCell>
        <mxCell id="0VxUf1fHCBOi7_iufEZi-12" value="&lt;div style=&quot;text-align: left;&quot;&gt;&lt;span style=&quot;font-size: 10px;&quot;&gt;calls&amp;nbsp;&lt;/span&gt;&lt;/div&gt;&lt;div style=&quot;text-align: left;&quot;&gt;&lt;font style=&quot;font-size: 10px;&quot;&gt;dt = DeltaTable(address)&lt;/font&gt;&lt;/div&gt;&lt;div style=&quot;text-align: left;&quot;&gt;&lt;font style=&quot;font-size: 10px;&quot;&gt;dt.to_pyarrow_table()&lt;/font&gt;&lt;/div&gt;&lt;div&gt;&lt;font style=&quot;font-size: 10px;&quot;&gt;&lt;br&gt;&lt;/font&gt;&lt;/div&gt;" style="text;html=1;align=center;verticalAlign=middle;whiteSpace=wrap;rounded=0;fontColor=#FF9933;" parent="0VxUf1fHCBOi7_iufEZi-1" vertex="1">
          <mxGeometry x="98.5" y="609" width="139" height="20" as="geometry" />
        </mxCell>
        <mxCell id="0VxUf1fHCBOi7_iufEZi-14" value="&lt;span style=&quot;font-size: x-small;&quot;&gt;column-oriented&lt;/span&gt;" style="text;html=1;align=center;verticalAlign=middle;resizable=0;points=[];autosize=1;strokeColor=none;fillColor=none;fontColor=#0000FF;" parent="0VxUf1fHCBOi7_iufEZi-1" vertex="1">
          <mxGeometry x="235.5" y="524" width="100" height="30" as="geometry" />
        </mxCell>
        <mxCell id="0VxUf1fHCBOi7_iufEZi-15" value="" style="group" parent="0VxUf1fHCBOi7_iufEZi-1" vertex="1" connectable="0">
          <mxGeometry x="133" y="579" width="30" height="30" as="geometry" />
        </mxCell>
        <mxCell id="0VxUf1fHCBOi7_iufEZi-16" value="" style="ellipse;whiteSpace=wrap;html=1;aspect=fixed;" parent="0VxUf1fHCBOi7_iufEZi-15" vertex="1">
          <mxGeometry x="5" y="6" width="20" height="20" as="geometry" />
        </mxCell>
        <mxCell id="0VxUf1fHCBOi7_iufEZi-17" value="1" style="text;html=1;align=center;verticalAlign=middle;resizable=0;points=[];autosize=1;strokeColor=none;fillColor=none;" parent="0VxUf1fHCBOi7_iufEZi-15" vertex="1">
          <mxGeometry width="30" height="30" as="geometry" />
        </mxCell>
        <mxCell id="43vGoR6cYajY8SkYcqnb-1" value="&lt;span style=&quot;caret-color: rgb(255, 153, 51); color: rgb(255, 153, 51); font-size: x-small;&quot;&gt;read request&lt;/span&gt;" style="text;html=1;align=center;verticalAlign=middle;resizable=0;points=[];autosize=1;strokeColor=none;fillColor=none;" parent="0VxUf1fHCBOi7_iufEZi-1" vertex="1">
          <mxGeometry x="404" y="569" width="80" height="30" as="geometry" />
        </mxCell>
        <mxCell id="bcuruBq53pRpjTrFLau1-3" value="" style="group" parent="0VxUf1fHCBOi7_iufEZi-1" connectable="0" vertex="1">
          <mxGeometry x="370" y="482" width="30" height="30" as="geometry" />
        </mxCell>
        <mxCell id="bcuruBq53pRpjTrFLau1-4" value="" style="ellipse;whiteSpace=wrap;html=1;aspect=fixed;" parent="bcuruBq53pRpjTrFLau1-3" vertex="1">
          <mxGeometry x="5" y="6" width="20" height="20" as="geometry" />
        </mxCell>
        <mxCell id="bcuruBq53pRpjTrFLau1-5" value="3" style="text;html=1;align=center;verticalAlign=middle;resizable=0;points=[];autosize=1;strokeColor=none;fillColor=none;" parent="bcuruBq53pRpjTrFLau1-3" vertex="1">
          <mxGeometry width="30" height="30" as="geometry" />
        </mxCell>
        <mxCell id="N3Xdp8xb8riNcnarMkKC-0" value="&lt;span style=&quot;caret-color: rgb(255, 153, 51); color: rgb(255, 153, 51); font-size: 10px;&quot;&gt;return table&lt;/span&gt;" style="text;html=1;align=center;verticalAlign=middle;resizable=0;points=[];autosize=1;strokeColor=none;fillColor=none;" parent="0VxUf1fHCBOi7_iufEZi-1" vertex="1">
          <mxGeometry x="389" y="481.5" width="70" height="30" as="geometry" />
        </mxCell>
        <mxCell id="Es3uO9xt9qL3bdejCcUP-0" value="" style="group" parent="0VxUf1fHCBOi7_iufEZi-1" connectable="0" vertex="1">
          <mxGeometry x="190" y="521.5" width="30" height="30" as="geometry" />
        </mxCell>
        <mxCell id="Es3uO9xt9qL3bdejCcUP-1" value="" style="ellipse;whiteSpace=wrap;html=1;aspect=fixed;" parent="Es3uO9xt9qL3bdejCcUP-0" vertex="1">
          <mxGeometry x="5" y="6" width="20" height="20" as="geometry" />
        </mxCell>
        <mxCell id="Es3uO9xt9qL3bdejCcUP-2" value="4" style="text;html=1;align=center;verticalAlign=middle;resizable=0;points=[];autosize=1;strokeColor=none;fillColor=none;" parent="Es3uO9xt9qL3bdejCcUP-0" vertex="1">
          <mxGeometry width="30" height="30" as="geometry" />
        </mxCell>
        <mxCell id="Es3uO9xt9qL3bdejCcUP-3" value="&lt;span style=&quot;caret-color: rgb(255, 153, 51); color: rgb(255, 153, 51); font-size: 10px;&quot;&gt;copy table&lt;/span&gt;" style="text;html=1;align=center;verticalAlign=middle;resizable=0;points=[];autosize=1;strokeColor=none;fillColor=none;" parent="0VxUf1fHCBOi7_iufEZi-1" vertex="1">
          <mxGeometry x="130" y="520.5" width="70" height="30" as="geometry" />
        </mxCell>
        <mxCell id="xaTG5l0WvA_O49W2t0uF-0" value="" style="rounded=0;whiteSpace=wrap;html=1;fillColor=#E6E6E6;fontColor=#333333;strokeColor=none;" parent="0VxUf1fHCBOi7_iufEZi-1" vertex="1">
          <mxGeometry x="484" y="479" width="149" height="121" as="geometry" />
        </mxCell>
        <mxCell id="xaTG5l0WvA_O49W2t0uF-1" value="HopsFS" style="text;html=1;align=center;verticalAlign=middle;resizable=0;points=[];autosize=1;strokeColor=none;fillColor=none;" parent="0VxUf1fHCBOi7_iufEZi-1" vertex="1">
          <mxGeometry x="528" y="571" width="70" height="30" as="geometry" />
        </mxCell>
        <mxCell id="xaTG5l0WvA_O49W2t0uF-2" value="" style="group" parent="0VxUf1fHCBOi7_iufEZi-1" connectable="0" vertex="1">
          <mxGeometry x="500" y="490" width="126" height="92" as="geometry" />
        </mxCell>
        <mxCell id="xaTG5l0WvA_O49W2t0uF-3" value="" style="shape=cube;whiteSpace=wrap;html=1;boundedLbl=1;backgroundOutline=1;darkOpacity=0.05;darkOpacity2=0.1;size=7;fillColor=#ffe6cc;strokeColor=#d79b00;" parent="xaTG5l0WvA_O49W2t0uF-2" vertex="1">
          <mxGeometry width="120" height="80" as="geometry" />
        </mxCell>
        <mxCell id="xaTG5l0WvA_O49W2t0uF-4" value="Delta Lake table" style="text;html=1;align=center;verticalAlign=middle;resizable=0;points=[];autosize=1;strokeColor=none;fillColor=none;" parent="xaTG5l0WvA_O49W2t0uF-2" vertex="1">
          <mxGeometry x="10" y="10" width="110" height="30" as="geometry" />
        </mxCell>
        <mxCell id="xaTG5l0WvA_O49W2t0uF-5" value="" style="group" parent="xaTG5l0WvA_O49W2t0uF-2" connectable="0" vertex="1">
          <mxGeometry x="16" y="40" width="110" height="42" as="geometry" />
        </mxCell>
        <mxCell id="xaTG5l0WvA_O49W2t0uF-6" value="&lt;div&gt;.parquet files&lt;/div&gt;" style="rounded=0;whiteSpace=wrap;html=1;dashed=1;dashPattern=8 8;verticalAlign=top;" parent="xaTG5l0WvA_O49W2t0uF-5" vertex="1">
          <mxGeometry width="100" height="36.4" as="geometry" />
        </mxCell>
        <mxCell id="xaTG5l0WvA_O49W2t0uF-7" value="&lt;font color=&quot;#0000ff&quot; size=&quot;1&quot;&gt;column-oriented&lt;/font&gt;" style="text;html=1;align=center;verticalAlign=middle;resizable=0;points=[];autosize=1;strokeColor=none;fillColor=none;" parent="xaTG5l0WvA_O49W2t0uF-5" vertex="1">
          <mxGeometry x="10" y="14" width="100" height="30" as="geometry" />
        </mxCell>
        <mxCell id="0VxUf1fHCBOi7_iufEZi-19" style="edgeStyle=orthogonalEdgeStyle;rounded=0;orthogonalLoop=1;jettySize=auto;html=1;entryX=0;entryY=0.676;entryDx=0;entryDy=0;curved=1;exitX=1;exitY=0.75;exitDx=0;exitDy=0;endArrow=classicThin;endFill=1;entryPerimeter=0;" parent="0VxUf1fHCBOi7_iufEZi-1" source="0VxUf1fHCBOi7_iufEZi-6" target="xaTG5l0WvA_O49W2t0uF-3" edge="1">
          <mxGeometry relative="1" as="geometry">
            <mxPoint x="269" y="607.49" as="sourcePoint" />
            <mxPoint x="497" y="544.4900000000001" as="targetPoint" />
            <Array as="points">
              <mxPoint x="450" y="588" />
              <mxPoint x="450" y="544" />
            </Array>
          </mxGeometry>
        </mxCell>
        <mxCell id="bcuruBq53pRpjTrFLau1-0" value="" style="endArrow=classicThin;html=1;rounded=0;entryX=1;entryY=0.5;entryDx=0;entryDy=0;exitX=0.001;exitY=0.381;exitDx=0;exitDy=0;curved=1;endFill=1;exitPerimeter=0;" parent="0VxUf1fHCBOi7_iufEZi-1" source="xaTG5l0WvA_O49W2t0uF-3" target="0VxUf1fHCBOi7_iufEZi-6" edge="1">
          <mxGeometry width="50" height="50" relative="1" as="geometry">
            <mxPoint x="497" y="520.5" as="sourcePoint" />
            <mxPoint x="410" y="500" as="targetPoint" />
            <Array as="points">
              <mxPoint x="420" y="520" />
              <mxPoint x="380" y="580" />
            </Array>
          </mxGeometry>
        </mxCell>
        <mxCell id="bcuruBq53pRpjTrFLau1-1" value="Arrow Table" style="rounded=0;whiteSpace=wrap;html=1;dashed=1;dashPattern=8 8;verticalAlign=top;" parent="0VxUf1fHCBOi7_iufEZi-1" vertex="1">
          <mxGeometry x="371.5" y="513.5" width="81" height="34" as="geometry" />
        </mxCell>
        <mxCell id="bcuruBq53pRpjTrFLau1-2" value="&lt;span style=&quot;font-size: x-small;&quot;&gt;column-oriented&lt;/span&gt;" style="text;html=1;align=center;verticalAlign=middle;resizable=0;points=[];autosize=1;strokeColor=none;fillColor=none;fontColor=#0000FF;" parent="0VxUf1fHCBOi7_iufEZi-1" vertex="1">
          <mxGeometry x="364" y="524.5" width="100" height="30" as="geometry" />
        </mxCell>
        <mxCell id="0VxUf1fHCBOi7_iufEZi-20" value="" style="group" parent="0VxUf1fHCBOi7_iufEZi-1" connectable="0" vertex="1">
          <mxGeometry x="435" y="550" width="30" height="30" as="geometry" />
        </mxCell>
        <mxCell id="0VxUf1fHCBOi7_iufEZi-21" value="" style="ellipse;whiteSpace=wrap;html=1;aspect=fixed;" parent="0VxUf1fHCBOi7_iufEZi-20" vertex="1">
          <mxGeometry x="5" y="6" width="20" height="20" as="geometry" />
        </mxCell>
        <mxCell id="0VxUf1fHCBOi7_iufEZi-22" value="2" style="text;html=1;align=center;verticalAlign=middle;resizable=0;points=[];autosize=1;strokeColor=none;fillColor=none;" parent="0VxUf1fHCBOi7_iufEZi-20" vertex="1">
          <mxGeometry width="30" height="30" as="geometry" />
        </mxCell>
      </root>
    </mxGraphModel>
  </diagram>
</mxfile>
